VT323_v3_decomposed.ufo
<glyph name="quotedbl" format="1">
  <advance width="400"/>
  <unicode hex="0022"/>
  <outline>
    <contour>
      <point x="77" y="548"/>
      <point x="76" y="531"/>
      <point x="76" y="520" type="curve" smooth="yes"/>
      <point x="76" y="509"/>
      <point x="77" y="493"/>
      <point x="80" y="480" type="curve"/>
      <point x="160" y="480" type="line"/>
      <point x="163" y="493"/>
      <point x="164" y="509"/>
      <point x="164" y="520" type="curve" smooth="yes"/>
      <point x="164" y="531"/>
      <point x="163" y="548"/>
      <point x="160" y="560" type="curve"/>
      <point x="80" y="560" type="line"/>
    </contour>
    <contour>
      <point x="77" y="628"/>
      <point x="76" y="611"/>
      <point x="76" y="600" type="curve" smooth="yes"/>
      <point x="76" y="589"/>
      <point x="77" y="573"/>
      <point x="80" y="560" type="curve"/>
      <point x="160" y="560" type="line"/>
      <point x="163" y="573"/>
      <point x="164" y="589"/>
      <point x="164" y="600" type="curve" smooth="yes"/>
      <point x="164" y="611"/>
      <point x="163" y="628"/>
      <point x="160" y="640" type="curve"/>
      <point x="80" y="640" type="line"/>
    </contour>
    <contour>
      <point x="237" y="548"/>
      <point x="236" y="531"/>
      <point x="236" y="520" type="curve" smooth="yes"/>
      <point x="236" y="509"/>
      <point x="237" y="493"/>
      <point x="240" y="480" type="curve"/>
      <point x="320" y="480" type="line"/>
      <point x="323" y="493"/>
      <point x="324" y="509"/>
      <point x="324" y="520" type="curve" smooth="yes"/>
      <point x="324" y="531"/>
      <point x="323" y="548"/>
      <point x="320" y="560" type="curve"/>
      <point x="240" y="560" type="line"/>
    </contour>
    <contour>
      <point x="237" y="628"/>
      <point x="236" y="611"/>
      <point x="236" y="600" type="curve" smooth="yes"/>
      <point x="236" y="589"/>
      <point x="237" y="573"/>
      <point x="240" y="560" type="curve"/>
      <point x="320" y="560" type="line"/>
      <point x="323" y="573"/>
      <point x="324" y="589"/>
      <point x="324" y="600" type="curve" smooth="yes"/>
      <point x="324" y="611"/>
      <point x="323" y="628"/>
      <point x="320" y="640" type="curve"/>
      <point x="240" y="640" type="line"/>
    </contour>
  </outline>
</glyph>
<glyph name="dollar" format="1">
  <advance width="400"/>
  <unicode hex="0024"/>
  <outline>
    <contour>
      <point x="37" y="388"/>
      <point x="36" y="371"/>
      <point x="36" y="360" type="curve" smooth="yes"/>
      <point x="36" y="349"/>
      <point x="37" y="333"/>
      <point x="40" y="320" type="curve"/>
      <point x="120" y="320" type="line"/>
      <point x="123" y="333"/>
      <point x="124" y="349"/>
      <point x="124" y="360" type="curve" smooth="yes"/>
      <point x="124" y="371"/>
      <point x="123" y="388"/>
      <point x="120" y="400" type="curve"/>
      <point x="40" y="400" type="line"/>
    </contour>
    <contour>
      <point x="277" y="228"/>
      <point x="276" y="211"/>
      <point x="276" y="200" type="curve" smooth="yes"/>
      <point x="276" y="189"/>
      <point x="277" y="173"/>
      <point x="280" y="160" type="curve"/>
      <point x="360" y="160" type="line"/>
      <point x="363" y="173"/>
      <point x="364" y="189"/>
      <point x="364" y="200" type="curve" smooth="yes"/>
      <point x="364" y="211"/>
      <point x="363" y="228"/>
      <point x="360" y="240" type="curve"/>
      <point x="280" y="240" type="line"/>
    </contour>
    <contour>
      <point x="197" y="308"/>
      <point x="196" y="291"/>
      <point x="196" y="280" type="curve" smooth="yes"/>
      <point x="196" y="269"/>
      <point x="197" y="253"/>
      <point x="200" y="240" type="curve"/>
      <point x="320" y="240" type="line"/>
      <point x="323" y="253"/>
      <point x="324" y="269"/>
      <point x="324" y="280" type="curve" smooth="yes"/>
      <point x="324" y="291"/>
      <point x="323" y="308"/>
      <point x="320" y="320" type="curve"/>
      <point x="200" y="320" type="line"/>
    </contour>
    <contour>
      <point x="77" y="308"/>
      <point x="76" y="291"/>
      <point x="76" y="280" type="curve" smooth="yes"/>
      <point x="76" y="269"/>
      <point x="77" y="253"/>
      <point x="80" y="240" type="curve"/>
      <point x="200" y="240" type="line"/>
      <point x="203" y="253"/>
      <point x="204" y="269"/>
      <point x="204" y="280" type="curve" smooth="yes"/>
      <point x="204" y="291"/>
      <point x="203" y="308"/>
      <point x="200" y="320" type="curve"/>
      <point x="80" y="320" type="line"/>
    </contour>
    <contour>
      <point x="37" y="468"/>
      <point x="36" y="451"/>
      <point x="36" y="440" type="curve" smooth="yes"/>
      <point x="36" y="429"/>
      <point x="37" y="413"/>
      <point x="40" y="400" type="curve"/>
      <point x="120" y="400" type="line"/>
      <point x="123" y="413"/>
      <point x="124" y="429"/>
      <point x="124" y="440" type="curve" smooth="yes"/>
      <point x="124" y="451"/>
      <point x="123" y="468"/>
      <point x="120" y="480" type="curve"/>
      <point x="40" y="480" type="line"/>
    </contour>
    <contour>
      <point x="277" y="148"/>
      <point x="276" y="131"/>
      <point x="276" y="120" type="curve" smooth="yes"/>
      <point x="276" y="109"/>
      <point x="277" y="93"/>
      <point x="280" y="80" type="curve"/>
      <point x="360" y="80" type="line"/>
      <point x="363" y="93"/>
      <point x="364" y="109"/>
      <point x="364" y="120" type="curve" smooth="yes"/>
      <point x="364" y="131"/>
      <point x="363" y="148"/>
      <point x="360" y="160" type="curve"/>
      <point x="280" y="160" type="line"/>
    </contour>
    <contour>
      <point x="277" y="468"/>
      <point x="276" y="451"/>
      <point x="276" y="440" type="curve" smooth="yes"/>
      <point x="276" y="429"/>
      <point x="277" y="413"/>
      <point x="280" y="400" type="curve"/>
      <point x="360" y="400" type="line"/>
      <point x="363" y="413"/>
      <point x="364" y="429"/>
      <point x="364" y="440" type="curve" smooth="yes"/>
      <point x="364" y="451"/>
      <point x="363" y="468"/>
      <point x="360" y="480" type="curve"/>
      <point x="280" y="480" type="line"/>
    </contour>
    <contour>
      <point x="37" y="148"/>
      <point x="36" y="131"/>
      <point x="36" y="120" type="curve" smooth="yes"/>
      <point x="36" y="109"/>
      <point x="37" y="93"/>
      <point x="40" y="80" type="curve"/>
      <point x="120" y="80" type="line"/>
      <point x="123" y="93"/>
      <point x="124" y="109"/>
      <point x="124" y="120" type="curve" smooth="yes"/>
      <point x="124" y="131"/>
      <point x="123" y="148"/>
      <point x="120" y="160" type="curve"/>
      <point x="40" y="160" type="line"/>
    </contour>
    <contour>
      <point x="197" y="548"/>
      <point x="196" y="531"/>
      <point x="196" y="520" type="curve" smooth="yes"/>
      <point x="196" y="509"/>
      <point x="197" y="493"/>
      <point x="200" y="480" type="curve"/>
      <point x="320" y="480" type="line"/>
      <point x="323" y="493"/>
      <point x="324" y="509"/>
      <point x="324" y="520" type="curve" smooth="yes"/>
      <point x="324" y="531"/>
      <point x="323" y="548"/>
      <point x="320" y="560" type="curve"/>
      <point x="200" y="560" type="line"/>
    </contour>
    <contour>
      <point x="77" y="548"/>
      <point x="76" y="531"/>
      <point x="76" y="520" type="curve" smooth="yes"/>
      <point x="76" y="509"/>
      <point x="77" y="493"/>
      <point x="80" y="480" type="curve"/>
      <point x="200" y="480" type="line"/>
      <point x="203" y="493"/>
      <point x="204" y="509"/>
      <point x="204" y="520" type="curve" smooth="yes"/>
      <point x="204" y="531"/>
      <point x="203" y="548"/>
      <point x="200" y="560" type="curve"/>
      <point x="80" y="560" type="line"/>
    </contour>
    <contour>
      <point x="197" y="68"/>
      <point x="196" y="51"/>
      <point x="196" y="40" type="curve" smooth="yes"/>
      <point x="196" y="29"/>
      <point x="197" y="13"/>
      <point x="200" y="0" type="curve"/>
      <point x="320" y="0" type="line"/>
      <point x="323" y="13"/>
      <point x="324" y="29"/>
      <point x="324" y="40" type="curve" smooth="yes"/>
      <point x="324" y="51"/>
      <point x="323" y="68"/>
      <point x="320" y="80" type="curve"/>
      <point x="200" y="80" type="line"/>
    </contour>
    <contour>
      <point x="77" y="68"/>
      <point x="76" y="51"/>
      <point x="76" y="40" type="curve" smooth="yes"/>
      <point x="76" y="29"/>
      <point x="77" y="13"/>
      <point x="80" y="0" type="curve"/>
      <point x="200" y="0" type="line"/>
      <point x="203" y="13"/>
      <point x="204" y="29"/>
      <point x="204" y="40" type="curve" smooth="yes"/>
      <point x="204" y="51"/>
      <point x="203" y="68"/>
      <point x="200" y="80" type="curve"/>
      <point x="80" y="80" type="line"/>
    </contour>
    <contour>
      <point x="167" y="628"/>
      <point x="166" y="611"/>
      <point x="166" y="600" type="curve" smooth="yes"/>
      <point x="166" y="589"/>
      <point x="167" y="573"/>
      <point x="170" y="560" type="curve"/>
      <point x="230" y="560" type="line"/>
      <point x="233" y="573"/>
      <point x="234" y="589"/>
      <point x="234" y="600" type="curve" smooth="yes"/>
      <point x="234" y="611"/>
      <point x="233" y="628"/>
      <point x="230" y="640" type="curve"/>
      <point x="170" y="640" type="line"/>
    </contour>
    <contour>
      <point x="167" y="468"/>
      <point x="166" y="451"/>
      <point x="166" y="440" type="curve" smooth="yes"/>
      <point x="166" y="429"/>
      <point x="167" y="413"/>
      <point x="170" y="400" type="curve"/>
      <point x="230" y="400" type="line"/>
      <point x="233" y="413"/>
      <point x="234" y="429"/>
      <point x="234" y="440" type="curve" smooth="yes"/>
      <point x="234" y="451"/>
      <point x="233" y="468"/>
      <point x="230" y="480" type="curve"/>
      <point x="170" y="480" type="line"/>
    </contour>
    <contour>
      <point x="167" y="388"/>
      <point x="166" y="371"/>
      <point x="166" y="360" type="curve" smooth="yes"/>
      <point x="166" y="349"/>
      <point x="167" y="333"/>
      <point x="170" y="320" type="curve"/>
      <point x="230" y="320" type="line"/>
      <point x="233" y="333"/>
      <point x="234" y="349"/>
      <point x="234" y="360" type="curve" smooth="yes"/>
      <point x="234" y="371"/>
      <point x="233" y="388"/>
      <point x="230" y="400" type="curve"/>
      <point x="170" y="400" type="line"/>
    </contour>
    <contour>
      <point x="167" y="228"/>
      <point x="166" y="211"/>
      <point x="166" y="200" type="curve" smooth="yes"/>
      <point x="166" y="189"/>
      <point x="167" y="173"/>
      <point x="170" y="160" type="curve"/>
      <point x="230" y="160" type="line"/>
      <point x="233" y="173"/>
      <point x="234" y="189"/>
      <point x="234" y="200" type="curve" smooth="yes"/>
      <point x="234" y="211"/>
      <point x="233" y="228"/>
      <point x="230" y="240" type="curve"/>
      <point x="170" y="240" type="line"/>
    </contour>
    <contour>
      <point x="167" y="148"/>
      <point x="166" y="131"/>
      <point x="166" y="120" type="curve" smooth="yes"/>
      <point x="166" y="109"/>
      <point x="167" y="93"/>
      <point x="170" y="80" type="curve"/>
      <point x="230" y="80" type="line"/>
      <point x="233" y="93"/>
      <point x="234" y="109"/>
      <point x="234" y="120" type="curve" smooth="yes"/>
      <point x="234" y="131"/>
      <point x="233" y="148"/>
      <point x="230" y="160" type="curve"/>
      <point x="170" y="160" type="line"/>
    </contour>
    <contour>
      <point x="167" y="-12"/>
      <point x="166" y="-29"/>
      <point x="166" y="-40" type="curve" smooth="yes"/>
      <point x="166" y="-51"/>
      <point x="167" y="-67"/>
      <point x="170" y="-80" type="curve"/>
      <point x="230" y="-80" type="line"/>
      <point x="233" y="-67"/>
      <point x="234" y="-51"/>
      <point x="234" y="-40" type="curve" smooth="yes"/>
      <point x="234" y="-29"/>
      <point x="233" y="-12"/>
      <point x="230" y="0" type="curve"/>
      <point x="170" y="0" type="line"/>
    </contour>
  </outline>
</glyph>
<glyph name="parenleft" format="1">
  <advance width="400"/>
  <unicode hex="0028"/>
  <outline>
    <contour>
      <point x="127" y="228"/>
      <point x="126" y="211"/>
      <point x="126" y="200" type="curve" smooth="yes"/>
      <point x="126" y="189"/>
      <point x="127" y="173"/>
      <point x="130" y="160" type="curve"/>
      <point x="210" y="160" type="line"/>
      <point x="213" y="173"/>
      <point x="214" y="189"/>
      <point x="214" y="200" type="curve" smooth="yes"/>
      <point x="214" y="211"/>
      <point x="213" y="228"/>
      <point x="210" y="240" type="curve"/>
      <point x="130" y="240" type="line"/>
    </contour>
    <contour>
      <point x="127" y="308"/>
      <point x="126" y="291"/>
      <point x="126" y="280" type="curve" smooth="yes"/>
      <point x="126" y="269"/>
      <point x="127" y="253"/>
      <point x="130" y="240" type="curve"/>
      <point x="210" y="240" type="line"/>
      <point x="213" y="253"/>
      <point x="214" y="269"/>
      <point x="214" y="280" type="curve" smooth="yes"/>
      <point x="214" y="291"/>
      <point x="213" y="308"/>
      <point x="210" y="320" type="curve"/>
      <point x="130" y="320" type="line"/>
    </contour>
    <contour>
      <point x="127" y="388"/>
      <point x="126" y="371"/>
      <point x="126" y="360" type="curve" smooth="yes"/>
      <point x="126" y="349"/>
      <point x="127" y="333"/>
      <point x="130" y="320" type="curve"/>
      <point x="210" y="320" type="line"/>
      <point x="213" y="333"/>
      <point x="214" y="349"/>
      <point x="214" y="360" type="curve" smooth="yes"/>
      <point x="214" y="371"/>
      <point x="213" y="388"/>
      <point x="210" y="400" type="curve"/>
      <point x="130" y="400" type="line"/>
    </contour>
    <contour>
      <point x="157" y="468"/>
      <point x="156" y="451"/>
      <point x="156" y="440" type="curve" smooth="yes"/>
      <point x="156" y="429"/>
      <point x="157" y="413"/>
      <point x="160" y="400" type="curve"/>
      <point x="210" y="400" type="line"/>
      <point x="213" y="413"/>
      <point x="214" y="429"/>
      <point x="214" y="440" type="curve" smooth="yes"/>
      <point x="214" y="451"/>
      <point x="213" y="468"/>
      <point x="210" y="480" type="curve"/>
      <point x="160" y="480" type="line"/>
    </contour>
    <contour>
      <point x="182" y="548"/>
      <point x="181" y="531"/>
      <point x="181" y="520" type="curve" smooth="yes"/>
      <point x="181" y="509"/>
      <point x="182" y="493"/>
      <point x="185" y="480" type="curve"/>
      <point x="235" y="480" type="line"/>
      <point x="238" y="493"/>
      <point x="239" y="509"/>
      <point x="239" y="520" type="curve" smooth="yes"/>
      <point x="239" y="531"/>
      <point x="238" y="548"/>
      <point x="235" y="560" type="curve"/>
      <point x="185" y="560" type="line"/>
    </contour>
    <contour>
      <point x="232" y="628"/>
      <point x="231" y="611"/>
      <point x="231" y="600" type="curve" smooth="yes"/>
      <point x="231" y="589"/>
      <point x="232" y="573"/>
      <point x="235" y="560" type="curve"/>
      <point x="285" y="560" type="line"/>
      <point x="288" y="573"/>
      <point x="289" y="589"/>
      <point x="289" y="600" type="curve" smooth="yes"/>
      <point x="289" y="611"/>
      <point x="288" y="628"/>
      <point x="285" y="640" type="curve"/>
      <point x="235" y="640" type="line"/>
    </contour>
    <contour>
      <point x="157" y="148"/>
      <point x="156" y="131"/>
      <point x="156" y="120" type="curve" smooth="yes"/>
      <point x="156" y="109"/>
      <point x="157" y="93"/>
      <point x="160" y="80" type="curve"/>
      <point x="210" y="80" type="line"/>
      <point x="213" y="93"/>
      <point x="214" y="109"/>
      <point x="214" y="120" type="curve" smooth="yes"/>
      <point x="214" y="131"/>
      <point x="213" y="148"/>
      <point x="210" y="160" type="curve"/>
      <point x="160" y="160" type="line"/>
    </contour>
    <contour>
      <point x="182" y="68"/>
      <point x="181" y="51"/>
      <point x="181" y="40" type="curve" smooth="yes"/>
      <point x="181" y="29"/>
      <point x="182" y="13"/>
      <point x="185" y="0" type="curve"/>
      <point x="235" y="0" type="line"/>
      <point x="238" y="13"/>
      <point x="239" y="29"/>
      <point x="239" y="40" type="curve" smooth="yes"/>
      <point x="239" y="51"/>
      <point x="238" y="68"/>
      <point x="235" y="80" type="curve"/>
      <point x="185" y="80" type="line"/>
    </contour>
    <contour>
      <point x="232" y="-12"/>
      <point x="231" y="-29"/>
      <point x="231" y="-40" type="curve" smooth="yes"/>
      <point x="231" y="-51"/>
      <point x="232" y="-67"/>
      <point x="235" y="-80" type="curve"/>
      <point x="285" y="-80" type="line"/>
      <point x="288" y="-67"/>
      <point x="289" y="-51"/>
      <point x="289" y="-40" type="curve" smooth="yes"/>
      <point x="289" y="-29"/>
      <point x="288" y="-12"/>
      <point x="285" y="0" type="curve"/>
      <point x="235" y="0" type="line"/>
    </contour>
  </outline>
</glyph>
<glyph name="parenright" format="1">
  <advance width="400"/>
  <unicode hex="0029"/>
  <outline>
    <contour>
      <point x="187" y="228"/>
      <point x="186" y="211"/>
      <point x="186" y="200" type="curve" smooth="yes"/>
      <point x="186" y="189"/>
      <point x="187" y="173"/>
      <point x="190" y="160" type="curve"/>
      <point x="270" y="160" type="line"/>
      <point x="273" y="173"/>
      <point x="274" y="189"/>
      <point x="274" y="200" type="curve" smooth="yes"/>
      <point x="274" y="211"/>
      <point x="273" y="228"/>
      <point x="270" y="240" type="curve"/>
      <point x="190" y="240" type="line"/>
    </contour>
    <contour>
      <point x="187" y="308"/>
      <point x="186" y="291"/>
      <point x="186" y="280" type="curve" smooth="yes"/>
      <point x="186" y="269"/>
      <point x="187" y="253"/>
      <point x="190" y="240" type="curve"/>
      <point x="270" y="240" type="line"/>
      <point x="273" y="253"/>
      <point x="274" y="269"/>
      <point x="274" y="280" type="curve" smooth="yes"/>
      <point x="274" y="291"/>
      <point x="273" y="308"/>
      <point x="270" y="320" type="curve"/>
      <point x="190" y="320" type="line"/>
    </contour>
    <contour>
      <point x="187" y="388"/>
      <point x="186" y="371"/>
      <point x="186" y="360" type="curve" smooth="yes"/>
      <point x="186" y="349"/>
      <point x="187" y="333"/>
      <point x="190" y="320" type="curve"/>
      <point x="270" y="320" type="line"/>
      <point x="273" y="333"/>
      <point x="274" y="349"/>
      <point x="274" y="360" type="curve" smooth="yes"/>
      <point x="274" y="371"/>
      <point x="273" y="388"/>
      <point x="270" y="400" type="curve"/>
      <point x="190" y="400" type="line"/>
    </contour>
    <contour>
      <point x="187" y="468"/>
      <point x="186" y="451"/>
      <point x="186" y="440" type="curve" smooth="yes"/>
      <point x="186" y="429"/>
      <point x="187" y="413"/>
      <point x="190" y="400" type="curve"/>
      <point x="240" y="400" type="line"/>
      <point x="243" y="413"/>
      <point x="244" y="429"/>
      <point x="244" y="440" type="curve" smooth="yes"/>
      <point x="244" y="451"/>
      <point x="243" y="468"/>
      <point x="240" y="480" type="curve"/>
      <point x="190" y="480" type="line"/>
    </contour>
    <contour>
      <point x="162" y="548"/>
      <point x="161" y="531"/>
      <point x="161" y="520" type="curve" smooth="yes"/>
      <point x="161" y="509"/>
      <point x="162" y="493"/>
      <point x="165" y="480" type="curve"/>
      <point x="215" y="480" type="line"/>
      <point x="218" y="493"/>
      <point x="219" y="509"/>
      <point x="219" y="520" type="curve" smooth="yes"/>
      <point x="219" y="531"/>
      <point x="218" y="548"/>
      <point x="215" y="560" type="curve"/>
      <point x="165" y="560" type="line"/>
    </contour>
    <contour>
      <point x="112" y="628"/>
      <point x="111" y="611"/>
      <point x="111" y="600" type="curve" smooth="yes"/>
      <point x="111" y="589"/>
      <point x="112" y="573"/>
      <point x="115" y="560" type="curve"/>
      <point x="165" y="560" type="line"/>
      <point x="168" y="573"/>
      <point x="169" y="589"/>
      <point x="169" y="600" type="curve" smooth="yes"/>
      <point x="169" y="611"/>
      <point x="168" y="628"/>
      <point x="165" y="640" type="curve"/>
      <point x="115" y="640" type="line"/>
    </contour>
    <contour>
      <point x="187" y="148"/>
      <point x="186" y="131"/>
      <point x="186" y="120" type="curve" smooth="yes"/>
      <point x="186" y="109"/>
      <point x="187" y="93"/>
      <point x="190" y="80" type="curve"/>
      <point x="240" y="80" type="line"/>
      <point x="243" y="93"/>
      <point x="244" y="109"/>
      <point x="244" y="120" type="curve" smooth="yes"/>
      <point x="244" y="131"/>
      <point x="243" y="148"/>
      <point x="240" y="160" type="curve"/>
      <point x="190" y="160" type="line"/>
    </contour>
    <contour>
      <point x="162" y="68"/>
      <point x="161" y="51"/>
      <point x="161" y="40" type="curve" smooth="yes"/>
      <point x="161" y="29"/>
      <point x="162" y="13"/>
      <point x="165" y="0" type="curve"/>
      <point x="215" y="0" type="line"/>
      <point x="218" y="13"/>
      <point x="219" y="29"/>
      <point x="219" y="40" type="curve" smooth="yes"/>
      <point x="219" y="51"/>
      <point x="218" y="68"/>
      <point x="215" y="80" type="curve"/>
      <point x="165" y="80" type="line"/>
    </contour>
    <contour>
      <point x="112" y="-12"/>
      <point x="111" y="-29"/>
      <point x="111" y="-40" type="curve" smooth="yes"/>
      <point x="111" y="-51"/>
      <point x="112" y="-67"/>
      <point x="115" y="-80" type="curve"/>
      <point x="165" y="-80" type="line"/>
      <point x="168" y="-67"/>
      <point x="169" y="-51"/>
      <point x="169" y="-40" type="curve" smooth="yes"/>
      <point x="169" y="-29"/>
      <point x="168" y="-12"/>
      <point x="165" y="0" type="curve"/>
      <point x="115" y="0" type="line"/>
    </contour>
  </outline>
</glyph>
<glyph name="plus" format="1">
  <advance width="400"/>
  <unicode hex="002B"/>
  <outline>
    <contour>
      <point x="157" y="228"/>
      <point x="156" y="211"/>
      <point x="156" y="200" type="curve" smooth="yes"/>
      <point x="156" y="189"/>
      <point x="157" y="173"/>
      <point x="160" y="160" type="curve"/>
      <point x="240" y="160" type="line"/>
      <point x="243" y="173"/>
      <point x="244" y="189"/>
      <point x="244" y="200" type="curve" smooth="yes"/>
      <point x="244" y="211"/>
      <point x="243" y="228"/>
      <point x="240" y="240" type="curve"/>
      <point x="160" y="240" type="line"/>
    </contour>
    <contour>
      <point x="157" y="148"/>
      <point x="156" y="131"/>
      <point x="156" y="120" type="curve" smooth="yes"/>
      <point x="156" y="109"/>
      <point x="157" y="93"/>
      <point x="160" y="80" type="curve"/>
      <point x="240" y="80" type="line"/>
      <point x="243" y="93"/>
      <point x="244" y="109"/>
      <point x="244" y="120" type="curve" smooth="yes"/>
      <point x="244" y="131"/>
      <point x="243" y="148"/>
      <point x="240" y="160" type="curve"/>
      <point x="160" y="160" type="line"/>
    </contour>
    <contour>
      <point x="157" y="468"/>
      <point x="156" y="451"/>
      <point x="156" y="440" type="curve" smooth="yes"/>
      <point x="156" y="429"/>
      <point x="157" y="413"/>
      <point x="160" y="400" type="curve"/>
      <point x="240" y="400" type="line"/>
      <point x="243" y="413"/>
      <point x="244" y="429"/>
      <point x="244" y="440" type="curve" smooth="yes"/>
      <point x="244" y="451"/>
      <point x="243" y="468"/>
      <point x="240" y="480" type="curve"/>
      <point x="160" y="480" type="line"/>
    </contour>
    <contour>
      <point x="157" y="388"/>
      <point x="156" y="371"/>
      <point x="156" y="360" type="curve" smooth="yes"/>
      <point x="156" y="349"/>
      <point x="157" y="333"/>
      <point x="160" y="320" type="curve"/>
      <point x="240" y="320" type="line"/>
      <point x="243" y="333"/>
      <point x="244" y="349"/>
      <point x="244" y="360" type="curve" smooth="yes"/>
      <point x="244" y="371"/>
      <point x="243" y="388"/>
      <point x="240" y="400" type="curve"/>
      <point x="160" y="400" type="line"/>
    </contour>
    <contour>
      <point x="57" y="308"/>
      <point x="56" y="291"/>
      <point x="56" y="280" type="curve" smooth="yes"/>
      <point x="56" y="269"/>
      <point x="57" y="253"/>
      <point x="60" y="240" type="curve"/>
      <point x="200" y="240" type="line"/>
      <point x="203" y="253"/>
      <point x="204" y="269"/>
      <point x="204" y="280" type="curve" smooth="yes"/>
      <point x="204" y="291"/>
      <point x="203" y="308"/>
      <point x="200" y="320" type="curve"/>
      <point x="60" y="320" type="line"/>
    </contour>
    <contour>
      <point x="197" y="308"/>
      <point x="196" y="291"/>
      <point x="196" y="280" type="curve" smooth="yes"/>
      <point x="196" y="269"/>
      <point x="197" y="253"/>
      <point x="200" y="240" type="curve"/>
      <point x="340" y="240" type="line"/>
      <point x="343" y="253"/>
      <point x="344" y="269"/>
      <point x="344" y="280" type="curve" smooth="yes"/>
      <point x="344" y="291"/>
      <point x="343" y="308"/>
      <point x="340" y="320" type="curve"/>
      <point x="200" y="320" type="line"/>
    </contour>
  </outline>
</glyph>
<glyph name="comma" format="1">
  <advance width="400"/>
  <unicode hex="002C"/>
  <outline>
    <contour>
      <point x="147" y="148"/>
      <point x="146" y="131"/>
      <point x="146" y="120" type="curve" smooth="yes"/>
      <point x="146" y="109"/>
      <point x="147" y="93"/>
      <point x="150" y="80" type="curve"/>
      <point x="250" y="80" type="line"/>
      <point x="253" y="93"/>
      <point x="254" y="109"/>
      <point x="254" y="120" type="curve" smooth="yes"/>
      <point x="254" y="131"/>
      <point x="253" y="148"/>
      <point x="250" y="160" type="curve"/>
      <point x="150" y="160" type="line"/>
    </contour>
    <contour>
      <point x="187" y="-12"/>
      <point x="186" y="-29"/>
      <point x="186" y="-40" type="curve" smooth="yes"/>
      <point x="186" y="-51"/>
      <point x="187" y="-67"/>
      <point x="190" y="-80" type="curve"/>
      <point x="250" y="-80" type="line"/>
      <point x="253" y="-67"/>
      <point x="254" y="-51"/>
      <point x="254" y="-40" type="curve" smooth="yes"/>
      <point x="254" y="-29"/>
      <point x="253" y="-12"/>
      <point x="250" y="0" type="curve"/>
      <point x="190" y="0" type="line"/>
    </contour>
    <contour>
      <point x="147" y="68"/>
      <point x="146" y="51"/>
      <point x="146" y="40" type="curve" smooth="yes"/>
      <point x="146" y="29"/>
      <point x="147" y="13"/>
      <point x="150" y="0" type="curve"/>
      <point x="250" y="0" type="line"/>
      <point x="253" y="13"/>
      <point x="254" y="29"/>
      <point x="254" y="40" type="curve" smooth="yes"/>
      <point x="254" y="51"/>
      <point x="253" y="68"/>
      <point x="250" y="80" type="curve"/>
      <point x="150" y="80" type="line"/>
    </contour>
    <contour>
      <point x="147" y="-92"/>
      <point x="146" y="-109"/>
      <point x="146" y="-120" type="curve" smooth="yes"/>
      <point x="146" y="-131"/>
      <point x="147" y="-147"/>
      <point x="150" y="-160" type="curve"/>
      <point x="210" y="-160" type="line"/>
      <point x="213" y="-147"/>
      <point x="214" y="-131"/>
      <point x="214" y="-120" type="curve" smooth="yes"/>
      <point x="214" y="-109"/>
      <point x="213" y="-92"/>
      <point x="210" y="-80" type="curve"/>
      <point x="150" y="-80" type="line"/>
    </contour>
  </outline>
</glyph>
<glyph name="less" format="1">
  <advance width="400"/>
  <unicode hex="003C"/>
  <outline>
    <contour>
      <point x="232" y="548"/>
      <point x="231" y="531"/>
      <point x="231" y="520" type="curve" smooth="yes"/>
      <point x="231" y="509"/>
      <point x="232" y="493"/>
      <point x="235" y="480" type="curve"/>
      <point x="315" y="480" type="line"/>
      <point x="318" y="493"/>
      <point x="319" y="509"/>
      <point x="319" y="520" type="curve" smooth="yes"/>
      <point x="319" y="531"/>
      <point x="318" y="548"/>
      <point x="315" y="560" type="curve"/>
      <point x="235" y="560" type="line"/>
    </contour>
    <contour>
      <point x="182" y="468"/>
      <point x="181" y="451"/>
      <point x="181" y="440" type="curve" smooth="yes"/>
      <point x="181" y="429"/>
      <point x="182" y="413"/>
      <point x="185" y="400" type="curve"/>
      <point x="265" y="400" type="line"/>
      <point x="268" y="413"/>
      <point x="269" y="429"/>
      <point x="269" y="440" type="curve" smooth="yes"/>
      <point x="269" y="451"/>
      <point x="268" y="468"/>
      <point x="265" y="480" type="curve"/>
      <point x="185" y="480" type="line"/>
    </contour>
    <contour>
      <point x="132" y="388"/>
      <point x="131" y="371"/>
      <point x="131" y="360" type="curve" smooth="yes"/>
      <point x="131" y="349"/>
      <point x="132" y="333"/>
      <point x="135" y="320" type="curve"/>
      <point x="215" y="320" type="line"/>
      <point x="218" y="333"/>
      <point x="219" y="349"/>
      <point x="219" y="360" type="curve" smooth="yes"/>
      <point x="219" y="371"/>
      <point x="218" y="388"/>
      <point x="215" y="400" type="curve"/>
      <point x="135" y="400" type="line"/>
    </contour>
    <contour>
      <point x="82" y="308"/>
      <point x="81" y="291"/>
      <point x="81" y="280" type="curve" smooth="yes"/>
      <point x="81" y="269"/>
      <point x="82" y="253"/>
      <point x="85" y="240" type="curve"/>
      <point x="165" y="240" type="line"/>
      <point x="168" y="253"/>
      <point x="169" y="269"/>
      <point x="169" y="280" type="curve" smooth="yes"/>
      <point x="169" y="291"/>
      <point x="168" y="308"/>
      <point x="165" y="320" type="curve"/>
      <point x="85" y="320" type="line"/>
    </contour>
    <contour>
      <point x="132" y="228"/>
      <point x="131" y="211"/>
      <point x="131" y="200" type="curve" smooth="yes"/>
      <point x="131" y="189"/>
      <point x="132" y="173"/>
      <point x="135" y="160" type="curve"/>
      <point x="215" y="160" type="line"/>
      <point x="218" y="173"/>
      <point x="219" y="189"/>
      <point x="219" y="200" type="curve" smooth="yes"/>
      <point x="219" y="211"/>
      <point x="218" y="228"/>
      <point x="215" y="240" type="curve"/>
      <point x="135" y="240" type="line"/>
    </contour>
    <contour>
      <point x="182" y="148"/>
      <point x="181" y="131"/>
      <point x="181" y="120" type="curve" smooth="yes"/>
      <point x="181" y="109"/>
      <point x="182" y="93"/>
      <point x="185" y="80" type="curve"/>
      <point x="265" y="80" type="line"/>
      <point x="268" y="93"/>
      <point x="269" y="109"/>
      <point x="269" y="120" type="curve" smooth="yes"/>
      <point x="269" y="131"/>
      <point x="268" y="148"/>
      <point x="265" y="160" type="curve"/>
      <point x="185" y="160" type="line"/>
    </contour>
    <contour>
      <point x="232" y="68"/>
      <point x="231" y="51"/>
      <point x="231" y="40" type="curve" smooth="yes"/>
      <point x="231" y="29"/>
      <point x="232" y="13"/>
      <point x="235" y="0" type="curve"/>
      <point x="315" y="0" type="line"/>
      <point x="318" y="13"/>
      <point x="319" y="29"/>
      <point x="319" y="40" type="curve" smooth="yes"/>
      <point x="319" y="51"/>
      <point x="318" y="68"/>
      <point x="315" y="80" type="curve"/>
      <point x="235" y="80" type="line"/>
    </contour>
  </outline>
</glyph>
<glyph name="equal" format="1">
  <advance width="400"/>
  <unicode hex="003D"/>
  <outline>
    <contour>
      <point x="77" y="388"/>
      <point x="76" y="371"/>
      <point x="76" y="360" type="curve" smooth="yes"/>
      <point x="76" y="349"/>
      <point x="77" y="333"/>
      <point x="80" y="320" type="curve"/>
      <point x="240" y="320" type="line"/>
      <point x="243" y="333"/>
      <point x="244" y="349"/>
      <point x="244" y="360" type="curve" smooth="yes"/>
      <point x="244" y="371"/>
      <point x="243" y="388"/>
      <point x="240" y="400" type="curve"/>
      <point x="80" y="400" type="line"/>
    </contour>
    <contour>
      <point x="237" y="388"/>
      <point x="236" y="371"/>
      <point x="236" y="360" type="curve" smooth="yes"/>
      <point x="236" y="349"/>
      <point x="237" y="333"/>
      <point x="240" y="320" type="curve"/>
      <point x="320" y="320" type="line"/>
      <point x="323" y="333"/>
      <point x="324" y="349"/>
      <point x="324" y="360" type="curve" smooth="yes"/>
      <point x="324" y="371"/>
      <point x="323" y="388"/>
      <point x="320" y="400" type="curve"/>
      <point x="240" y="400" type="line"/>
    </contour>
    <contour>
      <point x="77" y="228"/>
      <point x="76" y="211"/>
      <point x="76" y="200" type="curve" smooth="yes"/>
      <point x="76" y="189"/>
      <point x="77" y="173"/>
      <point x="80" y="160" type="curve"/>
      <point x="240" y="160" type="line"/>
      <point x="243" y="173"/>
      <point x="244" y="189"/>
      <point x="244" y="200" type="curve" smooth="yes"/>
      <point x="244" y="211"/>
      <point x="243" y="228"/>
      <point x="240" y="240" type="curve"/>
      <point x="80" y="240" type="line"/>
    </contour>
    <contour>
      <point x="237" y="228"/>
      <point x="236" y="211"/>
      <point x="236" y="200" type="curve" smooth="yes"/>
      <point x="236" y="189"/>
      <point x="237" y="173"/>
      <point x="240" y="160" type="curve"/>
      <point x="320" y="160" type="line"/>
      <point x="323" y="173"/>
      <point x="324" y="189"/>
      <point x="324" y="200" type="curve" smooth="yes"/>
      <point x="324" y="211"/>
      <point x="323" y="228"/>
      <point x="320" y="240" type="curve"/>
      <point x="240" y="240" type="line"/>
    </contour>
  </outline>
</glyph>
<glyph name="greater" format="1">
  <advance width="400"/>
  <unicode hex="003E"/>
  <outline>
    <contour>
      <point x="82" y="548"/>
      <point x="81" y="531"/>
      <point x="81" y="520" type="curve" smooth="yes"/>
      <point x="81" y="509"/>
      <point x="82" y="493"/>
      <point x="85" y="480" type="curve"/>
      <point x="165" y="480" type="line"/>
      <point x="168" y="493"/>
      <point x="169" y="509"/>
      <point x="169" y="520" type="curve" smooth="yes"/>
      <point x="169" y="531"/>
      <point x="168" y="548"/>
      <point x="165" y="560" type="curve"/>
      <point x="85" y="560" type="line"/>
    </contour>
    <contour>
      <point x="132" y="468"/>
      <point x="131" y="451"/>
      <point x="131" y="440" type="curve" smooth="yes"/>
      <point x="131" y="429"/>
      <point x="132" y="413"/>
      <point x="135" y="400" type="curve"/>
      <point x="215" y="400" type="line"/>
      <point x="218" y="413"/>
      <point x="219" y="429"/>
      <point x="219" y="440" type="curve" smooth="yes"/>
      <point x="219" y="451"/>
      <point x="218" y="468"/>
      <point x="215" y="480" type="curve"/>
      <point x="135" y="480" type="line"/>
    </contour>
    <contour>
      <point x="182" y="388"/>
      <point x="181" y="371"/>
      <point x="181" y="360" type="curve" smooth="yes"/>
      <point x="181" y="349"/>
      <point x="182" y="333"/>
      <point x="185" y="320" type="curve"/>
      <point x="265" y="320" type="line"/>
      <point x="268" y="333"/>
      <point x="269" y="349"/>
      <point x="269" y="360" type="curve" smooth="yes"/>
      <point x="269" y="371"/>
      <point x="268" y="388"/>
      <point x="265" y="400" type="curve"/>
      <point x="185" y="400" type="line"/>
    </contour>
    <contour>
      <point x="232" y="308"/>
      <point x="231" y="291"/>
      <point x="231" y="280" type="curve" smooth="yes"/>
      <point x="231" y="269"/>
      <point x="232" y="253"/>
      <point x="235" y="240" type="curve"/>
      <point x="315" y="240" type="line"/>
      <point x="318" y="253"/>
      <point x="319" y="269"/>
      <point x="319" y="280" type="curve" smooth="yes"/>
      <point x="319" y="291"/>
      <point x="318" y="308"/>
      <point x="315" y="320" type="curve"/>
      <point x="235" y="320" type="line"/>
    </contour>
    <contour>
      <point x="182" y="228"/>
      <point x="181" y="211"/>
      <point x="181" y="200" type="curve" smooth="yes"/>
      <point x="181" y="189"/>
      <point x="182" y="173"/>
      <point x="185" y="160" type="curve"/>
      <point x="265" y="160" type="line"/>
      <point x="268" y="173"/>
      <point x="269" y="189"/>
      <point x="269" y="200" type="curve" smooth="yes"/>
      <point x="269" y="211"/>
      <point x="268" y="228"/>
      <point x="265" y="240" type="curve"/>
      <point x="185" y="240" type="line"/>
    </contour>
    <contour>
      <point x="132" y="148"/>
      <point x="131" y="131"/>
      <point x="131" y="120" type="curve" smooth="yes"/>
      <point x="131" y="109"/>
      <point x="132" y="93"/>
      <point x="135" y="80" type="curve"/>
      <point x="215" y="80" type="line"/>
      <point x="218" y="93"/>
      <point x="219" y="109"/>
      <point x="219" y="120" type="curve" smooth="yes"/>
      <point x="219" y="131"/>
      <point x="218" y="148"/>
      <point x="215" y="160" type="curve"/>
      <point x="135" y="160" type="line"/>
    </contour>
    <contour>
      <point x="82" y="68"/>
      <point x="81" y="51"/>
      <point x="81" y="40" type="curve" smooth="yes"/>
      <point x="81" y="29"/>
      <point x="82" y="13"/>
      <point x="85" y="0" type="curve"/>
      <point x="165" y="0" type="line"/>
      <point x="168" y="13"/>
      <point x="169" y="29"/>
      <point x="169" y="40" type="curve" smooth="yes"/>
      <point x="169" y="51"/>
      <point x="168" y="68"/>
      <point x="165" y="80" type="curve"/>
      <point x="85" y="80" type="line"/>
    </contour>
  </outline>
</glyph>
<glyph name="question" format="1">
  <advance width="400"/>
  <unicode hex="003F"/>
  <outline>
    <contour>
      <point x="257" y="468"/>
      <point x="256" y="451"/>
      <point x="256" y="440" type="curve" smooth="yes"/>
      <point x="256" y="429"/>
      <point x="257" y="413"/>
      <point x="260" y="400" type="curve"/>
      <point x="340" y="400" type="line"/>
      <point x="343" y="413"/>
      <point x="344" y="429"/>
      <point x="344" y="440" type="curve" smooth="yes"/>
      <point x="344" y="451"/>
      <point x="343" y="468"/>
      <point x="340" y="480" type="curve"/>
      <point x="260" y="480" type="line"/>
    </contour>
    <contour>
      <point x="177" y="548"/>
      <point x="176" y="531"/>
      <point x="176" y="520" type="curve" smooth="yes"/>
      <point x="176" y="509"/>
      <point x="177" y="493"/>
      <point x="180" y="480" type="curve"/>
      <point x="300" y="480" type="line"/>
      <point x="303" y="493"/>
      <point x="304" y="509"/>
      <point x="304" y="520" type="curve" smooth="yes"/>
      <point x="304" y="531"/>
      <point x="303" y="548"/>
      <point x="300" y="560" type="curve"/>
      <point x="180" y="560" type="line"/>
    </contour>
    <contour>
      <point x="97" y="548"/>
      <point x="96" y="531"/>
      <point x="96" y="520" type="curve" smooth="yes"/>
      <point x="96" y="509"/>
      <point x="97" y="493"/>
      <point x="100" y="480" type="curve"/>
      <point x="180" y="480" type="line"/>
      <point x="183" y="493"/>
      <point x="184" y="509"/>
      <point x="184" y="520" type="curve" smooth="yes"/>
      <point x="184" y="531"/>
      <point x="183" y="548"/>
      <point x="180" y="560" type="curve"/>
      <point x="100" y="560" type="line"/>
    </contour>
    <contour>
      <point x="257" y="388"/>
      <point x="256" y="371"/>
      <point x="256" y="360" type="curve" smooth="yes"/>
      <point x="256" y="349"/>
      <point x="257" y="333"/>
      <point x="260" y="320" type="curve"/>
      <point x="340" y="320" type="line"/>
      <point x="343" y="333"/>
      <point x="344" y="349"/>
      <point x="344" y="360" type="curve" smooth="yes"/>
      <point x="344" y="371"/>
      <point x="343" y="388"/>
      <point x="340" y="400" type="curve"/>
      <point x="260" y="400" type="line"/>
    </contour>
    <contour>
      <point x="207" y="308"/>
      <point x="206" y="291"/>
      <point x="206" y="280" type="curve" smooth="yes"/>
      <point x="206" y="269"/>
      <point x="207" y="253"/>
      <point x="210" y="240" type="curve"/>
      <point x="290" y="240" type="line"/>
      <point x="293" y="253"/>
      <point x="294" y="269"/>
      <point x="294" y="280" type="curve" smooth="yes"/>
      <point x="294" y="291"/>
      <point x="293" y="308"/>
      <point x="290" y="320" type="curve"/>
      <point x="210" y="320" type="line"/>
    </contour>
    <contour>
      <point x="157" y="228"/>
      <point x="156" y="211"/>
      <point x="156" y="200" type="curve" smooth="yes"/>
      <point x="156" y="189"/>
      <point x="157" y="173"/>
      <point x="160" y="160" type="curve"/>
      <point x="240" y="160" type="line"/>
      <point x="243" y="173"/>
      <point x="244" y="189"/>
      <point x="244" y="200" type="curve" smooth="yes"/>
      <point x="244" y="211"/>
      <point x="243" y="228"/>
      <point x="240" y="240" type="curve"/>
      <point x="160" y="240" type="line"/>
    </contour>
    <contour>
      <point x="37" y="468"/>
      <point x="36" y="451"/>
      <point x="36" y="440" type="curve" smooth="yes"/>
      <point x="36" y="429"/>
      <point x="37" y="413"/>
      <point x="40" y="400" type="curve"/>
      <point x="120" y="400" type="line"/>
      <point x="123" y="413"/>
      <point x="124" y="429"/>
      <point x="124" y="440" type="curve" smooth="yes"/>
      <point x="124" y="451"/>
      <point x="123" y="468"/>
      <point x="120" y="480" type="curve"/>
      <point x="40" y="480" type="line"/>
    </contour>
    <contour>
      <point x="157" y="68"/>
      <point x="156" y="51"/>
      <point x="156" y="40" type="curve" smooth="yes"/>
      <point x="156" y="29"/>
      <point x="157" y="13"/>
      <point x="160" y="0" type="curve"/>
      <point x="240" y="0" type="line"/>
      <point x="243" y="13"/>
      <point x="244" y="29"/>
      <point x="244" y="40" type="curve" smooth="yes"/>
      <point x="244" y="51"/>
      <point x="243" y="68"/>
      <point x="240" y="80" type="curve"/>
      <point x="160" y="80" type="line"/>
    </contour>
  </outline>
</glyph>
<glyph name="E" format="1">
  <advance width="400"/>
  <unicode hex="0045"/>
  <outline>
    <contour>
      <point x="77" y="68"/>
      <point x="76" y="51"/>
      <point x="76" y="40" type="curve" smooth="yes"/>
      <point x="76" y="29"/>
      <point x="77" y="13"/>
      <point x="80" y="0" type="curve"/>
      <point x="240" y="0" type="line"/>
      <point x="243" y="13"/>
      <point x="244" y="29"/>
      <point x="244" y="40" type="curve" smooth="yes"/>
      <point x="244" y="51"/>
      <point x="243" y="68"/>
      <point x="240" y="80" type="curve"/>
      <point x="80" y="80" type="line"/>
    </contour>
    <contour>
      <point x="77" y="148"/>
      <point x="76" y="131"/>
      <point x="76" y="120" type="curve" smooth="yes"/>
      <point x="76" y="109"/>
      <point x="77" y="93"/>
      <point x="80" y="80" type="curve"/>
      <point x="160" y="80" type="line"/>
      <point x="163" y="93"/>
      <point x="164" y="109"/>
      <point x="164" y="120" type="curve" smooth="yes"/>
      <point x="164" y="131"/>
      <point x="163" y="148"/>
      <point x="160" y="160" type="curve"/>
      <point x="80" y="160" type="line"/>
    </contour>
    <contour>
      <point x="77" y="228"/>
      <point x="76" y="211"/>
      <point x="76" y="200" type="curve" smooth="yes"/>
      <point x="76" y="189"/>
      <point x="77" y="173"/>
      <point x="80" y="160" type="curve"/>
      <point x="160" y="160" type="line"/>
      <point x="163" y="173"/>
      <point x="164" y="189"/>
      <point x="164" y="200" type="curve" smooth="yes"/>
      <point x="164" y="211"/>
      <point x="163" y="228"/>
      <point x="160" y="240" type="curve"/>
      <point x="80" y="240" type="line"/>
    </contour>
    <contour>
      <point x="77" y="308"/>
      <point x="76" y="291"/>
      <point x="76" y="280" type="curve" smooth="yes"/>
      <point x="76" y="269"/>
      <point x="77" y="253"/>
      <point x="80" y="240" type="curve"/>
      <point x="240" y="240" type="line"/>
      <point x="243" y="253"/>
      <point x="244" y="269"/>
      <point x="244" y="280" type="curve" smooth="yes"/>
      <point x="244" y="291"/>
      <point x="243" y="308"/>
      <point x="240" y="320" type="curve"/>
      <point x="80" y="320" type="line"/>
    </contour>
    <contour>
      <point x="77" y="388"/>
      <point x="76" y="371"/>
      <point x="76" y="360" type="curve" smooth="yes"/>
      <point x="76" y="349"/>
      <point x="77" y="333"/>
      <point x="80" y="320" type="curve"/>
      <point x="160" y="320" type="line"/>
      <point x="163" y="333"/>
      <point x="164" y="349"/>
      <point x="164" y="360" type="curve" smooth="yes"/>
      <point x="164" y="371"/>
      <point x="163" y="388"/>
      <point x="160" y="400" type="curve"/>
      <point x="80" y="400" type="line"/>
    </contour>
    <contour>
      <point x="77" y="468"/>
      <point x="76" y="451"/>
      <point x="76" y="440" type="curve" smooth="yes"/>
      <point x="76" y="429"/>
      <point x="77" y="413"/>
      <point x="80" y="400" type="curve"/>
      <point x="160" y="400" type="line"/>
      <point x="163" y="413"/>
      <point x="164" y="429"/>
      <point x="164" y="440" type="curve" smooth="yes"/>
      <point x="164" y="451"/>
      <point x="163" y="468"/>
      <point x="160" y="480" type="curve"/>
      <point x="80" y="480" type="line"/>
    </contour>
    <contour>
      <point x="77" y="548"/>
      <point x="76" y="531"/>
      <point x="76" y="520" type="curve" smooth="yes"/>
      <point x="76" y="509"/>
      <point x="77" y="493"/>
      <point x="80" y="480" type="curve"/>
      <point x="240" y="480" type="line"/>
      <point x="243" y="493"/>
      <point x="244" y="509"/>
      <point x="244" y="520" type="curve" smooth="yes"/>
      <point x="244" y="531"/>
      <point x="243" y="548"/>
      <point x="240" y="560" type="curve"/>
      <point x="80" y="560" type="line"/>
    </contour>
    <contour>
      <point x="237" y="548"/>
      <point x="236" y="531"/>
      <point x="236" y="520" type="curve" smooth="yes"/>
      <point x="236" y="509"/>
      <point x="237" y="493"/>
      <point x="240" y="480" type="curve"/>
      <point x="320" y="480" type="line"/>
      <point x="323" y="493"/>
      <point x="324" y="509"/>
      <point x="324" y="520" type="curve" smooth="yes"/>
      <point x="324" y="531"/>
      <point x="323" y="548"/>
      <point x="320" y="560" type="curve"/>
      <point x="240" y="560" type="line"/>
    </contour>
    <contour>
      <point x="237" y="308"/>
      <point x="236" y="291"/>
      <point x="236" y="280" type="curve" smooth="yes"/>
      <point x="236" y="269"/>
      <point x="237" y="253"/>
      <point x="240" y="240" type="curve"/>
      <point x="320" y="240" type="line"/>
      <point x="323" y="253"/>
      <point x="324" y="269"/>
      <point x="324" y="280" type="curve" smooth="yes"/>
      <point x="324" y="291"/>
      <point x="323" y="308"/>
      <point x="320" y="320" type="curve"/>
      <point x="240" y="320" type="line"/>
    </contour>
    <contour>
      <point x="237" y="68"/>
      <point x="236" y="51"/>
      <point x="236" y="40" type="curve" smooth="yes"/>
      <point x="236" y="29"/>
      <point x="237" y="13"/>
      <point x="240" y="0" type="curve"/>
      <point x="320" y="0" type="line"/>
      <point x="323" y="13"/>
      <point x="324" y="29"/>
      <point x="324" y="40" type="curve" smooth="yes"/>
      <point x="324" y="51"/>
      <point x="323" y="68"/>
      <point x="320" y="80" type="curve"/>
      <point x="240" y="80" type="line"/>
    </contour>
    <contour>
      <point x="300" y="10" type="move" name="ogonek"/>
    </contour>
    <contour>
      <point x="200" y="560" type="move" name="top"/>
    </contour>
    <contour>
      <point x="40" y="560" type="move" name="topleft"/>
    </contour>
    <contour>
      <point x="200" y="0" type="move" name="bottom"/>
    </contour>
  </outline>
</glyph>
<glyph name="J" format="1">
  <advance width="400"/>
  <unicode hex="004A"/>
  <outline>
    <contour>
      <point x="197" y="308"/>
      <point x="196" y="291"/>
      <point x="196" y="280" type="curve" smooth="yes"/>
      <point x="196" y="269"/>
      <point x="197" y="253"/>
      <point x="200" y="240" type="curve"/>
      <point x="280" y="240" type="line"/>
      <point x="283" y="253"/>
      <point x="284" y="269"/>
      <point x="284" y="280" type="curve" smooth="yes"/>
      <point x="284" y="291"/>
      <point x="283" y="308"/>
      <point x="280" y="320" type="curve"/>
      <point x="200" y="320" type="line"/>
    </contour>
    <contour>
      <point x="197" y="388"/>
      <point x="196" y="371"/>
      <point x="196" y="360" type="curve" smooth="yes"/>
      <point x="196" y="349"/>
      <point x="197" y="333"/>
      <point x="200" y="320" type="curve"/>
      <point x="280" y="320" type="line"/>
      <point x="283" y="333"/>
      <point x="284" y="349"/>
      <point x="284" y="360" type="curve" smooth="yes"/>
      <point x="284" y="371"/>
      <point x="283" y="388"/>
      <point x="280" y="400" type="curve"/>
      <point x="200" y="400" type="line"/>
    </contour>
    <contour>
      <point x="197" y="468"/>
      <point x="196" y="451"/>
      <point x="196" y="440" type="curve" smooth="yes"/>
      <point x="196" y="429"/>
      <point x="197" y="413"/>
      <point x="200" y="400" type="curve"/>
      <point x="280" y="400" type="line"/>
      <point x="283" y="413"/>
      <point x="284" y="429"/>
      <point x="284" y="440" type="curve" smooth="yes"/>
      <point x="284" y="451"/>
      <point x="283" y="468"/>
      <point x="280" y="480" type="curve"/>
      <point x="200" y="480" type="line"/>
    </contour>
    <contour>
      <point x="137" y="548"/>
      <point x="136" y="531"/>
      <point x="136" y="520" type="curve" smooth="yes"/>
      <point x="136" y="509"/>
      <point x="137" y="493"/>
      <point x="140" y="480" type="curve"/>
      <point x="240" y="480" type="line"/>
      <point x="243" y="493"/>
      <point x="244" y="509"/>
      <point x="244" y="520" type="curve" smooth="yes"/>
      <point x="244" y="531"/>
      <point x="243" y="548"/>
      <point x="240" y="560" type="curve"/>
      <point x="140" y="560" type="line"/>
    </contour>
    <contour>
      <point x="237" y="548"/>
      <point x="236" y="531"/>
      <point x="236" y="520" type="curve" smooth="yes"/>
      <point x="236" y="509"/>
      <point x="237" y="493"/>
      <point x="240" y="480" type="curve"/>
      <point x="340" y="480" type="line"/>
      <point x="343" y="493"/>
      <point x="344" y="509"/>
      <point x="344" y="520" type="curve" smooth="yes"/>
      <point x="344" y="531"/>
      <point x="343" y="548"/>
      <point x="340" y="560" type="curve"/>
      <point x="240" y="560" type="line"/>
    </contour>
    <contour>
      <point x="197" y="228"/>
      <point x="196" y="211"/>
      <point x="196" y="200" type="curve" smooth="yes"/>
      <point x="196" y="189"/>
      <point x="197" y="173"/>
      <point x="200" y="160" type="curve"/>
      <point x="280" y="160" type="line"/>
      <point x="283" y="173"/>
      <point x="284" y="189"/>
      <point x="284" y="200" type="curve" smooth="yes"/>
      <point x="284" y="211"/>
      <point x="283" y="228"/>
      <point x="280" y="240" type="curve"/>
      <point x="200" y="240" type="line"/>
    </contour>
    <contour>
      <point x="37" y="148"/>
      <point x="36" y="131"/>
      <point x="36" y="120" type="curve" smooth="yes"/>
      <point x="36" y="109"/>
      <point x="37" y="93"/>
      <point x="40" y="80" type="curve"/>
      <point x="120" y="80" type="line"/>
      <point x="123" y="93"/>
      <point x="124" y="109"/>
      <point x="124" y="120" type="curve" smooth="yes"/>
      <point x="124" y="131"/>
      <point x="123" y="148"/>
      <point x="120" y="160" type="curve"/>
      <point x="40" y="160" type="line"/>
    </contour>
    <contour>
      <point x="197" y="148"/>
      <point x="196" y="131"/>
      <point x="196" y="120" type="curve" smooth="yes"/>
      <point x="196" y="109"/>
      <point x="197" y="93"/>
      <point x="200" y="80" type="curve"/>
      <point x="280" y="80" type="line"/>
      <point x="283" y="93"/>
      <point x="284" y="109"/>
      <point x="284" y="120" type="curve" smooth="yes"/>
      <point x="284" y="131"/>
      <point x="283" y="148"/>
      <point x="280" y="160" type="curve"/>
      <point x="200" y="160" type="line"/>
    </contour>
    <contour>
      <point x="77" y="68"/>
      <point x="76" y="51"/>
      <point x="76" y="40" type="curve" smooth="yes"/>
      <point x="76" y="29"/>
      <point x="77" y="13"/>
      <point x="80" y="0" type="curve"/>
      <point x="240" y="0" type="line"/>
      <point x="243" y="13"/>
      <point x="244" y="29"/>
      <point x="244" y="40" type="curve" smooth="yes"/>
      <point x="244" y="51"/>
      <point x="243" y="68"/>
      <point x="240" y="80" type="curve"/>
      <point x="80" y="80" type="line"/>
    </contour>
    <contour>
      <point x="240" y="560" type="move" name="top"/>
    </contour>
    <contour>
      <point x="200" y="0" type="move" name="bottom"/>
    </contour>
  </outline>
</glyph>
<glyph name="M" format="1">
  <advance width="400"/>
  <unicode hex="004D"/>
  <outline>
    <contour>
      <point x="37" y="388"/>
      <point x="36" y="371"/>
      <point x="36" y="360" type="curve" smooth="yes"/>
      <point x="36" y="349"/>
      <point x="37" y="333"/>
      <point x="40" y="320" type="curve"/>
      <point x="120" y="320" type="line"/>
      <point x="123" y="333"/>
      <point x="124" y="349"/>
      <point x="124" y="360" type="curve" smooth="yes"/>
      <point x="124" y="371"/>
      <point x="123" y="388"/>
      <point x="120" y="400" type="curve"/>
      <point x="40" y="400" type="line"/>
    </contour>
    <contour>
      <point x="277" y="388"/>
      <point x="276" y="371"/>
      <point x="276" y="360" type="curve" smooth="yes"/>
      <point x="276" y="349"/>
      <point x="277" y="333"/>
      <point x="280" y="320" type="curve"/>
      <point x="360" y="320" type="line"/>
      <point x="363" y="333"/>
      <point x="364" y="349"/>
      <point x="364" y="360" type="curve" smooth="yes"/>
      <point x="364" y="371"/>
      <point x="363" y="388"/>
      <point x="360" y="400" type="curve"/>
      <point x="280" y="400" type="line"/>
    </contour>
    <contour>
      <point x="147" y="388"/>
      <point x="146" y="371"/>
      <point x="146" y="360" type="curve" smooth="yes"/>
      <point x="146" y="349"/>
      <point x="147" y="333"/>
      <point x="150" y="320" type="curve"/>
      <point x="185" y="320" type="line"/>
      <point x="188" y="333"/>
      <point x="189" y="349"/>
      <point x="189" y="360" type="curve" smooth="yes"/>
      <point x="189" y="371"/>
      <point x="188" y="388"/>
      <point x="185" y="400" type="curve"/>
      <point x="150" y="400" type="line"/>
    </contour>
    <contour>
      <point x="37" y="308"/>
      <point x="36" y="291"/>
      <point x="36" y="280" type="curve" smooth="yes"/>
      <point x="36" y="269"/>
      <point x="37" y="253"/>
      <point x="40" y="240" type="curve"/>
      <point x="120" y="240" type="line"/>
      <point x="123" y="253"/>
      <point x="124" y="269"/>
      <point x="124" y="280" type="curve" smooth="yes"/>
      <point x="124" y="291"/>
      <point x="123" y="308"/>
      <point x="120" y="320" type="curve"/>
      <point x="40" y="320" type="line"/>
    </contour>
    <contour>
      <point x="277" y="308"/>
      <point x="276" y="291"/>
      <point x="276" y="280" type="curve" smooth="yes"/>
      <point x="276" y="269"/>
      <point x="277" y="253"/>
      <point x="280" y="240" type="curve"/>
      <point x="360" y="240" type="line"/>
      <point x="363" y="253"/>
      <point x="364" y="269"/>
      <point x="364" y="280" type="curve" smooth="yes"/>
      <point x="364" y="291"/>
      <point x="363" y="308"/>
      <point x="360" y="320" type="curve"/>
      <point x="280" y="320" type="line"/>
    </contour>
    <contour>
      <point x="167" y="148"/>
      <point x="166" y="131"/>
      <point x="166" y="120" type="curve" smooth="yes"/>
      <point x="166" y="109"/>
      <point x="167" y="93"/>
      <point x="170" y="80" type="curve"/>
      <point x="230" y="80" type="line"/>
      <point x="233" y="93"/>
      <point x="234" y="109"/>
      <point x="234" y="120" type="curve" smooth="yes"/>
      <point x="234" y="131"/>
      <point x="233" y="148"/>
      <point x="230" y="160" type="curve"/>
      <point x="170" y="160" type="line"/>
    </contour>
    <contour>
      <point x="147" y="308"/>
      <point x="146" y="291"/>
      <point x="146" y="280" type="curve" smooth="yes"/>
      <point x="146" y="269"/>
      <point x="147" y="253"/>
      <point x="150" y="240" type="curve"/>
      <point x="250" y="240" type="line"/>
      <point x="253" y="253"/>
      <point x="254" y="269"/>
      <point x="254" y="280" type="curve" smooth="yes"/>
      <point x="254" y="291"/>
      <point x="253" y="308"/>
      <point x="250" y="320" type="curve"/>
      <point x="150" y="320" type="line"/>
    </contour>
    <contour>
      <point x="37" y="548"/>
      <point x="36" y="531"/>
      <point x="36" y="520" type="curve" smooth="yes"/>
      <point x="36" y="509"/>
      <point x="37" y="493"/>
      <point x="40" y="480" type="curve"/>
      <point x="140" y="480" type="line"/>
      <point x="143" y="493"/>
      <point x="144" y="509"/>
      <point x="144" y="520" type="curve" smooth="yes"/>
      <point x="144" y="531"/>
      <point x="143" y="548"/>
      <point x="140" y="560" type="curve"/>
      <point x="40" y="560" type="line"/>
    </contour>
    <contour>
      <point x="257" y="548"/>
      <point x="256" y="531"/>
      <point x="256" y="520" type="curve" smooth="yes"/>
      <point x="256" y="509"/>
      <point x="257" y="493"/>
      <point x="260" y="480" type="curve"/>
      <point x="360" y="480" type="line"/>
      <point x="363" y="493"/>
      <point x="364" y="509"/>
      <point x="364" y="520" type="curve" smooth="yes"/>
      <point x="364" y="531"/>
      <point x="363" y="548"/>
      <point x="360" y="560" type="curve"/>
      <point x="260" y="560" type="line"/>
    </contour>
    <contour>
      <point x="212" y="388"/>
      <point x="211" y="371"/>
      <point x="211" y="360" type="curve" smooth="yes"/>
      <point x="211" y="349"/>
      <point x="212" y="333"/>
      <point x="215" y="320" type="curve"/>
      <point x="250" y="320" type="line"/>
      <point x="253" y="333"/>
      <point x="254" y="349"/>
      <point x="254" y="360" type="curve" smooth="yes"/>
      <point x="254" y="371"/>
      <point x="253" y="388"/>
      <point x="250" y="400" type="curve"/>
      <point x="215" y="400" type="line"/>
    </contour>
    <contour>
      <point x="167" y="228"/>
      <point x="166" y="211"/>
      <point x="166" y="200" type="curve" smooth="yes"/>
      <point x="166" y="189"/>
      <point x="167" y="173"/>
      <point x="170" y="160" type="curve"/>
      <point x="230" y="160" type="line"/>
      <point x="233" y="173"/>
      <point x="234" y="189"/>
      <point x="234" y="200" type="curve" smooth="yes"/>
      <point x="234" y="211"/>
      <point x="233" y="228"/>
      <point x="230" y="240" type="curve"/>
      <point x="170" y="240" type="line"/>
    </contour>
    <contour>
      <point x="37" y="228"/>
      <point x="36" y="211"/>
      <point x="36" y="200" type="curve" smooth="yes"/>
      <point x="36" y="189"/>
      <point x="37" y="173"/>
      <point x="40" y="160" type="curve"/>
      <point x="120" y="160" type="line"/>
      <point x="123" y="173"/>
      <point x="124" y="189"/>
      <point x="124" y="200" type="curve" smooth="yes"/>
      <point x="124" y="211"/>
      <point x="123" y="228"/>
      <point x="120" y="240" type="curve"/>
      <point x="40" y="240" type="line"/>
    </contour>
    <contour>
      <point x="277" y="228"/>
      <point x="276" y="211"/>
      <point x="276" y="200" type="curve" smooth="yes"/>
      <point x="276" y="189"/>
      <point x="277" y="173"/>
      <point x="280" y="160" type="curve"/>
      <point x="360" y="160" type="line"/>
      <point x="363" y="173"/>
      <point x="364" y="189"/>
      <point x="364" y="200" type="curve" smooth="yes"/>
      <point x="364" y="211"/>
      <point x="363" y="228"/>
      <point x="360" y="240" type="curve"/>
      <point x="280" y="240" type="line"/>
    </contour>
    <contour>
      <point x="37" y="148"/>
      <point x="36" y="131"/>
      <point x="36" y="120" type="curve" smooth="yes"/>
      <point x="36" y="109"/>
      <point x="37" y="93"/>
      <point x="40" y="80" type="curve"/>
      <point x="120" y="80" type="line"/>
      <point x="123" y="93"/>
      <point x="124" y="109"/>
      <point x="124" y="120" type="curve" smooth="yes"/>
      <point x="124" y="131"/>
      <point x="123" y="148"/>
      <point x="120" y="160" type="curve"/>
      <point x="40" y="160" type="line"/>
    </contour>
    <contour>
      <point x="277" y="148"/>
      <point x="276" y="131"/>
      <point x="276" y="120" type="curve" smooth="yes"/>
      <point x="276" y="109"/>
      <point x="277" y="93"/>
      <point x="280" y="80" type="curve"/>
      <point x="360" y="80" type="line"/>
      <point x="363" y="93"/>
      <point x="364" y="109"/>
      <point x="364" y="120" type="curve" smooth="yes"/>
      <point x="364" y="131"/>
      <point x="363" y="148"/>
      <point x="360" y="160" type="curve"/>
      <point x="280" y="160" type="line"/>
    </contour>
    <contour>
      <point x="37" y="68"/>
      <point x="36" y="51"/>
      <point x="36" y="40" type="curve" smooth="yes"/>
      <point x="36" y="29"/>
      <point x="37" y="13"/>
      <point x="40" y="0" type="curve"/>
      <point x="120" y="0" type="line"/>
      <point x="123" y="13"/>
      <point x="124" y="29"/>
      <point x="124" y="40" type="curve" smooth="yes"/>
      <point x="124" y="51"/>
      <point x="123" y="68"/>
      <point x="120" y="80" type="curve"/>
      <point x="40" y="80" type="line"/>
    </contour>
    <contour>
      <point x="277" y="68"/>
      <point x="276" y="51"/>
      <point x="276" y="40" type="curve" smooth="yes"/>
      <point x="276" y="29"/>
      <point x="277" y="13"/>
      <point x="280" y="0" type="curve"/>
      <point x="360" y="0" type="line"/>
      <point x="363" y="13"/>
      <point x="364" y="29"/>
      <point x="364" y="40" type="curve" smooth="yes"/>
      <point x="364" y="51"/>
      <point x="363" y="68"/>
      <point x="360" y="80" type="curve"/>
      <point x="280" y="80" type="line"/>
    </contour>
    <contour>
      <point x="37" y="468"/>
      <point x="36" y="451"/>
      <point x="36" y="440" type="curve" smooth="yes"/>
      <point x="36" y="429"/>
      <point x="37" y="413"/>
      <point x="40" y="400" type="curve"/>
      <point x="170" y="400" type="line"/>
      <point x="173" y="413"/>
      <point x="174" y="429"/>
      <point x="174" y="440" type="curve" smooth="yes"/>
      <point x="174" y="451"/>
      <point x="173" y="468"/>
      <point x="170" y="480" type="curve"/>
      <point x="40" y="480" type="line"/>
    </contour>
    <contour>
      <point x="227" y="468"/>
      <point x="226" y="451"/>
      <point x="226" y="440" type="curve" smooth="yes"/>
      <point x="226" y="429"/>
      <point x="227" y="413"/>
      <point x="230" y="400" type="curve"/>
      <point x="360" y="400" type="line"/>
      <point x="363" y="413"/>
      <point x="364" y="429"/>
      <point x="364" y="440" type="curve" smooth="yes"/>
      <point x="364" y="451"/>
      <point x="363" y="468"/>
      <point x="360" y="480" type="curve"/>
      <point x="230" y="480" type="line"/>
    </contour>
    <contour>
      <point x="200" y="560" type="move" name="top"/>
    </contour>
    <contour>
      <point x="200" y="0" type="move" name="bottom"/>
    </contour>
  </outline>
</glyph>
<glyph name="X" format="1">
  <advance width="400"/>
  <unicode hex="0058"/>
  <outline>
    <contour>
      <point x="137" y="308"/>
      <point x="136" y="291"/>
      <point x="136" y="280" type="curve" smooth="yes"/>
      <point x="136" y="269"/>
      <point x="137" y="253"/>
      <point x="140" y="240" type="curve"/>
      <point x="260" y="240" type="line"/>
      <point x="263" y="253"/>
      <point x="264" y="269"/>
      <point x="264" y="280" type="curve" smooth="yes"/>
      <point x="264" y="291"/>
      <point x="263" y="308"/>
      <point x="260" y="320" type="curve"/>
      <point x="140" y="320" type="line"/>
    </contour>
    <contour>
      <point x="227" y="388"/>
      <point x="226" y="371"/>
      <point x="226" y="360" type="curve" smooth="yes"/>
      <point x="226" y="349"/>
      <point x="227" y="333"/>
      <point x="230" y="320" type="curve"/>
      <point x="290" y="320" type="line"/>
      <point x="293" y="333"/>
      <point x="294" y="349"/>
      <point x="294" y="360" type="curve" smooth="yes"/>
      <point x="294" y="371"/>
      <point x="293" y="388"/>
      <point x="290" y="400" type="curve"/>
      <point x="230" y="400" type="line"/>
    </contour>
    <contour>
      <point x="107" y="388"/>
      <point x="106" y="371"/>
      <point x="106" y="360" type="curve" smooth="yes"/>
      <point x="106" y="349"/>
      <point x="107" y="333"/>
      <point x="110" y="320" type="curve"/>
      <point x="170" y="320" type="line"/>
      <point x="173" y="333"/>
      <point x="174" y="349"/>
      <point x="174" y="360" type="curve" smooth="yes"/>
      <point x="174" y="371"/>
      <point x="173" y="388"/>
      <point x="170" y="400" type="curve"/>
      <point x="110" y="400" type="line"/>
    </contour>
    <contour>
      <point x="67" y="468"/>
      <point x="66" y="451"/>
      <point x="66" y="440" type="curve" smooth="yes"/>
      <point x="66" y="429"/>
      <point x="67" y="413"/>
      <point x="70" y="400" type="curve"/>
      <point x="150" y="400" type="line"/>
      <point x="153" y="413"/>
      <point x="154" y="429"/>
      <point x="154" y="440" type="curve" smooth="yes"/>
      <point x="154" y="451"/>
      <point x="153" y="468"/>
      <point x="150" y="480" type="curve"/>
      <point x="70" y="480" type="line"/>
    </contour>
    <contour>
      <point x="247" y="468"/>
      <point x="246" y="451"/>
      <point x="246" y="440" type="curve" smooth="yes"/>
      <point x="246" y="429"/>
      <point x="247" y="413"/>
      <point x="250" y="400" type="curve"/>
      <point x="330" y="400" type="line"/>
      <point x="333" y="413"/>
      <point x="334" y="429"/>
      <point x="334" y="440" type="curve" smooth="yes"/>
      <point x="334" y="451"/>
      <point x="333" y="468"/>
      <point x="330" y="480" type="curve"/>
      <point x="250" y="480" type="line"/>
    </contour>
    <contour>
      <point x="227" y="228"/>
      <point x="226" y="211"/>
      <point x="226" y="200" type="curve" smooth="yes"/>
      <point x="226" y="189"/>
      <point x="227" y="173"/>
      <point x="230" y="160" type="curve"/>
      <point x="290" y="160" type="line"/>
      <point x="293" y="173"/>
      <point x="294" y="189"/>
      <point x="294" y="200" type="curve" smooth="yes"/>
      <point x="294" y="211"/>
      <point x="293" y="228"/>
      <point x="290" y="240" type="curve"/>
      <point x="230" y="240" type="line"/>
    </contour>
    <contour>
      <point x="107" y="228"/>
      <point x="106" y="211"/>
      <point x="106" y="200" type="curve" smooth="yes"/>
      <point x="106" y="189"/>
      <point x="107" y="173"/>
      <point x="110" y="160" type="curve"/>
      <point x="170" y="160" type="line"/>
      <point x="173" y="173"/>
      <point x="174" y="189"/>
      <point x="174" y="200" type="curve" smooth="yes"/>
      <point x="174" y="211"/>
      <point x="173" y="228"/>
      <point x="170" y="240" type="curve"/>
      <point x="110" y="240" type="line"/>
    </contour>
    <contour>
      <point x="67" y="148"/>
      <point x="66" y="131"/>
      <point x="66" y="120" type="curve" smooth="yes"/>
      <point x="66" y="109"/>
      <point x="67" y="93"/>
      <point x="70" y="80" type="curve"/>
      <point x="150" y="80" type="line"/>
      <point x="153" y="93"/>
      <point x="154" y="109"/>
      <point x="154" y="120" type="curve" smooth="yes"/>
      <point x="154" y="131"/>
      <point x="153" y="148"/>
      <point x="150" y="160" type="curve"/>
      <point x="70" y="160" type="line"/>
    </contour>
    <contour>
      <point x="247" y="148"/>
      <point x="246" y="131"/>
      <point x="246" y="120" type="curve" smooth="yes"/>
      <point x="246" y="109"/>
      <point x="247" y="93"/>
      <point x="250" y="80" type="curve"/>
      <point x="330" y="80" type="line"/>
      <point x="333" y="93"/>
      <point x="334" y="109"/>
      <point x="334" y="120" type="curve" smooth="yes"/>
      <point x="334" y="131"/>
      <point x="333" y="148"/>
      <point x="330" y="160" type="curve"/>
      <point x="250" y="160" type="line"/>
    </contour>
    <contour>
      <point x="37" y="548"/>
      <point x="36" y="531"/>
      <point x="36" y="520" type="curve" smooth="yes"/>
      <point x="36" y="509"/>
      <point x="37" y="493"/>
      <point x="40" y="480" type="curve"/>
      <point x="120" y="480" type="line"/>
      <point x="123" y="493"/>
      <point x="124" y="509"/>
      <point x="124" y="520" type="curve" smooth="yes"/>
      <point x="124" y="531"/>
      <point x="123" y="548"/>
      <point x="120" y="560" type="curve"/>
      <point x="40" y="560" type="line"/>
    </contour>
    <contour>
      <point x="37" y="68"/>
      <point x="36" y="51"/>
      <point x="36" y="40" type="curve" smooth="yes"/>
      <point x="36" y="29"/>
      <point x="37" y="13"/>
      <point x="40" y="0" type="curve"/>
      <point x="120" y="0" type="line"/>
      <point x="123" y="13"/>
      <point x="124" y="29"/>
      <point x="124" y="40" type="curve" smooth="yes"/>
      <point x="124" y="51"/>
      <point x="123" y="68"/>
      <point x="120" y="80" type="curve"/>
      <point x="40" y="80" type="line"/>
    </contour>
    <contour>
      <point x="277" y="68"/>
      <point x="276" y="51"/>
      <point x="276" y="40" type="curve" smooth="yes"/>
      <point x="276" y="29"/>
      <point x="277" y="13"/>
      <point x="280" y="0" type="curve"/>
      <point x="360" y="0" type="line"/>
      <point x="363" y="13"/>
      <point x="364" y="29"/>
      <point x="364" y="40" type="curve" smooth="yes"/>
      <point x="364" y="51"/>
      <point x="363" y="68"/>
      <point x="360" y="80" type="curve"/>
      <point x="280" y="80" type="line"/>
    </contour>
    <contour>
      <point x="277" y="548"/>
      <point x="276" y="531"/>
      <point x="276" y="520" type="curve" smooth="yes"/>
      <point x="276" y="509"/>
      <point x="277" y="493"/>
      <point x="280" y="480" type="curve"/>
      <point x="360" y="480" type="line"/>
      <point x="363" y="493"/>
      <point x="364" y="509"/>
      <point x="364" y="520" type="curve" smooth="yes"/>
      <point x="364" y="531"/>
      <point x="363" y="548"/>
      <point x="360" y="560" type="curve"/>
      <point x="280" y="560" type="line"/>
    </contour>
    <contour>
      <point x="200" y="560" type="move" name="top"/>
    </contour>
    <contour>
      <point x="200" y="0" type="move" name="bottom"/>
    </contour>
  </outline>
</glyph>
<glyph name="Y" format="1">
  <advance width="400"/>
  <unicode hex="0059"/>
  <outline>
    <contour>
      <point x="37" y="468"/>
      <point x="36" y="451"/>
      <point x="36" y="440" type="curve" smooth="yes"/>
      <point x="36" y="429"/>
      <point x="37" y="413"/>
      <point x="40" y="400" type="curve"/>
      <point x="120" y="400" type="line"/>
      <point x="123" y="413"/>
      <point x="124" y="429"/>
      <point x="124" y="440" type="curve" smooth="yes"/>
      <point x="124" y="451"/>
      <point x="123" y="468"/>
      <point x="120" y="480" type="curve"/>
      <point x="40" y="480" type="line"/>
    </contour>
    <contour>
      <point x="37" y="548"/>
      <point x="36" y="531"/>
      <point x="36" y="520" type="curve" smooth="yes"/>
      <point x="36" y="509"/>
      <point x="37" y="493"/>
      <point x="40" y="480" type="curve"/>
      <point x="120" y="480" type="line"/>
      <point x="123" y="493"/>
      <point x="124" y="509"/>
      <point x="124" y="520" type="curve" smooth="yes"/>
      <point x="124" y="531"/>
      <point x="123" y="548"/>
      <point x="120" y="560" type="curve"/>
      <point x="40" y="560" type="line"/>
    </contour>
    <contour>
      <point x="77" y="388"/>
      <point x="76" y="371"/>
      <point x="76" y="360" type="curve" smooth="yes"/>
      <point x="76" y="349"/>
      <point x="77" y="333"/>
      <point x="80" y="320" type="curve"/>
      <point x="160" y="320" type="line"/>
      <point x="163" y="333"/>
      <point x="164" y="349"/>
      <point x="164" y="360" type="curve" smooth="yes"/>
      <point x="164" y="371"/>
      <point x="163" y="388"/>
      <point x="160" y="400" type="curve"/>
      <point x="80" y="400" type="line"/>
    </contour>
    <contour>
      <point x="117" y="308"/>
      <point x="116" y="291"/>
      <point x="116" y="280" type="curve" smooth="yes"/>
      <point x="116" y="269"/>
      <point x="117" y="253"/>
      <point x="120" y="240" type="curve"/>
      <point x="280" y="240" type="line"/>
      <point x="283" y="253"/>
      <point x="284" y="269"/>
      <point x="284" y="280" type="curve" smooth="yes"/>
      <point x="284" y="291"/>
      <point x="283" y="308"/>
      <point x="280" y="320" type="curve"/>
      <point x="120" y="320" type="line"/>
    </contour>
    <contour>
      <point x="237" y="388"/>
      <point x="236" y="371"/>
      <point x="236" y="360" type="curve" smooth="yes"/>
      <point x="236" y="349"/>
      <point x="237" y="333"/>
      <point x="240" y="320" type="curve"/>
      <point x="320" y="320" type="line"/>
      <point x="323" y="333"/>
      <point x="324" y="349"/>
      <point x="324" y="360" type="curve" smooth="yes"/>
      <point x="324" y="371"/>
      <point x="323" y="388"/>
      <point x="320" y="400" type="curve"/>
      <point x="240" y="400" type="line"/>
    </contour>
    <contour>
      <point x="277" y="468"/>
      <point x="276" y="451"/>
      <point x="276" y="440" type="curve" smooth="yes"/>
      <point x="276" y="429"/>
      <point x="277" y="413"/>
      <point x="280" y="400" type="curve"/>
      <point x="360" y="400" type="line"/>
      <point x="363" y="413"/>
      <point x="364" y="429"/>
      <point x="364" y="440" type="curve" smooth="yes"/>
      <point x="364" y="451"/>
      <point x="363" y="468"/>
      <point x="360" y="480" type="curve"/>
      <point x="280" y="480" type="line"/>
    </contour>
    <contour>
      <point x="277" y="548"/>
      <point x="276" y="531"/>
      <point x="276" y="520" type="curve" smooth="yes"/>
      <point x="276" y="509"/>
      <point x="277" y="493"/>
      <point x="280" y="480" type="curve"/>
      <point x="360" y="480" type="line"/>
      <point x="363" y="493"/>
      <point x="364" y="509"/>
      <point x="364" y="520" type="curve" smooth="yes"/>
      <point x="364" y="531"/>
      <point x="363" y="548"/>
      <point x="360" y="560" type="curve"/>
      <point x="280" y="560" type="line"/>
    </contour>
    <contour>
      <point x="157" y="148"/>
      <point x="156" y="131"/>
      <point x="156" y="120" type="curve" smooth="yes"/>
      <point x="156" y="109"/>
      <point x="157" y="93"/>
      <point x="160" y="80" type="curve"/>
      <point x="240" y="80" type="line"/>
      <point x="243" y="93"/>
      <point x="244" y="109"/>
      <point x="244" y="120" type="curve" smooth="yes"/>
      <point x="244" y="131"/>
      <point x="243" y="148"/>
      <point x="240" y="160" type="curve"/>
      <point x="160" y="160" type="line"/>
    </contour>
    <contour>
      <point x="157" y="228"/>
      <point x="156" y="211"/>
      <point x="156" y="200" type="curve" smooth="yes"/>
      <point x="156" y="189"/>
      <point x="157" y="173"/>
      <point x="160" y="160" type="curve"/>
      <point x="240" y="160" type="line"/>
      <point x="243" y="173"/>
      <point x="244" y="189"/>
      <point x="244" y="200" type="curve" smooth="yes"/>
      <point x="244" y="211"/>
      <point x="243" y="228"/>
      <point x="240" y="240" type="curve"/>
      <point x="160" y="240" type="line"/>
    </contour>
    <contour>
      <point x="157" y="68"/>
      <point x="156" y="51"/>
      <point x="156" y="40" type="curve" smooth="yes"/>
      <point x="156" y="29"/>
      <point x="157" y="13"/>
      <point x="160" y="0" type="curve"/>
      <point x="240" y="0" type="line"/>
      <point x="243" y="13"/>
      <point x="244" y="29"/>
      <point x="244" y="40" type="curve" smooth="yes"/>
      <point x="244" y="51"/>
      <point x="243" y="68"/>
      <point x="240" y="80" type="curve"/>
      <point x="160" y="80" type="line"/>
    </contour>
    <contour>
      <point x="200" y="560" type="move" name="top"/>
    </contour>
    <contour>
      <point x="200" y="0" type="move" name="bottom"/>
    </contour>
    <contour>
      <point x="40" y="560" type="move" name="topleft"/>
    </contour>
  </outline>
</glyph>
<glyph name="Z" format="1">
  <advance width="400"/>
  <unicode hex="005A"/>
  <outline>
    <contour>
      <point x="57" y="148"/>
      <point x="56" y="131"/>
      <point x="56" y="120" type="curve" smooth="yes"/>
      <point x="56" y="109"/>
      <point x="57" y="93"/>
      <point x="60" y="80" type="curve"/>
      <point x="140" y="80" type="line"/>
      <point x="143" y="93"/>
      <point x="144" y="109"/>
      <point x="144" y="120" type="curve" smooth="yes"/>
      <point x="144" y="131"/>
      <point x="143" y="148"/>
      <point x="140" y="160" type="curve"/>
      <point x="60" y="160" type="line"/>
    </contour>
    <contour>
      <point x="57" y="68"/>
      <point x="56" y="51"/>
      <point x="56" y="40" type="curve" smooth="yes"/>
      <point x="56" y="29"/>
      <point x="57" y="13"/>
      <point x="60" y="0" type="curve"/>
      <point x="220" y="0" type="line"/>
      <point x="223" y="13"/>
      <point x="224" y="29"/>
      <point x="224" y="40" type="curve" smooth="yes"/>
      <point x="224" y="51"/>
      <point x="223" y="68"/>
      <point x="220" y="80" type="curve"/>
      <point x="60" y="80" type="line"/>
    </contour>
    <contour>
      <point x="217" y="68"/>
      <point x="216" y="51"/>
      <point x="216" y="40" type="curve" smooth="yes"/>
      <point x="216" y="29"/>
      <point x="217" y="13"/>
      <point x="220" y="0" type="curve"/>
      <point x="340" y="0" type="line"/>
      <point x="343" y="13"/>
      <point x="344" y="29"/>
      <point x="344" y="40" type="curve" smooth="yes"/>
      <point x="344" y="51"/>
      <point x="343" y="68"/>
      <point x="340" y="80" type="curve"/>
      <point x="220" y="80" type="line"/>
    </contour>
    <contour>
      <point x="107" y="228"/>
      <point x="106" y="211"/>
      <point x="106" y="200" type="curve" smooth="yes"/>
      <point x="106" y="189"/>
      <point x="107" y="173"/>
      <point x="110" y="160" type="curve"/>
      <point x="190" y="160" type="line"/>
      <point x="193" y="173"/>
      <point x="194" y="189"/>
      <point x="194" y="200" type="curve" smooth="yes"/>
      <point x="194" y="211"/>
      <point x="193" y="228"/>
      <point x="190" y="240" type="curve"/>
      <point x="110" y="240" type="line"/>
    </contour>
    <contour>
      <point x="167" y="308"/>
      <point x="166" y="291"/>
      <point x="166" y="280" type="curve" smooth="yes"/>
      <point x="166" y="269"/>
      <point x="167" y="253"/>
      <point x="170" y="240" type="curve"/>
      <point x="250" y="240" type="line"/>
      <point x="253" y="253"/>
      <point x="254" y="269"/>
      <point x="254" y="280" type="curve" smooth="yes"/>
      <point x="254" y="291"/>
      <point x="253" y="308"/>
      <point x="250" y="320" type="curve"/>
      <point x="170" y="320" type="line"/>
    </contour>
    <contour>
      <point x="257" y="468"/>
      <point x="256" y="451"/>
      <point x="256" y="440" type="curve" smooth="yes"/>
      <point x="256" y="429"/>
      <point x="257" y="413"/>
      <point x="260" y="400" type="curve"/>
      <point x="340" y="400" type="line"/>
      <point x="343" y="413"/>
      <point x="344" y="429"/>
      <point x="344" y="440" type="curve" smooth="yes"/>
      <point x="344" y="451"/>
      <point x="343" y="468"/>
      <point x="340" y="480" type="curve"/>
      <point x="260" y="480" type="line"/>
    </contour>
    <contour>
      <point x="57" y="548"/>
      <point x="56" y="531"/>
      <point x="56" y="520" type="curve" smooth="yes"/>
      <point x="56" y="509"/>
      <point x="57" y="493"/>
      <point x="60" y="480" type="curve"/>
      <point x="220" y="480" type="line"/>
      <point x="223" y="493"/>
      <point x="224" y="509"/>
      <point x="224" y="520" type="curve" smooth="yes"/>
      <point x="224" y="531"/>
      <point x="223" y="548"/>
      <point x="220" y="560" type="curve"/>
      <point x="60" y="560" type="line"/>
    </contour>
    <contour>
      <point x="217" y="548"/>
      <point x="216" y="531"/>
      <point x="216" y="520" type="curve" smooth="yes"/>
      <point x="216" y="509"/>
      <point x="217" y="493"/>
      <point x="220" y="480" type="curve"/>
      <point x="340" y="480" type="line"/>
      <point x="343" y="493"/>
      <point x="344" y="509"/>
      <point x="344" y="520" type="curve" smooth="yes"/>
      <point x="344" y="531"/>
      <point x="343" y="548"/>
      <point x="340" y="560" type="curve"/>
      <point x="220" y="560" type="line"/>
    </contour>
    <contour>
      <point x="227" y="388"/>
      <point x="226" y="371"/>
      <point x="226" y="360" type="curve" smooth="yes"/>
      <point x="226" y="349"/>
      <point x="227" y="333"/>
      <point x="230" y="320" type="curve"/>
      <point x="310" y="320" type="line"/>
      <point x="313" y="333"/>
      <point x="314" y="349"/>
      <point x="314" y="360" type="curve" smooth="yes"/>
      <point x="314" y="371"/>
      <point x="313" y="388"/>
      <point x="310" y="400" type="curve"/>
      <point x="230" y="400" type="line"/>
    </contour>
    <contour>
      <point x="200" y="560" type="move" name="top"/>
    </contour>
    <contour>
      <point x="200" y="0" type="move" name="bottom"/>
    </contour>
  </outline>
</glyph>
<glyph name="underscore" format="1">
  <advance width="400"/>
  <unicode hex="005F"/>
  <outline>
    <contour>
      <point x="37" y="68"/>
      <point x="36" y="51"/>
      <point x="36" y="40" type="curve" smooth="yes"/>
      <point x="36" y="29"/>
      <point x="37" y="13"/>
      <point x="40" y="0" type="curve"/>
      <point x="200" y="0" type="line"/>
      <point x="203" y="13"/>
      <point x="204" y="29"/>
      <point x="204" y="40" type="curve" smooth="yes"/>
      <point x="204" y="51"/>
      <point x="203" y="68"/>
      <point x="200" y="80" type="curve"/>
      <point x="40" y="80" type="line"/>
    </contour>
    <contour>
      <point x="197" y="68"/>
      <point x="196" y="51"/>
      <point x="196" y="40" type="curve" smooth="yes"/>
      <point x="196" y="29"/>
      <point x="197" y="13"/>
      <point x="200" y="0" type="curve"/>
      <point x="360" y="0" type="line"/>
      <point x="363" y="13"/>
      <point x="364" y="29"/>
      <point x="364" y="40" type="curve" smooth="yes"/>
      <point x="364" y="51"/>
      <point x="363" y="68"/>
      <point x="360" y="80" type="curve"/>
      <point x="200" y="80" type="line"/>
    </contour>
  </outline>
</glyph>
<glyph name="a" format="1">
  <advance width="400"/>
  <unicode hex="0061"/>
  <outline>
    <contour>
      <point x="37" y="148"/>
      <point x="36" y="131"/>
      <point x="36" y="120" type="curve" smooth="yes"/>
      <point x="36" y="109"/>
      <point x="37" y="93"/>
      <point x="40" y="80" type="curve"/>
      <point x="120" y="80" type="line"/>
      <point x="123" y="93"/>
      <point x="124" y="109"/>
      <point x="124" y="120" type="curve" smooth="yes"/>
      <point x="124" y="131"/>
      <point x="123" y="148"/>
      <point x="120" y="160" type="curve"/>
      <point x="40" y="160" type="line"/>
    </contour>
    <contour>
      <point x="277" y="68"/>
      <point x="276" y="51"/>
      <point x="276" y="40" type="curve" smooth="yes"/>
      <point x="276" y="29"/>
      <point x="277" y="13"/>
      <point x="280" y="0" type="curve"/>
      <point x="360" y="0" type="line"/>
      <point x="363" y="13"/>
      <point x="364" y="29"/>
      <point x="364" y="40" type="curve" smooth="yes"/>
      <point x="364" y="51"/>
      <point x="363" y="68"/>
      <point x="360" y="80" type="curve"/>
      <point x="280" y="80" type="line"/>
    </contour>
    <contour>
      <point x="237" y="148"/>
      <point x="236" y="131"/>
      <point x="236" y="120" type="curve" smooth="yes"/>
      <point x="236" y="109"/>
      <point x="237" y="93"/>
      <point x="240" y="80" type="curve"/>
      <point x="320" y="80" type="line"/>
      <point x="323" y="93"/>
      <point x="324" y="109"/>
      <point x="324" y="120" type="curve" smooth="yes"/>
      <point x="324" y="131"/>
      <point x="323" y="148"/>
      <point x="320" y="160" type="curve"/>
      <point x="240" y="160" type="line"/>
    </contour>
    <contour>
      <point x="237" y="228"/>
      <point x="236" y="211"/>
      <point x="236" y="200" type="curve" smooth="yes"/>
      <point x="236" y="189"/>
      <point x="237" y="173"/>
      <point x="240" y="160" type="curve"/>
      <point x="320" y="160" type="line"/>
      <point x="323" y="173"/>
      <point x="324" y="189"/>
      <point x="324" y="200" type="curve" smooth="yes"/>
      <point x="324" y="211"/>
      <point x="323" y="228"/>
      <point x="320" y="240" type="curve"/>
      <point x="240" y="240" type="line"/>
    </contour>
    <contour>
      <point x="237" y="308"/>
      <point x="236" y="291"/>
      <point x="236" y="280" type="curve" smooth="yes"/>
      <point x="236" y="269"/>
      <point x="237" y="253"/>
      <point x="240" y="240" type="curve"/>
      <point x="320" y="240" type="line"/>
      <point x="323" y="253"/>
      <point x="324" y="269"/>
      <point x="324" y="280" type="curve" smooth="yes"/>
      <point x="324" y="291"/>
      <point x="323" y="308"/>
      <point x="320" y="320" type="curve"/>
      <point x="240" y="320" type="line"/>
    </contour>
    <contour>
      <point x="197" y="388"/>
      <point x="196" y="371"/>
      <point x="196" y="360" type="curve" smooth="yes"/>
      <point x="196" y="349"/>
      <point x="197" y="333"/>
      <point x="200" y="320" type="curve"/>
      <point x="280" y="320" type="line"/>
      <point x="283" y="333"/>
      <point x="284" y="349"/>
      <point x="284" y="360" type="curve" smooth="yes"/>
      <point x="284" y="371"/>
      <point x="283" y="388"/>
      <point x="280" y="400" type="curve"/>
      <point x="200" y="400" type="line"/>
    </contour>
    <contour>
      <point x="97" y="388"/>
      <point x="96" y="371"/>
      <point x="96" y="360" type="curve" smooth="yes"/>
      <point x="96" y="349"/>
      <point x="97" y="333"/>
      <point x="100" y="320" type="curve"/>
      <point x="200" y="320" type="line"/>
      <point x="203" y="333"/>
      <point x="204" y="349"/>
      <point x="204" y="360" type="curve" smooth="yes"/>
      <point x="204" y="371"/>
      <point x="203" y="388"/>
      <point x="200" y="400" type="curve"/>
      <point x="100" y="400" type="line"/>
    </contour>
    <contour>
      <point x="77" y="228"/>
      <point x="76" y="211"/>
      <point x="76" y="200" type="curve" smooth="yes"/>
      <point x="76" y="189"/>
      <point x="77" y="173"/>
      <point x="80" y="160" type="curve"/>
      <point x="240" y="160" type="line"/>
      <point x="243" y="173"/>
      <point x="244" y="189"/>
      <point x="244" y="200" type="curve" smooth="yes"/>
      <point x="244" y="211"/>
      <point x="243" y="228"/>
      <point x="240" y="240" type="curve"/>
      <point x="80" y="240" type="line"/>
    </contour>
    <contour>
      <point x="77" y="68"/>
      <point x="76" y="51"/>
      <point x="76" y="40" type="curve" smooth="yes"/>
      <point x="76" y="29"/>
      <point x="77" y="13"/>
      <point x="80" y="0" type="curve"/>
      <point x="240" y="0" type="line"/>
      <point x="243" y="13"/>
      <point x="244" y="29"/>
      <point x="244" y="40" type="curve" smooth="yes"/>
      <point x="244" y="51"/>
      <point x="243" y="68"/>
      <point x="240" y="80" type="curve"/>
      <point x="80" y="80" type="line"/>
    </contour>
    <contour>
      <point x="340" y="10" type="move" name="ogonek"/>
    </contour>
    <contour>
      <point x="200" y="0" type="move" name="bottom"/>
    </contour>
    <contour>
      <point x="200" y="400" type="move" name="top"/>
    </contour>
  </outline>
</glyph>
<glyph name="c" format="1">
  <advance width="400"/>
  <unicode hex="0063"/>
  <outline>
    <contour>
      <point x="77" y="148"/>
      <point x="76" y="131"/>
      <point x="76" y="120" type="curve" smooth="yes"/>
      <point x="76" y="109"/>
      <point x="77" y="93"/>
      <point x="80" y="80" type="curve"/>
      <point x="160" y="80" type="line"/>
      <point x="163" y="93"/>
      <point x="164" y="109"/>
      <point x="164" y="120" type="curve" smooth="yes"/>
      <point x="164" y="131"/>
      <point x="163" y="148"/>
      <point x="160" y="160" type="curve"/>
      <point x="80" y="160" type="line"/>
    </contour>
    <contour>
      <point x="37" y="228"/>
      <point x="36" y="211"/>
      <point x="36" y="200" type="curve" smooth="yes"/>
      <point x="36" y="189"/>
      <point x="37" y="173"/>
      <point x="40" y="160" type="curve"/>
      <point x="120" y="160" type="line"/>
      <point x="123" y="173"/>
      <point x="124" y="189"/>
      <point x="124" y="200" type="curve" smooth="yes"/>
      <point x="124" y="211"/>
      <point x="123" y="228"/>
      <point x="120" y="240" type="curve"/>
      <point x="40" y="240" type="line"/>
    </contour>
    <contour>
      <point x="77" y="308"/>
      <point x="76" y="291"/>
      <point x="76" y="280" type="curve" smooth="yes"/>
      <point x="76" y="269"/>
      <point x="77" y="253"/>
      <point x="80" y="240" type="curve"/>
      <point x="160" y="240" type="line"/>
      <point x="163" y="253"/>
      <point x="164" y="269"/>
      <point x="164" y="280" type="curve" smooth="yes"/>
      <point x="164" y="291"/>
      <point x="163" y="308"/>
      <point x="160" y="320" type="curve"/>
      <point x="80" y="320" type="line"/>
    </contour>
    <contour>
      <point x="277" y="148"/>
      <point x="276" y="131"/>
      <point x="276" y="120" type="curve" smooth="yes"/>
      <point x="276" y="109"/>
      <point x="277" y="93"/>
      <point x="280" y="80" type="curve"/>
      <point x="360" y="80" type="line"/>
      <point x="363" y="93"/>
      <point x="364" y="109"/>
      <point x="364" y="120" type="curve" smooth="yes"/>
      <point x="364" y="131"/>
      <point x="363" y="148"/>
      <point x="360" y="160" type="curve"/>
      <point x="280" y="160" type="line"/>
    </contour>
    <contour>
      <point x="277" y="308"/>
      <point x="276" y="291"/>
      <point x="276" y="280" type="curve" smooth="yes"/>
      <point x="276" y="269"/>
      <point x="277" y="253"/>
      <point x="280" y="240" type="curve"/>
      <point x="360" y="240" type="line"/>
      <point x="363" y="253"/>
      <point x="364" y="269"/>
      <point x="364" y="280" type="curve" smooth="yes"/>
      <point x="364" y="291"/>
      <point x="363" y="308"/>
      <point x="360" y="320" type="curve"/>
      <point x="280" y="320" type="line"/>
    </contour>
    <contour>
      <point x="117" y="68"/>
      <point x="116" y="51"/>
      <point x="116" y="40" type="curve" smooth="yes"/>
      <point x="116" y="29"/>
      <point x="117" y="13"/>
      <point x="120" y="0" type="curve"/>
      <point x="200" y="0" type="line"/>
      <point x="203" y="13"/>
      <point x="204" y="29"/>
      <point x="204" y="40" type="curve" smooth="yes"/>
      <point x="204" y="51"/>
      <point x="203" y="68"/>
      <point x="200" y="80" type="curve"/>
      <point x="120" y="80" type="line"/>
    </contour>
    <contour>
      <point x="197" y="68"/>
      <point x="196" y="51"/>
      <point x="196" y="40" type="curve" smooth="yes"/>
      <point x="196" y="29"/>
      <point x="197" y="13"/>
      <point x="200" y="0" type="curve"/>
      <point x="320" y="0" type="line"/>
      <point x="323" y="13"/>
      <point x="324" y="29"/>
      <point x="324" y="40" type="curve" smooth="yes"/>
      <point x="324" y="51"/>
      <point x="323" y="68"/>
      <point x="320" y="80" type="curve"/>
      <point x="200" y="80" type="line"/>
    </contour>
    <contour>
      <point x="117" y="388"/>
      <point x="116" y="371"/>
      <point x="116" y="360" type="curve" smooth="yes"/>
      <point x="116" y="349"/>
      <point x="117" y="333"/>
      <point x="120" y="320" type="curve"/>
      <point x="200" y="320" type="line"/>
      <point x="203" y="333"/>
      <point x="204" y="349"/>
      <point x="204" y="360" type="curve" smooth="yes"/>
      <point x="204" y="371"/>
      <point x="203" y="388"/>
      <point x="200" y="400" type="curve"/>
      <point x="120" y="400" type="line"/>
    </contour>
    <contour>
      <point x="197" y="388"/>
      <point x="196" y="371"/>
      <point x="196" y="360" type="curve" smooth="yes"/>
      <point x="196" y="349"/>
      <point x="197" y="333"/>
      <point x="200" y="320" type="curve"/>
      <point x="320" y="320" type="line"/>
      <point x="323" y="333"/>
      <point x="324" y="349"/>
      <point x="324" y="360" type="curve" smooth="yes"/>
      <point x="324" y="371"/>
      <point x="323" y="388"/>
      <point x="320" y="400" type="curve"/>
      <point x="200" y="400" type="line"/>
    </contour>
    <contour>
      <point x="220" y="400" type="move" name="top"/>
    </contour>
    <contour>
      <point x="200" y="0" type="move" name="bottom"/>
    </contour>
  </outline>
</glyph>
<glyph name="m" format="1">
  <advance width="400"/>
  <unicode hex="006D"/>
  <outline>
    <contour>
      <point x="37" y="148"/>
      <point x="36" y="131"/>
      <point x="36" y="120" type="curve" smooth="yes"/>
      <point x="36" y="109"/>
      <point x="37" y="93"/>
      <point x="40" y="80" type="curve"/>
      <point x="120" y="80" type="line"/>
      <point x="123" y="93"/>
      <point x="124" y="109"/>
      <point x="124" y="120" type="curve" smooth="yes"/>
      <point x="124" y="131"/>
      <point x="123" y="148"/>
      <point x="120" y="160" type="curve"/>
      <point x="40" y="160" type="line"/>
    </contour>
    <contour>
      <point x="37" y="68"/>
      <point x="36" y="51"/>
      <point x="36" y="40" type="curve" smooth="yes"/>
      <point x="36" y="29"/>
      <point x="37" y="13"/>
      <point x="40" y="0" type="curve"/>
      <point x="120" y="0" type="line"/>
      <point x="123" y="13"/>
      <point x="124" y="29"/>
      <point x="124" y="40" type="curve" smooth="yes"/>
      <point x="124" y="51"/>
      <point x="123" y="68"/>
      <point x="120" y="80" type="curve"/>
      <point x="40" y="80" type="line"/>
    </contour>
    <contour>
      <point x="37" y="228"/>
      <point x="36" y="211"/>
      <point x="36" y="200" type="curve" smooth="yes"/>
      <point x="36" y="189"/>
      <point x="37" y="173"/>
      <point x="40" y="160" type="curve"/>
      <point x="120" y="160" type="line"/>
      <point x="123" y="173"/>
      <point x="124" y="189"/>
      <point x="124" y="200" type="curve" smooth="yes"/>
      <point x="124" y="211"/>
      <point x="123" y="228"/>
      <point x="120" y="240" type="curve"/>
      <point x="40" y="240" type="line"/>
    </contour>
    <contour>
      <point x="37" y="308"/>
      <point x="36" y="291"/>
      <point x="36" y="280" type="curve" smooth="yes"/>
      <point x="36" y="269"/>
      <point x="37" y="253"/>
      <point x="40" y="240" type="curve"/>
      <point x="120" y="240" type="line"/>
      <point x="123" y="253"/>
      <point x="124" y="269"/>
      <point x="124" y="280" type="curve" smooth="yes"/>
      <point x="124" y="291"/>
      <point x="123" y="308"/>
      <point x="120" y="320" type="curve"/>
      <point x="40" y="320" type="line"/>
    </contour>
    <contour>
      <point x="37" y="388"/>
      <point x="36" y="371"/>
      <point x="36" y="360" type="curve" smooth="yes"/>
      <point x="36" y="349"/>
      <point x="37" y="333"/>
      <point x="40" y="320" type="curve"/>
      <point x="90" y="320" type="line"/>
      <point x="93" y="333"/>
      <point x="94" y="349"/>
      <point x="94" y="360" type="curve" smooth="yes"/>
      <point x="94" y="371"/>
      <point x="93" y="388"/>
      <point x="90" y="400" type="curve"/>
      <point x="40" y="400" type="line"/>
    </contour>
    <contour>
      <point x="117" y="388"/>
      <point x="116" y="371"/>
      <point x="116" y="360" type="curve" smooth="yes"/>
      <point x="116" y="349"/>
      <point x="117" y="333"/>
      <point x="120" y="320" type="curve"/>
      <point x="200" y="320" type="line"/>
      <point x="203" y="333"/>
      <point x="204" y="349"/>
      <point x="204" y="360" type="curve" smooth="yes"/>
      <point x="204" y="371"/>
      <point x="203" y="388"/>
      <point x="200" y="400" type="curve"/>
      <point x="120" y="400" type="line"/>
    </contour>
    <contour>
      <point x="227" y="388"/>
      <point x="226" y="371"/>
      <point x="226" y="360" type="curve" smooth="yes"/>
      <point x="226" y="349"/>
      <point x="227" y="333"/>
      <point x="230" y="320" type="curve"/>
      <point x="320" y="320" type="line"/>
      <point x="323" y="333"/>
      <point x="324" y="349"/>
      <point x="324" y="360" type="curve" smooth="yes"/>
      <point x="324" y="371"/>
      <point x="323" y="388"/>
      <point x="320" y="400" type="curve"/>
      <point x="230" y="400" type="line"/>
    </contour>
    <contour>
      <point x="277" y="308"/>
      <point x="276" y="291"/>
      <point x="276" y="280" type="curve" smooth="yes"/>
      <point x="276" y="269"/>
      <point x="277" y="253"/>
      <point x="280" y="240" type="curve"/>
      <point x="360" y="240" type="line"/>
      <point x="363" y="253"/>
      <point x="364" y="269"/>
      <point x="364" y="280" type="curve" smooth="yes"/>
      <point x="364" y="291"/>
      <point x="363" y="308"/>
      <point x="360" y="320" type="curve"/>
      <point x="280" y="320" type="line"/>
    </contour>
    <contour>
      <point x="277" y="228"/>
      <point x="276" y="211"/>
      <point x="276" y="200" type="curve" smooth="yes"/>
      <point x="276" y="189"/>
      <point x="277" y="173"/>
      <point x="280" y="160" type="curve"/>
      <point x="360" y="160" type="line"/>
      <point x="363" y="173"/>
      <point x="364" y="189"/>
      <point x="364" y="200" type="curve" smooth="yes"/>
      <point x="364" y="211"/>
      <point x="363" y="228"/>
      <point x="360" y="240" type="curve"/>
      <point x="280" y="240" type="line"/>
    </contour>
    <contour>
      <point x="277" y="148"/>
      <point x="276" y="131"/>
      <point x="276" y="120" type="curve" smooth="yes"/>
      <point x="276" y="109"/>
      <point x="277" y="93"/>
      <point x="280" y="80" type="curve"/>
      <point x="360" y="80" type="line"/>
      <point x="363" y="93"/>
      <point x="364" y="109"/>
      <point x="364" y="120" type="curve" smooth="yes"/>
      <point x="364" y="131"/>
      <point x="363" y="148"/>
      <point x="360" y="160" type="curve"/>
      <point x="280" y="160" type="line"/>
    </contour>
    <contour>
      <point x="277" y="68"/>
      <point x="276" y="51"/>
      <point x="276" y="40" type="curve" smooth="yes"/>
      <point x="276" y="29"/>
      <point x="277" y="13"/>
      <point x="280" y="0" type="curve"/>
      <point x="360" y="0" type="line"/>
      <point x="363" y="13"/>
      <point x="364" y="29"/>
      <point x="364" y="40" type="curve" smooth="yes"/>
      <point x="364" y="51"/>
      <point x="363" y="68"/>
      <point x="360" y="80" type="curve"/>
      <point x="280" y="80" type="line"/>
    </contour>
    <contour>
      <point x="167" y="308"/>
      <point x="166" y="291"/>
      <point x="166" y="280" type="curve" smooth="yes"/>
      <point x="166" y="269"/>
      <point x="167" y="253"/>
      <point x="170" y="240" type="curve"/>
      <point x="230" y="240" type="line"/>
      <point x="233" y="253"/>
      <point x="234" y="269"/>
      <point x="234" y="280" type="curve" smooth="yes"/>
      <point x="234" y="291"/>
      <point x="233" y="308"/>
      <point x="230" y="320" type="curve"/>
      <point x="170" y="320" type="line"/>
    </contour>
    <contour>
      <point x="167" y="228"/>
      <point x="166" y="211"/>
      <point x="166" y="200" type="curve" smooth="yes"/>
      <point x="166" y="189"/>
      <point x="167" y="173"/>
      <point x="170" y="160" type="curve"/>
      <point x="230" y="160" type="line"/>
      <point x="233" y="173"/>
      <point x="234" y="189"/>
      <point x="234" y="200" type="curve" smooth="yes"/>
      <point x="234" y="211"/>
      <point x="233" y="228"/>
      <point x="230" y="240" type="curve"/>
      <point x="170" y="240" type="line"/>
    </contour>
    <contour>
      <point x="167" y="148"/>
      <point x="166" y="131"/>
      <point x="166" y="120" type="curve" smooth="yes"/>
      <point x="166" y="109"/>
      <point x="167" y="93"/>
      <point x="170" y="80" type="curve"/>
      <point x="230" y="80" type="line"/>
      <point x="233" y="93"/>
      <point x="234" y="109"/>
      <point x="234" y="120" type="curve" smooth="yes"/>
      <point x="234" y="131"/>
      <point x="233" y="148"/>
      <point x="230" y="160" type="curve"/>
      <point x="170" y="160" type="line"/>
    </contour>
    <contour>
      <point x="167" y="68"/>
      <point x="166" y="51"/>
      <point x="166" y="40" type="curve" smooth="yes"/>
      <point x="166" y="29"/>
      <point x="167" y="13"/>
      <point x="170" y="0" type="curve"/>
      <point x="230" y="0" type="line"/>
      <point x="233" y="13"/>
      <point x="234" y="29"/>
      <point x="234" y="40" type="curve" smooth="yes"/>
      <point x="234" y="51"/>
      <point x="233" y="68"/>
      <point x="230" y="80" type="curve"/>
      <point x="170" y="80" type="line"/>
    </contour>
    <contour>
      <point x="200" y="400" type="move" name="top"/>
    </contour>
    <contour>
      <point x="200" y="0" type="move" name="bottom"/>
    </contour>
  </outline>
</glyph>
<glyph name="s" format="1">
  <advance width="400"/>
  <unicode hex="0073"/>
  <outline>
    <contour>
      <point x="57" y="308"/>
      <point x="56" y="291"/>
      <point x="56" y="280" type="curve" smooth="yes"/>
      <point x="56" y="269"/>
      <point x="57" y="253"/>
      <point x="60" y="240" type="curve"/>
      <point x="140" y="240" type="line"/>
      <point x="143" y="253"/>
      <point x="144" y="269"/>
      <point x="144" y="280" type="curve" smooth="yes"/>
      <point x="144" y="291"/>
      <point x="143" y="308"/>
      <point x="140" y="320" type="curve"/>
      <point x="60" y="320" type="line"/>
    </contour>
    <contour>
      <point x="257" y="148"/>
      <point x="256" y="131"/>
      <point x="256" y="120" type="curve" smooth="yes"/>
      <point x="256" y="109"/>
      <point x="257" y="93"/>
      <point x="260" y="80" type="curve"/>
      <point x="340" y="80" type="line"/>
      <point x="343" y="93"/>
      <point x="344" y="109"/>
      <point x="344" y="120" type="curve" smooth="yes"/>
      <point x="344" y="131"/>
      <point x="343" y="148"/>
      <point x="340" y="160" type="curve"/>
      <point x="260" y="160" type="line"/>
    </contour>
    <contour>
      <point x="177" y="228"/>
      <point x="176" y="211"/>
      <point x="176" y="200" type="curve" smooth="yes"/>
      <point x="176" y="189"/>
      <point x="177" y="173"/>
      <point x="180" y="160" type="curve"/>
      <point x="300" y="160" type="line"/>
      <point x="303" y="173"/>
      <point x="304" y="189"/>
      <point x="304" y="200" type="curve" smooth="yes"/>
      <point x="304" y="211"/>
      <point x="303" y="228"/>
      <point x="300" y="240" type="curve"/>
      <point x="180" y="240" type="line"/>
    </contour>
    <contour>
      <point x="97" y="388"/>
      <point x="96" y="371"/>
      <point x="96" y="360" type="curve" smooth="yes"/>
      <point x="96" y="349"/>
      <point x="97" y="333"/>
      <point x="100" y="320" type="curve"/>
      <point x="180" y="320" type="line"/>
      <point x="183" y="333"/>
      <point x="184" y="349"/>
      <point x="184" y="360" type="curve" smooth="yes"/>
      <point x="184" y="371"/>
      <point x="183" y="388"/>
      <point x="180" y="400" type="curve"/>
      <point x="100" y="400" type="line"/>
    </contour>
    <contour>
      <point x="177" y="388"/>
      <point x="176" y="371"/>
      <point x="176" y="360" type="curve" smooth="yes"/>
      <point x="176" y="349"/>
      <point x="177" y="333"/>
      <point x="180" y="320" type="curve"/>
      <point x="320" y="320" type="line"/>
      <point x="323" y="333"/>
      <point x="324" y="349"/>
      <point x="324" y="360" type="curve" smooth="yes"/>
      <point x="324" y="371"/>
      <point x="323" y="388"/>
      <point x="320" y="400" type="curve"/>
      <point x="180" y="400" type="line"/>
    </contour>
    <contour>
      <point x="177" y="68"/>
      <point x="176" y="51"/>
      <point x="176" y="40" type="curve" smooth="yes"/>
      <point x="176" y="29"/>
      <point x="177" y="13"/>
      <point x="180" y="0" type="curve"/>
      <point x="300" y="0" type="line"/>
      <point x="303" y="13"/>
      <point x="304" y="29"/>
      <point x="304" y="40" type="curve" smooth="yes"/>
      <point x="304" y="51"/>
      <point x="303" y="68"/>
      <point x="300" y="80" type="curve"/>
      <point x="180" y="80" type="line"/>
    </contour>
    <contour>
      <point x="97" y="228"/>
      <point x="96" y="211"/>
      <point x="96" y="200" type="curve" smooth="yes"/>
      <point x="96" y="189"/>
      <point x="97" y="173"/>
      <point x="100" y="160" type="curve"/>
      <point x="180" y="160" type="line"/>
      <point x="183" y="173"/>
      <point x="184" y="189"/>
      <point x="184" y="200" type="curve" smooth="yes"/>
      <point x="184" y="211"/>
      <point x="183" y="228"/>
      <point x="180" y="240" type="curve"/>
      <point x="100" y="240" type="line"/>
    </contour>
    <contour>
      <point x="77" y="68"/>
      <point x="76" y="51"/>
      <point x="76" y="40" type="curve" smooth="yes"/>
      <point x="76" y="29"/>
      <point x="77" y="13"/>
      <point x="80" y="0" type="curve"/>
      <point x="180" y="0" type="line"/>
      <point x="183" y="13"/>
      <point x="184" y="29"/>
      <point x="184" y="40" type="curve" smooth="yes"/>
      <point x="184" y="51"/>
      <point x="183" y="68"/>
      <point x="180" y="80" type="curve"/>
      <point x="80" y="80" type="line"/>
    </contour>
    <contour>
      <point x="200" y="400" type="move" name="top"/>
    </contour>
    <contour>
      <point x="200" y="0" type="move" name="bottom"/>
    </contour>
  </outline>
</glyph>
<glyph name="u" format="1">
  <advance width="400"/>
  <unicode hex="0075"/>
  <outline>
    <contour>
      <point x="37" y="148"/>
      <point x="36" y="131"/>
      <point x="36" y="120" type="curve" smooth="yes"/>
      <point x="36" y="109"/>
      <point x="37" y="93"/>
      <point x="40" y="80" type="curve"/>
      <point x="150" y="80" type="line"/>
      <point x="153" y="93"/>
      <point x="154" y="109"/>
      <point x="154" y="120" type="curve" smooth="yes"/>
      <point x="154" y="131"/>
      <point x="153" y="148"/>
      <point x="150" y="160" type="curve"/>
      <point x="40" y="160" type="line"/>
    </contour>
    <contour>
      <point x="37" y="228"/>
      <point x="36" y="211"/>
      <point x="36" y="200" type="curve" smooth="yes"/>
      <point x="36" y="189"/>
      <point x="37" y="173"/>
      <point x="40" y="160" type="curve"/>
      <point x="120" y="160" type="line"/>
      <point x="123" y="173"/>
      <point x="124" y="189"/>
      <point x="124" y="200" type="curve" smooth="yes"/>
      <point x="124" y="211"/>
      <point x="123" y="228"/>
      <point x="120" y="240" type="curve"/>
      <point x="40" y="240" type="line"/>
    </contour>
    <contour>
      <point x="247" y="148"/>
      <point x="246" y="131"/>
      <point x="246" y="120" type="curve" smooth="yes"/>
      <point x="246" y="109"/>
      <point x="247" y="93"/>
      <point x="250" y="80" type="curve"/>
      <point x="360" y="80" type="line"/>
      <point x="363" y="93"/>
      <point x="364" y="109"/>
      <point x="364" y="120" type="curve" smooth="yes"/>
      <point x="364" y="131"/>
      <point x="363" y="148"/>
      <point x="360" y="160" type="curve"/>
      <point x="250" y="160" type="line"/>
    </contour>
    <contour>
      <point x="37" y="388"/>
      <point x="36" y="371"/>
      <point x="36" y="360" type="curve" smooth="yes"/>
      <point x="36" y="349"/>
      <point x="37" y="333"/>
      <point x="40" y="320" type="curve"/>
      <point x="120" y="320" type="line"/>
      <point x="123" y="333"/>
      <point x="124" y="349"/>
      <point x="124" y="360" type="curve" smooth="yes"/>
      <point x="124" y="371"/>
      <point x="123" y="388"/>
      <point x="120" y="400" type="curve"/>
      <point x="40" y="400" type="line"/>
    </contour>
    <contour>
      <point x="87" y="68"/>
      <point x="86" y="51"/>
      <point x="86" y="40" type="curve" smooth="yes"/>
      <point x="86" y="29"/>
      <point x="87" y="13"/>
      <point x="90" y="0" type="curve"/>
      <point x="250" y="0" type="line"/>
      <point x="253" y="13"/>
      <point x="254" y="29"/>
      <point x="254" y="40" type="curve" smooth="yes"/>
      <point x="254" y="51"/>
      <point x="253" y="68"/>
      <point x="250" y="80" type="curve"/>
      <point x="90" y="80" type="line"/>
    </contour>
    <contour>
      <point x="277" y="308"/>
      <point x="276" y="291"/>
      <point x="276" y="280" type="curve" smooth="yes"/>
      <point x="276" y="269"/>
      <point x="277" y="253"/>
      <point x="280" y="240" type="curve"/>
      <point x="360" y="240" type="line"/>
      <point x="363" y="253"/>
      <point x="364" y="269"/>
      <point x="364" y="280" type="curve" smooth="yes"/>
      <point x="364" y="291"/>
      <point x="363" y="308"/>
      <point x="360" y="320" type="curve"/>
      <point x="280" y="320" type="line"/>
    </contour>
    <contour>
      <point x="277" y="228"/>
      <point x="276" y="211"/>
      <point x="276" y="200" type="curve" smooth="yes"/>
      <point x="276" y="189"/>
      <point x="277" y="173"/>
      <point x="280" y="160" type="curve"/>
      <point x="360" y="160" type="line"/>
      <point x="363" y="173"/>
      <point x="364" y="189"/>
      <point x="364" y="200" type="curve" smooth="yes"/>
      <point x="364" y="211"/>
      <point x="363" y="228"/>
      <point x="360" y="240" type="curve"/>
      <point x="280" y="240" type="line"/>
    </contour>
    <contour>
      <point x="277" y="68"/>
      <point x="276" y="51"/>
      <point x="276" y="40" type="curve" smooth="yes"/>
      <point x="276" y="29"/>
      <point x="277" y="13"/>
      <point x="280" y="0" type="curve"/>
      <point x="360" y="0" type="line"/>
      <point x="363" y="13"/>
      <point x="364" y="29"/>
      <point x="364" y="40" type="curve" smooth="yes"/>
      <point x="364" y="51"/>
      <point x="363" y="68"/>
      <point x="360" y="80" type="curve"/>
      <point x="280" y="80" type="line"/>
    </contour>
    <contour>
      <point x="37" y="308"/>
      <point x="36" y="291"/>
      <point x="36" y="280" type="curve" smooth="yes"/>
      <point x="36" y="269"/>
      <point x="37" y="253"/>
      <point x="40" y="240" type="curve"/>
      <point x="120" y="240" type="line"/>
      <point x="123" y="253"/>
      <point x="124" y="269"/>
      <point x="124" y="280" type="curve" smooth="yes"/>
      <point x="124" y="291"/>
      <point x="123" y="308"/>
      <point x="120" y="320" type="curve"/>
      <point x="40" y="320" type="line"/>
    </contour>
    <contour>
      <point x="277" y="388"/>
      <point x="276" y="371"/>
      <point x="276" y="360" type="curve" smooth="yes"/>
      <point x="276" y="349"/>
      <point x="277" y="333"/>
      <point x="280" y="320" type="curve"/>
      <point x="360" y="320" type="line"/>
      <point x="363" y="333"/>
      <point x="364" y="349"/>
      <point x="364" y="360" type="curve" smooth="yes"/>
      <point x="364" y="371"/>
      <point x="363" y="388"/>
      <point x="360" y="400" type="curve"/>
      <point x="280" y="400" type="line"/>
    </contour>
    <contour>
      <point x="340" y="10" type="move" name="ogonek"/>
    </contour>
    <contour>
      <point x="200" y="400" type="move" name="top"/>
    </contour>
    <contour>
      <point x="320" y="400" type="move" name="topright"/>
    </contour>
    <contour>
      <point x="200" y="0" type="move" name="bottom"/>
    </contour>
  </outline>
</glyph>
<glyph name="y" format="1">
  <advance width="400"/>
  <unicode hex="0079"/>
  <outline>
    <contour>
      <point x="147" y="68"/>
      <point x="146" y="51"/>
      <point x="146" y="40" type="curve" smooth="yes"/>
      <point x="146" y="29"/>
      <point x="147" y="13"/>
      <point x="150" y="0" type="curve"/>
      <point x="250" y="0" type="line"/>
      <point x="253" y="13"/>
      <point x="254" y="29"/>
      <point x="254" y="40" type="curve" smooth="yes"/>
      <point x="254" y="51"/>
      <point x="253" y="68"/>
      <point x="250" y="80" type="curve"/>
      <point x="150" y="80" type="line"/>
    </contour>
    <contour>
      <point x="197" y="148"/>
      <point x="196" y="131"/>
      <point x="196" y="120" type="curve" smooth="yes"/>
      <point x="196" y="109"/>
      <point x="197" y="93"/>
      <point x="200" y="80" type="curve"/>
      <point x="280" y="80" type="line"/>
      <point x="283" y="93"/>
      <point x="284" y="109"/>
      <point x="284" y="120" type="curve" smooth="yes"/>
      <point x="284" y="131"/>
      <point x="283" y="148"/>
      <point x="280" y="160" type="curve"/>
      <point x="200" y="160" type="line"/>
    </contour>
    <contour>
      <point x="87" y="228"/>
      <point x="86" y="211"/>
      <point x="86" y="200" type="curve" smooth="yes"/>
      <point x="86" y="189"/>
      <point x="87" y="173"/>
      <point x="90" y="160" type="curve"/>
      <point x="170" y="160" type="line"/>
      <point x="173" y="173"/>
      <point x="174" y="189"/>
      <point x="174" y="200" type="curve" smooth="yes"/>
      <point x="174" y="211"/>
      <point x="173" y="228"/>
      <point x="170" y="240" type="curve"/>
      <point x="90" y="240" type="line"/>
    </contour>
    <contour>
      <point x="217" y="228"/>
      <point x="216" y="211"/>
      <point x="216" y="200" type="curve" smooth="yes"/>
      <point x="216" y="189"/>
      <point x="217" y="173"/>
      <point x="220" y="160" type="curve"/>
      <point x="300" y="160" type="line"/>
      <point x="303" y="173"/>
      <point x="304" y="189"/>
      <point x="304" y="200" type="curve" smooth="yes"/>
      <point x="304" y="211"/>
      <point x="303" y="228"/>
      <point x="300" y="240" type="curve"/>
      <point x="220" y="240" type="line"/>
    </contour>
    <contour>
      <point x="247" y="308"/>
      <point x="246" y="291"/>
      <point x="246" y="280" type="curve" smooth="yes"/>
      <point x="246" y="269"/>
      <point x="247" y="253"/>
      <point x="250" y="240" type="curve"/>
      <point x="330" y="240" type="line"/>
      <point x="333" y="253"/>
      <point x="334" y="269"/>
      <point x="334" y="280" type="curve" smooth="yes"/>
      <point x="334" y="291"/>
      <point x="333" y="308"/>
      <point x="330" y="320" type="curve"/>
      <point x="250" y="320" type="line"/>
    </contour>
    <contour>
      <point x="57" y="308"/>
      <point x="56" y="291"/>
      <point x="56" y="280" type="curve" smooth="yes"/>
      <point x="56" y="269"/>
      <point x="57" y="253"/>
      <point x="60" y="240" type="curve"/>
      <point x="140" y="240" type="line"/>
      <point x="143" y="253"/>
      <point x="144" y="269"/>
      <point x="144" y="280" type="curve" smooth="yes"/>
      <point x="144" y="291"/>
      <point x="143" y="308"/>
      <point x="140" y="320" type="curve"/>
      <point x="60" y="320" type="line"/>
    </contour>
    <contour>
      <point x="27" y="388"/>
      <point x="26" y="371"/>
      <point x="26" y="360" type="curve" smooth="yes"/>
      <point x="26" y="349"/>
      <point x="27" y="333"/>
      <point x="30" y="320" type="curve"/>
      <point x="110" y="320" type="line"/>
      <point x="113" y="333"/>
      <point x="114" y="349"/>
      <point x="114" y="360" type="curve" smooth="yes"/>
      <point x="114" y="371"/>
      <point x="113" y="388"/>
      <point x="110" y="400" type="curve"/>
      <point x="30" y="400" type="line"/>
    </contour>
    <contour>
      <point x="277" y="388"/>
      <point x="276" y="371"/>
      <point x="276" y="360" type="curve" smooth="yes"/>
      <point x="276" y="349"/>
      <point x="277" y="333"/>
      <point x="280" y="320" type="curve"/>
      <point x="360" y="320" type="line"/>
      <point x="363" y="333"/>
      <point x="364" y="349"/>
      <point x="364" y="360" type="curve" smooth="yes"/>
      <point x="364" y="371"/>
      <point x="363" y="388"/>
      <point x="360" y="400" type="curve"/>
      <point x="280" y="400" type="line"/>
    </contour>
    <contour>
      <point x="107" y="148"/>
      <point x="106" y="131"/>
      <point x="106" y="120" type="curve" smooth="yes"/>
      <point x="106" y="109"/>
      <point x="107" y="93"/>
      <point x="110" y="80" type="curve"/>
      <point x="170" y="80" type="line"/>
      <point x="173" y="93"/>
      <point x="174" y="109"/>
      <point x="174" y="120" type="curve" smooth="yes"/>
      <point x="174" y="131"/>
      <point x="173" y="148"/>
      <point x="170" y="160" type="curve"/>
      <point x="110" y="160" type="line"/>
    </contour>
    <contour>
      <point x="147" y="-12"/>
      <point x="146" y="-29"/>
      <point x="146" y="-40" type="curve" smooth="yes"/>
      <point x="146" y="-51"/>
      <point x="147" y="-67"/>
      <point x="150" y="-80" type="curve"/>
      <point x="230" y="-80" type="line"/>
      <point x="233" y="-67"/>
      <point x="234" y="-51"/>
      <point x="234" y="-40" type="curve" smooth="yes"/>
      <point x="234" y="-29"/>
      <point x="233" y="-12"/>
      <point x="230" y="0" type="curve"/>
      <point x="150" y="0" type="line"/>
    </contour>
    <contour>
      <point x="67" y="-92"/>
      <point x="66" y="-109"/>
      <point x="66" y="-120" type="curve" smooth="yes"/>
      <point x="66" y="-131"/>
      <point x="67" y="-147"/>
      <point x="70" y="-160" type="curve"/>
      <point x="190" y="-160" type="line"/>
      <point x="193" y="-147"/>
      <point x="194" y="-131"/>
      <point x="194" y="-120" type="curve" smooth="yes"/>
      <point x="194" y="-109"/>
      <point x="193" y="-92"/>
      <point x="190" y="-80" type="curve"/>
      <point x="70" y="-80" type="line"/>
    </contour>
    <contour>
      <point x="200" y="400" type="move" name="top"/>
    </contour>
    <contour>
      <point x="320" y="0" type="move" name="bottom"/>
    </contour>
  </outline>
</glyph>
<glyph name="z" format="1">
  <advance width="400"/>
  <unicode hex="007A"/>
  <outline>
    <contour>
      <point x="57" y="148"/>
      <point x="56" y="131"/>
      <point x="56" y="120" type="curve" smooth="yes"/>
      <point x="56" y="109"/>
      <point x="57" y="93"/>
      <point x="60" y="80" type="curve"/>
      <point x="140" y="80" type="line"/>
      <point x="143" y="93"/>
      <point x="144" y="109"/>
      <point x="144" y="120" type="curve" smooth="yes"/>
      <point x="144" y="131"/>
      <point x="143" y="148"/>
      <point x="140" y="160" type="curve"/>
      <point x="60" y="160" type="line"/>
    </contour>
    <contour>
      <point x="57" y="68"/>
      <point x="56" y="51"/>
      <point x="56" y="40" type="curve" smooth="yes"/>
      <point x="56" y="29"/>
      <point x="57" y="13"/>
      <point x="60" y="0" type="curve"/>
      <point x="220" y="0" type="line"/>
      <point x="223" y="13"/>
      <point x="224" y="29"/>
      <point x="224" y="40" type="curve" smooth="yes"/>
      <point x="224" y="51"/>
      <point x="223" y="68"/>
      <point x="220" y="80" type="curve"/>
      <point x="60" y="80" type="line"/>
    </contour>
    <contour>
      <point x="217" y="68"/>
      <point x="216" y="51"/>
      <point x="216" y="40" type="curve" smooth="yes"/>
      <point x="216" y="29"/>
      <point x="217" y="13"/>
      <point x="220" y="0" type="curve"/>
      <point x="340" y="0" type="line"/>
      <point x="343" y="13"/>
      <point x="344" y="29"/>
      <point x="344" y="40" type="curve" smooth="yes"/>
      <point x="344" y="51"/>
      <point x="343" y="68"/>
      <point x="340" y="80" type="curve"/>
      <point x="220" y="80" type="line"/>
    </contour>
    <contour>
      <point x="137" y="228"/>
      <point x="136" y="211"/>
      <point x="136" y="200" type="curve" smooth="yes"/>
      <point x="136" y="189"/>
      <point x="137" y="173"/>
      <point x="140" y="160" type="curve"/>
      <point x="220" y="160" type="line"/>
      <point x="223" y="173"/>
      <point x="224" y="189"/>
      <point x="224" y="200" type="curve" smooth="yes"/>
      <point x="224" y="211"/>
      <point x="223" y="228"/>
      <point x="220" y="240" type="curve"/>
      <point x="140" y="240" type="line"/>
    </contour>
    <contour>
      <point x="217" y="308"/>
      <point x="216" y="291"/>
      <point x="216" y="280" type="curve" smooth="yes"/>
      <point x="216" y="269"/>
      <point x="217" y="253"/>
      <point x="220" y="240" type="curve"/>
      <point x="300" y="240" type="line"/>
      <point x="303" y="253"/>
      <point x="304" y="269"/>
      <point x="304" y="280" type="curve" smooth="yes"/>
      <point x="304" y="291"/>
      <point x="303" y="308"/>
      <point x="300" y="320" type="curve"/>
      <point x="220" y="320" type="line"/>
    </contour>
    <contour>
      <point x="57" y="388"/>
      <point x="56" y="371"/>
      <point x="56" y="360" type="curve" smooth="yes"/>
      <point x="56" y="349"/>
      <point x="57" y="333"/>
      <point x="60" y="320" type="curve"/>
      <point x="220" y="320" type="line"/>
      <point x="223" y="333"/>
      <point x="224" y="349"/>
      <point x="224" y="360" type="curve" smooth="yes"/>
      <point x="224" y="371"/>
      <point x="223" y="388"/>
      <point x="220" y="400" type="curve"/>
      <point x="60" y="400" type="line"/>
    </contour>
    <contour>
      <point x="217" y="388"/>
      <point x="216" y="371"/>
      <point x="216" y="360" type="curve" smooth="yes"/>
      <point x="216" y="349"/>
      <point x="217" y="333"/>
      <point x="220" y="320" type="curve"/>
      <point x="340" y="320" type="line"/>
      <point x="343" y="333"/>
      <point x="344" y="349"/>
      <point x="344" y="360" type="curve" smooth="yes"/>
      <point x="344" y="371"/>
      <point x="343" y="388"/>
      <point x="340" y="400" type="curve"/>
      <point x="220" y="400" type="line"/>
    </contour>
    <contour>
      <point x="200" y="400" type="move" name="top"/>
    </contour>
    <contour>
      <point x="200" y="0" type="move" name="bottom"/>
    </contour>
  </outline>
</glyph>
<glyph name="sterling" format="1">
  <advance width="400"/>
  <unicode hex="00A3"/>
  <outline>
    <contour>
      <point x="37" y="68"/>
      <point x="36" y="51"/>
      <point x="36" y="40" type="curve" smooth="yes"/>
      <point x="36" y="29"/>
      <point x="37" y="13"/>
      <point x="40" y="0" type="curve"/>
      <point x="140" y="0" type="line"/>
      <point x="143" y="13"/>
      <point x="144" y="29"/>
      <point x="144" y="40" type="curve" smooth="yes"/>
      <point x="144" y="51"/>
      <point x="143" y="68"/>
      <point x="140" y="80" type="curve"/>
      <point x="40" y="80" type="line"/>
    </contour>
    <contour>
      <point x="97" y="148"/>
      <point x="96" y="131"/>
      <point x="96" y="120" type="curve" smooth="yes"/>
      <point x="96" y="109"/>
      <point x="97" y="93"/>
      <point x="100" y="80" type="curve"/>
      <point x="180" y="80" type="line"/>
      <point x="183" y="93"/>
      <point x="184" y="109"/>
      <point x="184" y="120" type="curve" smooth="yes"/>
      <point x="184" y="131"/>
      <point x="183" y="148"/>
      <point x="180" y="160" type="curve"/>
      <point x="100" y="160" type="line"/>
    </contour>
    <contour>
      <point x="97" y="228"/>
      <point x="96" y="211"/>
      <point x="96" y="200" type="curve" smooth="yes"/>
      <point x="96" y="189"/>
      <point x="97" y="173"/>
      <point x="100" y="160" type="curve"/>
      <point x="180" y="160" type="line"/>
      <point x="183" y="173"/>
      <point x="184" y="189"/>
      <point x="184" y="200" type="curve" smooth="yes"/>
      <point x="184" y="211"/>
      <point x="183" y="228"/>
      <point x="180" y="240" type="curve"/>
      <point x="100" y="240" type="line"/>
    </contour>
    <contour>
      <point x="97" y="388"/>
      <point x="96" y="371"/>
      <point x="96" y="360" type="curve" smooth="yes"/>
      <point x="96" y="349"/>
      <point x="97" y="333"/>
      <point x="100" y="320" type="curve"/>
      <point x="180" y="320" type="line"/>
      <point x="183" y="333"/>
      <point x="184" y="349"/>
      <point x="184" y="360" type="curve" smooth="yes"/>
      <point x="184" y="371"/>
      <point x="183" y="388"/>
      <point x="180" y="400" type="curve"/>
      <point x="100" y="400" type="line"/>
    </contour>
    <contour>
      <point x="97" y="468"/>
      <point x="96" y="451"/>
      <point x="96" y="440" type="curve" smooth="yes"/>
      <point x="96" y="429"/>
      <point x="97" y="413"/>
      <point x="100" y="400" type="curve"/>
      <point x="180" y="400" type="line"/>
      <point x="183" y="413"/>
      <point x="184" y="429"/>
      <point x="184" y="440" type="curve" smooth="yes"/>
      <point x="184" y="451"/>
      <point x="183" y="468"/>
      <point x="180" y="480" type="curve"/>
      <point x="100" y="480" type="line"/>
    </contour>
    <contour>
      <point x="137" y="548"/>
      <point x="136" y="531"/>
      <point x="136" y="520" type="curve" smooth="yes"/>
      <point x="136" y="509"/>
      <point x="137" y="493"/>
      <point x="140" y="480" type="curve"/>
      <point x="300" y="480" type="line"/>
      <point x="303" y="493"/>
      <point x="304" y="509"/>
      <point x="304" y="520" type="curve" smooth="yes"/>
      <point x="304" y="531"/>
      <point x="303" y="548"/>
      <point x="300" y="560" type="curve"/>
      <point x="140" y="560" type="line"/>
    </contour>
    <contour>
      <point x="37" y="308"/>
      <point x="36" y="291"/>
      <point x="36" y="280" type="curve" smooth="yes"/>
      <point x="36" y="269"/>
      <point x="37" y="253"/>
      <point x="40" y="240" type="curve"/>
      <point x="180" y="240" type="line"/>
      <point x="183" y="253"/>
      <point x="184" y="269"/>
      <point x="184" y="280" type="curve" smooth="yes"/>
      <point x="184" y="291"/>
      <point x="183" y="308"/>
      <point x="180" y="320" type="curve"/>
      <point x="40" y="320" type="line"/>
    </contour>
    <contour>
      <point x="177" y="308"/>
      <point x="176" y="291"/>
      <point x="176" y="280" type="curve" smooth="yes"/>
      <point x="176" y="269"/>
      <point x="177" y="253"/>
      <point x="180" y="240" type="curve"/>
      <point x="240" y="240" type="line"/>
      <point x="243" y="253"/>
      <point x="244" y="269"/>
      <point x="244" y="280" type="curve" smooth="yes"/>
      <point x="244" y="291"/>
      <point x="243" y="308"/>
      <point x="240" y="320" type="curve"/>
      <point x="180" y="320" type="line"/>
    </contour>
    <contour>
      <point x="177" y="68"/>
      <point x="176" y="51"/>
      <point x="176" y="40" type="curve" smooth="yes"/>
      <point x="176" y="29"/>
      <point x="177" y="13"/>
      <point x="180" y="0" type="curve"/>
      <point x="340" y="0" type="line"/>
      <point x="343" y="13"/>
      <point x="344" y="29"/>
      <point x="344" y="40" type="curve" smooth="yes"/>
      <point x="344" y="51"/>
      <point x="343" y="68"/>
      <point x="340" y="80" type="curve"/>
      <point x="180" y="80" type="line"/>
    </contour>
    <contour>
      <point x="297" y="148"/>
      <point x="296" y="131"/>
      <point x="296" y="120" type="curve" smooth="yes"/>
      <point x="296" y="109"/>
      <point x="297" y="93"/>
      <point x="300" y="80" type="curve"/>
      <point x="360" y="80" type="line"/>
      <point x="363" y="93"/>
      <point x="364" y="109"/>
      <point x="364" y="120" type="curve" smooth="yes"/>
      <point x="364" y="131"/>
      <point x="363" y="148"/>
      <point x="360" y="160" type="curve"/>
      <point x="300" y="160" type="line"/>
    </contour>
    <contour>
      <point x="277" y="468"/>
      <point x="276" y="451"/>
      <point x="276" y="440" type="curve" smooth="yes"/>
      <point x="276" y="429"/>
      <point x="277" y="413"/>
      <point x="280" y="400" type="curve"/>
      <point x="340" y="400" type="line"/>
      <point x="343" y="413"/>
      <point x="344" y="429"/>
      <point x="344" y="440" type="curve" smooth="yes"/>
      <point x="344" y="451"/>
      <point x="343" y="468"/>
      <point x="340" y="480" type="curve"/>
      <point x="280" y="480" type="line"/>
    </contour>
  </outline>
</glyph>
<glyph name="section" format="1">
  <advance width="400"/>
  <unicode hex="00A7"/>
  <outline>
    <contour>
      <point x="57" y="468"/>
      <point x="56" y="451"/>
      <point x="56" y="440" type="curve" smooth="yes"/>
      <point x="56" y="429"/>
      <point x="57" y="413"/>
      <point x="60" y="400" type="curve"/>
      <point x="140" y="400" type="line"/>
      <point x="143" y="413"/>
      <point x="144" y="429"/>
      <point x="144" y="440" type="curve" smooth="yes"/>
      <point x="144" y="451"/>
      <point x="143" y="468"/>
      <point x="140" y="480" type="curve"/>
      <point x="60" y="480" type="line"/>
    </contour>
    <contour>
      <point x="217" y="548"/>
      <point x="216" y="531"/>
      <point x="216" y="520" type="curve" smooth="yes"/>
      <point x="216" y="509"/>
      <point x="217" y="493"/>
      <point x="220" y="480" type="curve"/>
      <point x="330" y="480" type="line"/>
      <point x="333" y="493"/>
      <point x="334" y="509"/>
      <point x="334" y="520" type="curve" smooth="yes"/>
      <point x="334" y="531"/>
      <point x="333" y="548"/>
      <point x="330" y="560" type="curve"/>
      <point x="220" y="560" type="line"/>
    </contour>
    <contour>
      <point x="97" y="548"/>
      <point x="96" y="531"/>
      <point x="96" y="520" type="curve" smooth="yes"/>
      <point x="96" y="509"/>
      <point x="97" y="493"/>
      <point x="100" y="480" type="curve"/>
      <point x="220" y="480" type="line"/>
      <point x="223" y="493"/>
      <point x="224" y="509"/>
      <point x="224" y="520" type="curve" smooth="yes"/>
      <point x="224" y="531"/>
      <point x="223" y="548"/>
      <point x="220" y="560" type="curve"/>
      <point x="100" y="560" type="line"/>
    </contour>
    <contour>
      <point x="97" y="388"/>
      <point x="96" y="371"/>
      <point x="96" y="360" type="curve" smooth="yes"/>
      <point x="96" y="349"/>
      <point x="97" y="333"/>
      <point x="100" y="320" type="curve"/>
      <point x="260" y="320" type="line"/>
      <point x="263" y="333"/>
      <point x="264" y="349"/>
      <point x="264" y="360" type="curve" smooth="yes"/>
      <point x="264" y="371"/>
      <point x="263" y="388"/>
      <point x="260" y="400" type="curve"/>
      <point x="100" y="400" type="line"/>
    </contour>
    <contour>
      <point x="67" y="308"/>
      <point x="66" y="291"/>
      <point x="66" y="280" type="curve" smooth="yes"/>
      <point x="66" y="269"/>
      <point x="67" y="253"/>
      <point x="70" y="240" type="curve"/>
      <point x="130" y="240" type="line"/>
      <point x="133" y="253"/>
      <point x="134" y="269"/>
      <point x="134" y="280" type="curve" smooth="yes"/>
      <point x="134" y="291"/>
      <point x="133" y="308"/>
      <point x="130" y="320" type="curve"/>
      <point x="70" y="320" type="line"/>
    </contour>
    <contour>
      <point x="67" y="228"/>
      <point x="66" y="211"/>
      <point x="66" y="200" type="curve" smooth="yes"/>
      <point x="66" y="189"/>
      <point x="67" y="173"/>
      <point x="70" y="160" type="curve"/>
      <point x="170" y="160" type="line"/>
      <point x="173" y="173"/>
      <point x="174" y="189"/>
      <point x="174" y="200" type="curve" smooth="yes"/>
      <point x="174" y="211"/>
      <point x="173" y="228"/>
      <point x="170" y="240" type="curve"/>
      <point x="70" y="240" type="line"/>
    </contour>
    <contour>
      <point x="227" y="308"/>
      <point x="226" y="291"/>
      <point x="226" y="280" type="curve" smooth="yes"/>
      <point x="226" y="269"/>
      <point x="227" y="253"/>
      <point x="230" y="240" type="curve"/>
      <point x="330" y="240" type="line"/>
      <point x="333" y="253"/>
      <point x="334" y="269"/>
      <point x="334" y="280" type="curve" smooth="yes"/>
      <point x="334" y="291"/>
      <point x="333" y="308"/>
      <point x="330" y="320" type="curve"/>
      <point x="230" y="320" type="line"/>
    </contour>
    <contour>
      <point x="267" y="228"/>
      <point x="266" y="211"/>
      <point x="266" y="200" type="curve" smooth="yes"/>
      <point x="266" y="189"/>
      <point x="267" y="173"/>
      <point x="270" y="160" type="curve"/>
      <point x="330" y="160" type="line"/>
      <point x="333" y="173"/>
      <point x="334" y="189"/>
      <point x="334" y="200" type="curve" smooth="yes"/>
      <point x="334" y="211"/>
      <point x="333" y="228"/>
      <point x="330" y="240" type="curve"/>
      <point x="270" y="240" type="line"/>
    </contour>
    <contour>
      <point x="177" y="-12"/>
      <point x="176" y="-29"/>
      <point x="176" y="-40" type="curve" smooth="yes"/>
      <point x="176" y="-51"/>
      <point x="177" y="-67"/>
      <point x="180" y="-80" type="curve"/>
      <point x="300" y="-80" type="line"/>
      <point x="303" y="-67"/>
      <point x="304" y="-51"/>
      <point x="304" y="-40" type="curve" smooth="yes"/>
      <point x="304" y="-29"/>
      <point x="303" y="-12"/>
      <point x="300" y="0" type="curve"/>
      <point x="180" y="0" type="line"/>
    </contour>
    <contour>
      <point x="67" y="-12"/>
      <point x="66" y="-29"/>
      <point x="66" y="-40" type="curve" smooth="yes"/>
      <point x="66" y="-51"/>
      <point x="67" y="-67"/>
      <point x="70" y="-80" type="curve"/>
      <point x="180" y="-80" type="line"/>
      <point x="183" y="-67"/>
      <point x="184" y="-51"/>
      <point x="184" y="-40" type="curve" smooth="yes"/>
      <point x="184" y="-29"/>
      <point x="183" y="-12"/>
      <point x="180" y="0" type="curve"/>
      <point x="70" y="0" type="line"/>
    </contour>
    <contour>
      <point x="257" y="68"/>
      <point x="256" y="51"/>
      <point x="256" y="40" type="curve" smooth="yes"/>
      <point x="256" y="29"/>
      <point x="257" y="13"/>
      <point x="260" y="0" type="curve"/>
      <point x="340" y="0" type="line"/>
      <point x="343" y="13"/>
      <point x="344" y="29"/>
      <point x="344" y="40" type="curve" smooth="yes"/>
      <point x="344" y="51"/>
      <point x="343" y="68"/>
      <point x="340" y="80" type="curve"/>
      <point x="260" y="80" type="line"/>
    </contour>
    <contour>
      <point x="137" y="148"/>
      <point x="136" y="131"/>
      <point x="136" y="120" type="curve" smooth="yes"/>
      <point x="136" y="109"/>
      <point x="137" y="93"/>
      <point x="140" y="80" type="curve"/>
      <point x="300" y="80" type="line"/>
      <point x="303" y="93"/>
      <point x="304" y="109"/>
      <point x="304" y="120" type="curve" smooth="yes"/>
      <point x="304" y="131"/>
      <point x="303" y="148"/>
      <point x="300" y="160" type="curve"/>
      <point x="140" y="160" type="line"/>
    </contour>
  </outline>
</glyph>
<glyph name="copyright" format="1">
  <advance width="400"/>
  <unicode hex="00A9"/>
  <outline>
    <contour>
      <point x="67" y="548"/>
      <point x="66" y="531"/>
      <point x="66" y="520" type="curve" smooth="yes"/>
      <point x="66" y="509"/>
      <point x="67" y="493"/>
      <point x="70" y="480" type="curve"/>
      <point x="120" y="480" type="line"/>
      <point x="123" y="493"/>
      <point x="124" y="509"/>
      <point x="124" y="520" type="curve" smooth="yes"/>
      <point x="124" y="531"/>
      <point x="123" y="548"/>
      <point x="120" y="560" type="curve"/>
      <point x="70" y="560" type="line"/>
    </contour>
    <contour>
      <point x="117" y="628"/>
      <point x="116" y="611"/>
      <point x="116" y="600" type="curve" smooth="yes"/>
      <point x="116" y="589"/>
      <point x="117" y="573"/>
      <point x="120" y="560" type="curve"/>
      <point x="280" y="560" type="line"/>
      <point x="283" y="573"/>
      <point x="284" y="589"/>
      <point x="284" y="600" type="curve" smooth="yes"/>
      <point x="284" y="611"/>
      <point x="283" y="628"/>
      <point x="280" y="640" type="curve"/>
      <point x="120" y="640" type="line"/>
    </contour>
    <contour>
      <point x="277" y="548"/>
      <point x="276" y="531"/>
      <point x="276" y="520" type="curve" smooth="yes"/>
      <point x="276" y="509"/>
      <point x="277" y="493"/>
      <point x="280" y="480" type="curve"/>
      <point x="330" y="480" type="line"/>
      <point x="333" y="493"/>
      <point x="334" y="509"/>
      <point x="334" y="520" type="curve" smooth="yes"/>
      <point x="334" y="531"/>
      <point x="333" y="548"/>
      <point x="330" y="560" type="curve"/>
      <point x="280" y="560" type="line"/>
    </contour>
    <contour>
      <point x="67" y="68"/>
      <point x="66" y="51"/>
      <point x="66" y="40" type="curve" smooth="yes"/>
      <point x="66" y="29"/>
      <point x="67" y="13"/>
      <point x="70" y="0" type="curve"/>
      <point x="120" y="0" type="line"/>
      <point x="123" y="13"/>
      <point x="124" y="29"/>
      <point x="124" y="40" type="curve" smooth="yes"/>
      <point x="124" y="51"/>
      <point x="123" y="68"/>
      <point x="120" y="80" type="curve"/>
      <point x="70" y="80" type="line"/>
    </contour>
    <contour>
      <point x="277" y="68"/>
      <point x="276" y="51"/>
      <point x="276" y="40" type="curve" smooth="yes"/>
      <point x="276" y="29"/>
      <point x="277" y="13"/>
      <point x="280" y="0" type="curve"/>
      <point x="330" y="0" type="line"/>
      <point x="333" y="13"/>
      <point x="334" y="29"/>
      <point x="334" y="40" type="curve" smooth="yes"/>
      <point x="334" y="51"/>
      <point x="333" y="68"/>
      <point x="330" y="80" type="curve"/>
      <point x="280" y="80" type="line"/>
    </contour>
    <contour>
      <point x="117" y="-12"/>
      <point x="116" y="-29"/>
      <point x="116" y="-40" type="curve" smooth="yes"/>
      <point x="116" y="-51"/>
      <point x="117" y="-67"/>
      <point x="120" y="-80" type="curve"/>
      <point x="280" y="-80" type="line"/>
      <point x="283" y="-67"/>
      <point x="284" y="-51"/>
      <point x="284" y="-40" type="curve" smooth="yes"/>
      <point x="284" y="-29"/>
      <point x="283" y="-12"/>
      <point x="280" y="0" type="curve"/>
      <point x="120" y="0" type="line"/>
    </contour>
    <contour>
      <point x="37" y="388"/>
      <point x="36" y="371"/>
      <point x="36" y="360" type="curve" smooth="yes"/>
      <point x="36" y="349"/>
      <point x="37" y="333"/>
      <point x="40" y="320" type="curve"/>
      <point x="90" y="320" type="line"/>
      <point x="93" y="333"/>
      <point x="94" y="349"/>
      <point x="94" y="360" type="curve" smooth="yes"/>
      <point x="94" y="371"/>
      <point x="93" y="388"/>
      <point x="90" y="400" type="curve"/>
      <point x="40" y="400" type="line"/>
    </contour>
    <contour>
      <point x="37" y="308"/>
      <point x="36" y="291"/>
      <point x="36" y="280" type="curve" smooth="yes"/>
      <point x="36" y="269"/>
      <point x="37" y="253"/>
      <point x="40" y="240" type="curve"/>
      <point x="90" y="240" type="line"/>
      <point x="93" y="253"/>
      <point x="94" y="269"/>
      <point x="94" y="280" type="curve" smooth="yes"/>
      <point x="94" y="291"/>
      <point x="93" y="308"/>
      <point x="90" y="320" type="curve"/>
      <point x="40" y="320" type="line"/>
    </contour>
    <contour>
      <point x="37" y="228"/>
      <point x="36" y="211"/>
      <point x="36" y="200" type="curve" smooth="yes"/>
      <point x="36" y="189"/>
      <point x="37" y="173"/>
      <point x="40" y="160" type="curve"/>
      <point x="90" y="160" type="line"/>
      <point x="93" y="173"/>
      <point x="94" y="189"/>
      <point x="94" y="200" type="curve" smooth="yes"/>
      <point x="94" y="211"/>
      <point x="93" y="228"/>
      <point x="90" y="240" type="curve"/>
      <point x="40" y="240" type="line"/>
    </contour>
    <contour>
      <point x="307" y="388"/>
      <point x="306" y="371"/>
      <point x="306" y="360" type="curve" smooth="yes"/>
      <point x="306" y="349"/>
      <point x="307" y="333"/>
      <point x="310" y="320" type="curve"/>
      <point x="360" y="320" type="line"/>
      <point x="363" y="333"/>
      <point x="364" y="349"/>
      <point x="364" y="360" type="curve" smooth="yes"/>
      <point x="364" y="371"/>
      <point x="363" y="388"/>
      <point x="360" y="400" type="curve"/>
      <point x="310" y="400" type="line"/>
    </contour>
    <contour>
      <point x="307" y="308"/>
      <point x="306" y="291"/>
      <point x="306" y="280" type="curve" smooth="yes"/>
      <point x="306" y="269"/>
      <point x="307" y="253"/>
      <point x="310" y="240" type="curve"/>
      <point x="360" y="240" type="line"/>
      <point x="363" y="253"/>
      <point x="364" y="269"/>
      <point x="364" y="280" type="curve" smooth="yes"/>
      <point x="364" y="291"/>
      <point x="363" y="308"/>
      <point x="360" y="320" type="curve"/>
      <point x="310" y="320" type="line"/>
    </contour>
    <contour>
      <point x="307" y="228"/>
      <point x="306" y="211"/>
      <point x="306" y="200" type="curve" smooth="yes"/>
      <point x="306" y="189"/>
      <point x="307" y="173"/>
      <point x="310" y="160" type="curve"/>
      <point x="360" y="160" type="line"/>
      <point x="363" y="173"/>
      <point x="364" y="189"/>
      <point x="364" y="200" type="curve" smooth="yes"/>
      <point x="364" y="211"/>
      <point x="363" y="228"/>
      <point x="360" y="240" type="curve"/>
      <point x="310" y="240" type="line"/>
    </contour>
    <contour>
      <point x="132" y="308"/>
      <point x="131" y="291"/>
      <point x="131" y="280" type="curve" smooth="yes"/>
      <point x="131" y="269"/>
      <point x="132" y="253"/>
      <point x="135" y="240" type="curve"/>
      <point x="185" y="240" type="line"/>
      <point x="188" y="253"/>
      <point x="189" y="269"/>
      <point x="189" y="280" type="curve" smooth="yes"/>
      <point x="189" y="291"/>
      <point x="188" y="308"/>
      <point x="185" y="320" type="curve"/>
      <point x="135" y="320" type="line"/>
    </contour>
    <contour>
      <point x="147" y="468"/>
      <point x="146" y="451"/>
      <point x="146" y="440" type="curve" smooth="yes"/>
      <point x="146" y="429"/>
      <point x="147" y="413"/>
      <point x="150" y="400" type="curve"/>
      <point x="250" y="400" type="line"/>
      <point x="253" y="413"/>
      <point x="254" y="429"/>
      <point x="254" y="440" type="curve" smooth="yes"/>
      <point x="254" y="451"/>
      <point x="253" y="468"/>
      <point x="250" y="480" type="curve"/>
      <point x="150" y="480" type="line"/>
    </contour>
    <contour>
      <point x="147" y="148"/>
      <point x="146" y="131"/>
      <point x="146" y="120" type="curve" smooth="yes"/>
      <point x="146" y="109"/>
      <point x="147" y="93"/>
      <point x="150" y="80" type="curve"/>
      <point x="250" y="80" type="line"/>
      <point x="253" y="93"/>
      <point x="254" y="109"/>
      <point x="254" y="120" type="curve" smooth="yes"/>
      <point x="254" y="131"/>
      <point x="253" y="148"/>
      <point x="250" y="160" type="curve"/>
      <point x="150" y="160" type="line"/>
    </contour>
    <contour>
      <point x="37" y="148"/>
      <point x="36" y="131"/>
      <point x="36" y="120" type="curve" smooth="yes"/>
      <point x="36" y="109"/>
      <point x="37" y="93"/>
      <point x="40" y="80" type="curve"/>
      <point x="90" y="80" type="line"/>
      <point x="93" y="93"/>
      <point x="94" y="109"/>
      <point x="94" y="120" type="curve" smooth="yes"/>
      <point x="94" y="131"/>
      <point x="93" y="148"/>
      <point x="90" y="160" type="curve"/>
      <point x="40" y="160" type="line"/>
    </contour>
    <contour>
      <point x="307" y="148"/>
      <point x="306" y="131"/>
      <point x="306" y="120" type="curve" smooth="yes"/>
      <point x="306" y="109"/>
      <point x="307" y="93"/>
      <point x="310" y="80" type="curve"/>
      <point x="360" y="80" type="line"/>
      <point x="363" y="93"/>
      <point x="364" y="109"/>
      <point x="364" y="120" type="curve" smooth="yes"/>
      <point x="364" y="131"/>
      <point x="363" y="148"/>
      <point x="360" y="160" type="curve"/>
      <point x="310" y="160" type="line"/>
    </contour>
    <contour>
      <point x="37" y="468"/>
      <point x="36" y="451"/>
      <point x="36" y="440" type="curve" smooth="yes"/>
      <point x="36" y="429"/>
      <point x="37" y="413"/>
      <point x="40" y="400" type="curve"/>
      <point x="90" y="400" type="line"/>
      <point x="93" y="413"/>
      <point x="94" y="429"/>
      <point x="94" y="440" type="curve" smooth="yes"/>
      <point x="94" y="451"/>
      <point x="93" y="468"/>
      <point x="90" y="480" type="curve"/>
      <point x="40" y="480" type="line"/>
    </contour>
    <contour>
      <point x="307" y="468"/>
      <point x="306" y="451"/>
      <point x="306" y="440" type="curve" smooth="yes"/>
      <point x="306" y="429"/>
      <point x="307" y="413"/>
      <point x="310" y="400" type="curve"/>
      <point x="360" y="400" type="line"/>
      <point x="363" y="413"/>
      <point x="364" y="429"/>
      <point x="364" y="440" type="curve" smooth="yes"/>
      <point x="364" y="451"/>
      <point x="363" y="468"/>
      <point x="360" y="480" type="curve"/>
      <point x="310" y="480" type="line"/>
    </contour>
    <contour>
      <point x="132" y="228"/>
      <point x="131" y="211"/>
      <point x="131" y="200" type="curve" smooth="yes"/>
      <point x="131" y="189"/>
      <point x="132" y="173"/>
      <point x="135" y="160" type="curve"/>
      <point x="185" y="160" type="line"/>
      <point x="188" y="173"/>
      <point x="189" y="189"/>
      <point x="189" y="200" type="curve" smooth="yes"/>
      <point x="189" y="211"/>
      <point x="188" y="228"/>
      <point x="185" y="240" type="curve"/>
      <point x="135" y="240" type="line"/>
    </contour>
    <contour>
      <point x="132" y="388"/>
      <point x="131" y="371"/>
      <point x="131" y="360" type="curve" smooth="yes"/>
      <point x="131" y="349"/>
      <point x="132" y="333"/>
      <point x="135" y="320" type="curve"/>
      <point x="185" y="320" type="line"/>
      <point x="188" y="333"/>
      <point x="189" y="349"/>
      <point x="189" y="360" type="curve" smooth="yes"/>
      <point x="189" y="371"/>
      <point x="188" y="388"/>
      <point x="185" y="400" type="curve"/>
      <point x="135" y="400" type="line"/>
    </contour>
  </outline>
</glyph>
<glyph name="ordfeminine" format="1">
  <advance width="400"/>
  <unicode hex="00AA"/>
  <outline>
    <contour>
      <point x="87" y="308"/>
      <point x="86" y="291"/>
      <point x="86" y="280" type="curve" smooth="yes"/>
      <point x="86" y="269"/>
      <point x="87" y="253"/>
      <point x="90" y="240" type="curve"/>
      <point x="150" y="240" type="line"/>
      <point x="153" y="253"/>
      <point x="154" y="269"/>
      <point x="154" y="280" type="curve" smooth="yes"/>
      <point x="154" y="291"/>
      <point x="153" y="308"/>
      <point x="150" y="320" type="curve"/>
      <point x="90" y="320" type="line"/>
    </contour>
    <contour>
      <point x="137" y="548"/>
      <point x="136" y="531"/>
      <point x="136" y="520" type="curve" smooth="yes"/>
      <point x="136" y="509"/>
      <point x="137" y="493"/>
      <point x="140" y="480" type="curve"/>
      <point x="280" y="480" type="line"/>
      <point x="283" y="493"/>
      <point x="284" y="509"/>
      <point x="284" y="520" type="curve" smooth="yes"/>
      <point x="284" y="531"/>
      <point x="283" y="548"/>
      <point x="280" y="560" type="curve"/>
      <point x="140" y="560" type="line"/>
    </contour>
    <contour>
      <point x="117" y="388"/>
      <point x="116" y="371"/>
      <point x="116" y="360" type="curve" smooth="yes"/>
      <point x="116" y="349"/>
      <point x="117" y="333"/>
      <point x="120" y="320" type="curve"/>
      <point x="250" y="320" type="line"/>
      <point x="253" y="333"/>
      <point x="254" y="349"/>
      <point x="254" y="360" type="curve" smooth="yes"/>
      <point x="254" y="371"/>
      <point x="253" y="388"/>
      <point x="250" y="400" type="curve"/>
      <point x="120" y="400" type="line"/>
    </contour>
    <contour>
      <point x="247" y="308"/>
      <point x="246" y="291"/>
      <point x="246" y="280" type="curve" smooth="yes"/>
      <point x="246" y="269"/>
      <point x="247" y="253"/>
      <point x="250" y="240" type="curve"/>
      <point x="310" y="240" type="line"/>
      <point x="313" y="253"/>
      <point x="314" y="269"/>
      <point x="314" y="280" type="curve" smooth="yes"/>
      <point x="314" y="291"/>
      <point x="313" y="308"/>
      <point x="310" y="320" type="curve"/>
      <point x="250" y="320" type="line"/>
    </contour>
    <contour>
      <point x="247" y="388"/>
      <point x="246" y="371"/>
      <point x="246" y="360" type="curve" smooth="yes"/>
      <point x="246" y="349"/>
      <point x="247" y="333"/>
      <point x="250" y="320" type="curve"/>
      <point x="310" y="320" type="line"/>
      <point x="313" y="333"/>
      <point x="314" y="349"/>
      <point x="314" y="360" type="curve" smooth="yes"/>
      <point x="314" y="371"/>
      <point x="313" y="388"/>
      <point x="310" y="400" type="curve"/>
      <point x="250" y="400" type="line"/>
    </contour>
    <contour>
      <point x="247" y="468"/>
      <point x="246" y="451"/>
      <point x="246" y="440" type="curve" smooth="yes"/>
      <point x="246" y="429"/>
      <point x="247" y="413"/>
      <point x="250" y="400" type="curve"/>
      <point x="310" y="400" type="line"/>
      <point x="313" y="413"/>
      <point x="314" y="429"/>
      <point x="314" y="440" type="curve" smooth="yes"/>
      <point x="314" y="451"/>
      <point x="313" y="468"/>
      <point x="310" y="480" type="curve"/>
      <point x="250" y="480" type="line"/>
    </contour>
    <contour>
      <point x="117" y="228"/>
      <point x="116" y="211"/>
      <point x="116" y="200" type="curve" smooth="yes"/>
      <point x="116" y="189"/>
      <point x="117" y="173"/>
      <point x="120" y="160" type="curve"/>
      <point x="250" y="160" type="line"/>
      <point x="253" y="173"/>
      <point x="254" y="189"/>
      <point x="254" y="200" type="curve" smooth="yes"/>
      <point x="254" y="211"/>
      <point x="253" y="228"/>
      <point x="250" y="240" type="curve"/>
      <point x="120" y="240" type="line"/>
    </contour>
    <contour>
      <point x="247" y="228"/>
      <point x="246" y="211"/>
      <point x="246" y="200" type="curve" smooth="yes"/>
      <point x="246" y="189"/>
      <point x="247" y="173"/>
      <point x="250" y="160" type="curve"/>
      <point x="310" y="160" type="line"/>
      <point x="313" y="173"/>
      <point x="314" y="189"/>
      <point x="314" y="200" type="curve" smooth="yes"/>
      <point x="314" y="211"/>
      <point x="313" y="228"/>
      <point x="310" y="240" type="curve"/>
      <point x="250" y="240" type="line"/>
    </contour>
    <contour>
      <point x="87" y="68"/>
      <point x="86" y="51"/>
      <point x="86" y="40" type="curve" smooth="yes"/>
      <point x="86" y="29"/>
      <point x="87" y="13"/>
      <point x="90" y="0" type="curve"/>
      <point x="220" y="0" type="line"/>
      <point x="223" y="13"/>
      <point x="224" y="29"/>
      <point x="224" y="40" type="curve" smooth="yes"/>
      <point x="224" y="51"/>
      <point x="223" y="68"/>
      <point x="220" y="80" type="curve"/>
      <point x="90" y="80" type="line"/>
    </contour>
    <contour>
      <point x="217" y="68"/>
      <point x="216" y="51"/>
      <point x="216" y="40" type="curve" smooth="yes"/>
      <point x="216" y="29"/>
      <point x="217" y="13"/>
      <point x="220" y="0" type="curve"/>
      <point x="310" y="0" type="line"/>
      <point x="313" y="13"/>
      <point x="314" y="29"/>
      <point x="314" y="40" type="curve" smooth="yes"/>
      <point x="314" y="51"/>
      <point x="313" y="68"/>
      <point x="310" y="80" type="curve"/>
      <point x="220" y="80" type="line"/>
    </contour>
  </outline>
</glyph>
<glyph name="twosuperior" format="1">
  <advance width="400"/>
  <unicode hex="00B2"/>
  <outline>
    <contour>
      <point x="187" y="468"/>
      <point x="186" y="451"/>
      <point x="186" y="440" type="curve" smooth="yes"/>
      <point x="186" y="429"/>
      <point x="187" y="413"/>
      <point x="190" y="400" type="curve"/>
      <point x="250" y="400" type="line"/>
      <point x="253" y="413"/>
      <point x="254" y="429"/>
      <point x="254" y="440" type="curve" smooth="yes"/>
      <point x="254" y="451"/>
      <point x="253" y="468"/>
      <point x="250" y="480" type="curve"/>
      <point x="190" y="480" type="line"/>
    </contour>
    <contour>
      <point x="217" y="548"/>
      <point x="216" y="531"/>
      <point x="216" y="520" type="curve" smooth="yes"/>
      <point x="216" y="509"/>
      <point x="217" y="493"/>
      <point x="220" y="480" type="curve"/>
      <point x="280" y="480" type="line"/>
      <point x="283" y="493"/>
      <point x="284" y="509"/>
      <point x="284" y="520" type="curve" smooth="yes"/>
      <point x="284" y="531"/>
      <point x="283" y="548"/>
      <point x="280" y="560" type="curve"/>
      <point x="220" y="560" type="line"/>
    </contour>
    <contour>
      <point x="157" y="388"/>
      <point x="156" y="371"/>
      <point x="156" y="360" type="curve" smooth="yes"/>
      <point x="156" y="349"/>
      <point x="157" y="333"/>
      <point x="160" y="320" type="curve"/>
      <point x="220" y="320" type="line"/>
      <point x="223" y="333"/>
      <point x="224" y="349"/>
      <point x="224" y="360" type="curve" smooth="yes"/>
      <point x="224" y="371"/>
      <point x="223" y="388"/>
      <point x="220" y="400" type="curve"/>
      <point x="160" y="400" type="line"/>
    </contour>
    <contour>
      <point x="117" y="308"/>
      <point x="116" y="291"/>
      <point x="116" y="280" type="curve" smooth="yes"/>
      <point x="116" y="269"/>
      <point x="117" y="253"/>
      <point x="120" y="240" type="curve"/>
      <point x="280" y="240" type="line"/>
      <point x="283" y="253"/>
      <point x="284" y="269"/>
      <point x="284" y="280" type="curve" smooth="yes"/>
      <point x="284" y="291"/>
      <point x="283" y="308"/>
      <point x="280" y="320" type="curve"/>
      <point x="120" y="320" type="line"/>
    </contour>
    <contour>
      <point x="117" y="628"/>
      <point x="116" y="611"/>
      <point x="116" y="600" type="curve" smooth="yes"/>
      <point x="116" y="589"/>
      <point x="117" y="573"/>
      <point x="120" y="560" type="curve"/>
      <point x="250" y="560" type="line"/>
      <point x="253" y="573"/>
      <point x="254" y="589"/>
      <point x="254" y="600" type="curve" smooth="yes"/>
      <point x="254" y="611"/>
      <point x="253" y="628"/>
      <point x="250" y="640" type="curve"/>
      <point x="120" y="640" type="line"/>
    </contour>
  </outline>
</glyph>
<glyph name="cedilla" format="1">
  <advance width="400"/>
  <unicode hex="00B8"/>
  <outline>
    <contour>
      <point x="147" y="-92"/>
      <point x="146" y="-109"/>
      <point x="146" y="-120" type="curve" smooth="yes"/>
      <point x="146" y="-131"/>
      <point x="147" y="-147"/>
      <point x="150" y="-160" type="curve"/>
      <point x="230" y="-160" type="line"/>
      <point x="233" y="-147"/>
      <point x="234" y="-131"/>
      <point x="234" y="-120" type="curve" smooth="yes"/>
      <point x="234" y="-109"/>
      <point x="233" y="-92"/>
      <point x="230" y="-80" type="curve"/>
      <point x="150" y="-80" type="line"/>
    </contour>
    <contour>
      <point x="197" y="-12"/>
      <point x="196" y="-29"/>
      <point x="196" y="-40" type="curve" smooth="yes"/>
      <point x="196" y="-51"/>
      <point x="197" y="-67"/>
      <point x="200" y="-80" type="curve"/>
      <point x="260" y="-80" type="line"/>
      <point x="263" y="-67"/>
      <point x="264" y="-51"/>
      <point x="264" y="-40" type="curve" smooth="yes"/>
      <point x="264" y="-29"/>
      <point x="263" y="-12"/>
      <point x="260" y="0" type="curve"/>
      <point x="200" y="0" type="line"/>
    </contour>
    <contour>
      <point x="200" y="0" type="move" name="_bottom"/>
    </contour>
    <contour>
      <point x="200" y="-160" type="move" name="bottom"/>
    </contour>
  </outline>
</glyph>
<glyph name="onesuperior" format="1">
  <advance width="400"/>
  <unicode hex="00B9"/>
  <outline>
    <contour>
      <point x="127" y="548"/>
      <point x="126" y="531"/>
      <point x="126" y="520" type="curve" smooth="yes"/>
      <point x="126" y="509"/>
      <point x="127" y="493"/>
      <point x="130" y="480" type="curve"/>
      <point x="230" y="480" type="line"/>
      <point x="233" y="493"/>
      <point x="234" y="509"/>
      <point x="234" y="520" type="curve" smooth="yes"/>
      <point x="234" y="531"/>
      <point x="233" y="548"/>
      <point x="230" y="560" type="curve"/>
      <point x="130" y="560" type="line"/>
    </contour>
    <contour>
      <point x="167" y="628"/>
      <point x="166" y="611"/>
      <point x="166" y="600" type="curve" smooth="yes"/>
      <point x="166" y="589"/>
      <point x="167" y="573"/>
      <point x="170" y="560" type="curve"/>
      <point x="230" y="560" type="line"/>
      <point x="233" y="573"/>
      <point x="234" y="589"/>
      <point x="234" y="600" type="curve" smooth="yes"/>
      <point x="234" y="611"/>
      <point x="233" y="628"/>
      <point x="230" y="640" type="curve"/>
      <point x="170" y="640" type="line"/>
    </contour>
    <contour>
      <point x="167" y="468"/>
      <point x="166" y="451"/>
      <point x="166" y="440" type="curve" smooth="yes"/>
      <point x="166" y="429"/>
      <point x="167" y="413"/>
      <point x="170" y="400" type="curve"/>
      <point x="230" y="400" type="line"/>
      <point x="233" y="413"/>
      <point x="234" y="429"/>
      <point x="234" y="440" type="curve" smooth="yes"/>
      <point x="234" y="451"/>
      <point x="233" y="468"/>
      <point x="230" y="480" type="curve"/>
      <point x="170" y="480" type="line"/>
    </contour>
    <contour>
      <point x="167" y="388"/>
      <point x="166" y="371"/>
      <point x="166" y="360" type="curve" smooth="yes"/>
      <point x="166" y="349"/>
      <point x="167" y="333"/>
      <point x="170" y="320" type="curve"/>
      <point x="230" y="320" type="line"/>
      <point x="233" y="333"/>
      <point x="234" y="349"/>
      <point x="234" y="360" type="curve" smooth="yes"/>
      <point x="234" y="371"/>
      <point x="233" y="388"/>
      <point x="230" y="400" type="curve"/>
      <point x="170" y="400" type="line"/>
    </contour>
    <contour>
      <point x="167" y="308"/>
      <point x="166" y="291"/>
      <point x="166" y="280" type="curve" smooth="yes"/>
      <point x="166" y="269"/>
      <point x="167" y="253"/>
      <point x="170" y="240" type="curve"/>
      <point x="230" y="240" type="line"/>
      <point x="233" y="253"/>
      <point x="234" y="269"/>
      <point x="234" y="280" type="curve" smooth="yes"/>
      <point x="234" y="291"/>
      <point x="233" y="308"/>
      <point x="230" y="320" type="curve"/>
      <point x="170" y="320" type="line"/>
    </contour>
  </outline>
</glyph>
<glyph name="Eth" format="1">
  <advance width="400"/>
  <unicode hex="00D0"/>
  <outline>
    <contour>
      <point x="77" y="148"/>
      <point x="76" y="131"/>
      <point x="76" y="120" type="curve" smooth="yes"/>
      <point x="76" y="109"/>
      <point x="77" y="93"/>
      <point x="80" y="80" type="curve"/>
      <point x="160" y="80" type="line"/>
      <point x="163" y="93"/>
      <point x="164" y="109"/>
      <point x="164" y="120" type="curve" smooth="yes"/>
      <point x="164" y="131"/>
      <point x="163" y="148"/>
      <point x="160" y="160" type="curve"/>
      <point x="80" y="160" type="line"/>
    </contour>
    <contour>
      <point x="77" y="228"/>
      <point x="76" y="211"/>
      <point x="76" y="200" type="curve" smooth="yes"/>
      <point x="76" y="189"/>
      <point x="77" y="173"/>
      <point x="80" y="160" type="curve"/>
      <point x="160" y="160" type="line"/>
      <point x="163" y="173"/>
      <point x="164" y="189"/>
      <point x="164" y="200" type="curve" smooth="yes"/>
      <point x="164" y="211"/>
      <point x="163" y="228"/>
      <point x="160" y="240" type="curve"/>
      <point x="80" y="240" type="line"/>
    </contour>
    <contour>
      <point x="77" y="388"/>
      <point x="76" y="371"/>
      <point x="76" y="360" type="curve" smooth="yes"/>
      <point x="76" y="349"/>
      <point x="77" y="333"/>
      <point x="80" y="320" type="curve"/>
      <point x="160" y="320" type="line"/>
      <point x="163" y="333"/>
      <point x="164" y="349"/>
      <point x="164" y="360" type="curve" smooth="yes"/>
      <point x="164" y="371"/>
      <point x="163" y="388"/>
      <point x="160" y="400" type="curve"/>
      <point x="80" y="400" type="line"/>
    </contour>
    <contour>
      <point x="77" y="468"/>
      <point x="76" y="451"/>
      <point x="76" y="440" type="curve" smooth="yes"/>
      <point x="76" y="429"/>
      <point x="77" y="413"/>
      <point x="80" y="400" type="curve"/>
      <point x="160" y="400" type="line"/>
      <point x="163" y="413"/>
      <point x="164" y="429"/>
      <point x="164" y="440" type="curve" smooth="yes"/>
      <point x="164" y="451"/>
      <point x="163" y="468"/>
      <point x="160" y="480" type="curve"/>
      <point x="80" y="480" type="line"/>
    </contour>
    <contour>
      <point x="37" y="548"/>
      <point x="36" y="531"/>
      <point x="36" y="520" type="curve" smooth="yes"/>
      <point x="36" y="509"/>
      <point x="37" y="493"/>
      <point x="40" y="480" type="curve"/>
      <point x="200" y="480" type="line"/>
      <point x="203" y="493"/>
      <point x="204" y="509"/>
      <point x="204" y="520" type="curve" smooth="yes"/>
      <point x="204" y="531"/>
      <point x="203" y="548"/>
      <point x="200" y="560" type="curve"/>
      <point x="40" y="560" type="line"/>
    </contour>
    <contour>
      <point x="197" y="548"/>
      <point x="196" y="531"/>
      <point x="196" y="520" type="curve" smooth="yes"/>
      <point x="196" y="509"/>
      <point x="197" y="493"/>
      <point x="200" y="480" type="curve"/>
      <point x="280" y="480" type="line"/>
      <point x="283" y="493"/>
      <point x="284" y="509"/>
      <point x="284" y="520" type="curve" smooth="yes"/>
      <point x="284" y="531"/>
      <point x="283" y="548"/>
      <point x="280" y="560" type="curve"/>
      <point x="200" y="560" type="line"/>
    </contour>
    <contour>
      <point x="37" y="68"/>
      <point x="36" y="51"/>
      <point x="36" y="40" type="curve" smooth="yes"/>
      <point x="36" y="29"/>
      <point x="37" y="13"/>
      <point x="40" y="0" type="curve"/>
      <point x="200" y="0" type="line"/>
      <point x="203" y="13"/>
      <point x="204" y="29"/>
      <point x="204" y="40" type="curve" smooth="yes"/>
      <point x="204" y="51"/>
      <point x="203" y="68"/>
      <point x="200" y="80" type="curve"/>
      <point x="40" y="80" type="line"/>
    </contour>
    <contour>
      <point x="197" y="68"/>
      <point x="196" y="51"/>
      <point x="196" y="40" type="curve" smooth="yes"/>
      <point x="196" y="29"/>
      <point x="197" y="13"/>
      <point x="200" y="0" type="curve"/>
      <point x="280" y="0" type="line"/>
      <point x="283" y="13"/>
      <point x="284" y="29"/>
      <point x="284" y="40" type="curve" smooth="yes"/>
      <point x="284" y="51"/>
      <point x="283" y="68"/>
      <point x="280" y="80" type="curve"/>
      <point x="200" y="80" type="line"/>
    </contour>
    <contour>
      <point x="237" y="148"/>
      <point x="236" y="131"/>
      <point x="236" y="120" type="curve" smooth="yes"/>
      <point x="236" y="109"/>
      <point x="237" y="93"/>
      <point x="240" y="80" type="curve"/>
      <point x="320" y="80" type="line"/>
      <point x="323" y="93"/>
      <point x="324" y="109"/>
      <point x="324" y="120" type="curve" smooth="yes"/>
      <point x="324" y="131"/>
      <point x="323" y="148"/>
      <point x="320" y="160" type="curve"/>
      <point x="240" y="160" type="line"/>
    </contour>
    <contour>
      <point x="277" y="228"/>
      <point x="276" y="211"/>
      <point x="276" y="200" type="curve" smooth="yes"/>
      <point x="276" y="189"/>
      <point x="277" y="173"/>
      <point x="280" y="160" type="curve"/>
      <point x="360" y="160" type="line"/>
      <point x="363" y="173"/>
      <point x="364" y="189"/>
      <point x="364" y="200" type="curve" smooth="yes"/>
      <point x="364" y="211"/>
      <point x="363" y="228"/>
      <point x="360" y="240" type="curve"/>
      <point x="280" y="240" type="line"/>
    </contour>
    <contour>
      <point x="277" y="388"/>
      <point x="276" y="371"/>
      <point x="276" y="360" type="curve" smooth="yes"/>
      <point x="276" y="349"/>
      <point x="277" y="333"/>
      <point x="280" y="320" type="curve"/>
      <point x="360" y="320" type="line"/>
      <point x="363" y="333"/>
      <point x="364" y="349"/>
      <point x="364" y="360" type="curve" smooth="yes"/>
      <point x="364" y="371"/>
      <point x="363" y="388"/>
      <point x="360" y="400" type="curve"/>
      <point x="280" y="400" type="line"/>
    </contour>
    <contour>
      <point x="237" y="468"/>
      <point x="236" y="451"/>
      <point x="236" y="440" type="curve" smooth="yes"/>
      <point x="236" y="429"/>
      <point x="237" y="413"/>
      <point x="240" y="400" type="curve"/>
      <point x="320" y="400" type="line"/>
      <point x="323" y="413"/>
      <point x="324" y="429"/>
      <point x="324" y="440" type="curve" smooth="yes"/>
      <point x="324" y="451"/>
      <point x="323" y="468"/>
      <point x="320" y="480" type="curve"/>
      <point x="240" y="480" type="line"/>
    </contour>
    <contour>
      <point x="37" y="308"/>
      <point x="36" y="291"/>
      <point x="36" y="280" type="curve" smooth="yes"/>
      <point x="36" y="269"/>
      <point x="37" y="253"/>
      <point x="40" y="240" type="curve"/>
      <point x="200" y="240" type="line"/>
      <point x="203" y="253"/>
      <point x="204" y="269"/>
      <point x="204" y="280" type="curve" smooth="yes"/>
      <point x="204" y="291"/>
      <point x="203" y="308"/>
      <point x="200" y="320" type="curve"/>
      <point x="40" y="320" type="line"/>
    </contour>
    <contour>
      <point x="277" y="308"/>
      <point x="276" y="291"/>
      <point x="276" y="280" type="curve" smooth="yes"/>
      <point x="276" y="269"/>
      <point x="277" y="253"/>
      <point x="280" y="240" type="curve"/>
      <point x="360" y="240" type="line"/>
      <point x="363" y="253"/>
      <point x="364" y="269"/>
      <point x="364" y="280" type="curve" smooth="yes"/>
      <point x="364" y="291"/>
      <point x="363" y="308"/>
      <point x="360" y="320" type="curve"/>
      <point x="280" y="320" type="line"/>
    </contour>
  </outline>
</glyph>
<glyph name="multiply" format="1">
  <advance width="400"/>
  <unicode hex="00D7"/>
  <outline>
    <contour>
      <point x="107" y="468"/>
      <point x="106" y="451"/>
      <point x="106" y="440" type="curve" smooth="yes"/>
      <point x="106" y="429"/>
      <point x="107" y="413"/>
      <point x="110" y="400" type="curve"/>
      <point x="170" y="400" type="line"/>
      <point x="173" y="413"/>
      <point x="174" y="429"/>
      <point x="174" y="440" type="curve" smooth="yes"/>
      <point x="174" y="451"/>
      <point x="173" y="468"/>
      <point x="170" y="480" type="curve"/>
      <point x="110" y="480" type="line"/>
    </contour>
    <contour>
      <point x="147" y="388"/>
      <point x="146" y="371"/>
      <point x="146" y="360" type="curve" smooth="yes"/>
      <point x="146" y="349"/>
      <point x="147" y="333"/>
      <point x="150" y="320" type="curve"/>
      <point x="250" y="320" type="line"/>
      <point x="253" y="333"/>
      <point x="254" y="349"/>
      <point x="254" y="360" type="curve" smooth="yes"/>
      <point x="254" y="371"/>
      <point x="253" y="388"/>
      <point x="250" y="400" type="curve"/>
      <point x="150" y="400" type="line"/>
    </contour>
    <contour>
      <point x="147" y="308"/>
      <point x="146" y="291"/>
      <point x="146" y="280" type="curve" smooth="yes"/>
      <point x="146" y="269"/>
      <point x="147" y="253"/>
      <point x="150" y="240" type="curve"/>
      <point x="250" y="240" type="line"/>
      <point x="253" y="253"/>
      <point x="254" y="269"/>
      <point x="254" y="280" type="curve" smooth="yes"/>
      <point x="254" y="291"/>
      <point x="253" y="308"/>
      <point x="250" y="320" type="curve"/>
      <point x="150" y="320" type="line"/>
    </contour>
    <contour>
      <point x="77" y="548"/>
      <point x="76" y="531"/>
      <point x="76" y="520" type="curve" smooth="yes"/>
      <point x="76" y="509"/>
      <point x="77" y="493"/>
      <point x="80" y="480" type="curve"/>
      <point x="140" y="480" type="line"/>
      <point x="143" y="493"/>
      <point x="144" y="509"/>
      <point x="144" y="520" type="curve" smooth="yes"/>
      <point x="144" y="531"/>
      <point x="143" y="548"/>
      <point x="140" y="560" type="curve"/>
      <point x="80" y="560" type="line"/>
    </contour>
    <contour>
      <point x="107" y="228"/>
      <point x="106" y="211"/>
      <point x="106" y="200" type="curve" smooth="yes"/>
      <point x="106" y="189"/>
      <point x="107" y="173"/>
      <point x="110" y="160" type="curve"/>
      <point x="170" y="160" type="line"/>
      <point x="173" y="173"/>
      <point x="174" y="189"/>
      <point x="174" y="200" type="curve" smooth="yes"/>
      <point x="174" y="211"/>
      <point x="173" y="228"/>
      <point x="170" y="240" type="curve"/>
      <point x="110" y="240" type="line"/>
    </contour>
    <contour>
      <point x="77" y="148"/>
      <point x="76" y="131"/>
      <point x="76" y="120" type="curve" smooth="yes"/>
      <point x="76" y="109"/>
      <point x="77" y="93"/>
      <point x="80" y="80" type="curve"/>
      <point x="140" y="80" type="line"/>
      <point x="143" y="93"/>
      <point x="144" y="109"/>
      <point x="144" y="120" type="curve" smooth="yes"/>
      <point x="144" y="131"/>
      <point x="143" y="148"/>
      <point x="140" y="160" type="curve"/>
      <point x="80" y="160" type="line"/>
    </contour>
    <contour>
      <point x="227" y="468"/>
      <point x="226" y="451"/>
      <point x="226" y="440" type="curve" smooth="yes"/>
      <point x="226" y="429"/>
      <point x="227" y="413"/>
      <point x="230" y="400" type="curve"/>
      <point x="290" y="400" type="line"/>
      <point x="293" y="413"/>
      <point x="294" y="429"/>
      <point x="294" y="440" type="curve" smooth="yes"/>
      <point x="294" y="451"/>
      <point x="293" y="468"/>
      <point x="290" y="480" type="curve"/>
      <point x="230" y="480" type="line"/>
    </contour>
    <contour>
      <point x="257" y="548"/>
      <point x="256" y="531"/>
      <point x="256" y="520" type="curve" smooth="yes"/>
      <point x="256" y="509"/>
      <point x="257" y="493"/>
      <point x="260" y="480" type="curve"/>
      <point x="320" y="480" type="line"/>
      <point x="323" y="493"/>
      <point x="324" y="509"/>
      <point x="324" y="520" type="curve" smooth="yes"/>
      <point x="324" y="531"/>
      <point x="323" y="548"/>
      <point x="320" y="560" type="curve"/>
      <point x="260" y="560" type="line"/>
    </contour>
    <contour>
      <point x="227" y="228"/>
      <point x="226" y="211"/>
      <point x="226" y="200" type="curve" smooth="yes"/>
      <point x="226" y="189"/>
      <point x="227" y="173"/>
      <point x="230" y="160" type="curve"/>
      <point x="290" y="160" type="line"/>
      <point x="293" y="173"/>
      <point x="294" y="189"/>
      <point x="294" y="200" type="curve" smooth="yes"/>
      <point x="294" y="211"/>
      <point x="293" y="228"/>
      <point x="290" y="240" type="curve"/>
      <point x="230" y="240" type="line"/>
    </contour>
    <contour>
      <point x="257" y="148"/>
      <point x="256" y="131"/>
      <point x="256" y="120" type="curve" smooth="yes"/>
      <point x="256" y="109"/>
      <point x="257" y="93"/>
      <point x="260" y="80" type="curve"/>
      <point x="320" y="80" type="line"/>
      <point x="323" y="93"/>
      <point x="324" y="109"/>
      <point x="324" y="120" type="curve" smooth="yes"/>
      <point x="324" y="131"/>
      <point x="323" y="148"/>
      <point x="320" y="160" type="curve"/>
      <point x="260" y="160" type="line"/>
    </contour>
  </outline>
</glyph>
<glyph name="Thorn" format="1">
  <advance width="400"/>
  <unicode hex="00DE"/>
  <outline>
    <contour>
      <point x="247" y="228"/>
      <point x="246" y="211"/>
      <point x="246" y="200" type="curve" smooth="yes"/>
      <point x="246" y="189"/>
      <point x="247" y="173"/>
      <point x="250" y="160" type="curve"/>
      <point x="330" y="160" type="line"/>
      <point x="333" y="173"/>
      <point x="334" y="189"/>
      <point x="334" y="200" type="curve" smooth="yes"/>
      <point x="334" y="211"/>
      <point x="333" y="228"/>
      <point x="330" y="240" type="curve"/>
      <point x="250" y="240" type="line"/>
    </contour>
    <contour>
      <point x="247" y="388"/>
      <point x="246" y="371"/>
      <point x="246" y="360" type="curve" smooth="yes"/>
      <point x="246" y="349"/>
      <point x="247" y="333"/>
      <point x="250" y="320" type="curve"/>
      <point x="330" y="320" type="line"/>
      <point x="333" y="333"/>
      <point x="334" y="349"/>
      <point x="334" y="360" type="curve" smooth="yes"/>
      <point x="334" y="371"/>
      <point x="333" y="388"/>
      <point x="330" y="400" type="curve"/>
      <point x="250" y="400" type="line"/>
    </contour>
    <contour>
      <point x="157" y="468"/>
      <point x="156" y="451"/>
      <point x="156" y="440" type="curve" smooth="yes"/>
      <point x="156" y="429"/>
      <point x="157" y="413"/>
      <point x="160" y="400" type="curve"/>
      <point x="280" y="400" type="line"/>
      <point x="283" y="413"/>
      <point x="284" y="429"/>
      <point x="284" y="440" type="curve" smooth="yes"/>
      <point x="284" y="451"/>
      <point x="283" y="468"/>
      <point x="280" y="480" type="curve"/>
      <point x="160" y="480" type="line"/>
    </contour>
    <contour>
      <point x="277" y="308"/>
      <point x="276" y="291"/>
      <point x="276" y="280" type="curve" smooth="yes"/>
      <point x="276" y="269"/>
      <point x="277" y="253"/>
      <point x="280" y="240" type="curve"/>
      <point x="360" y="240" type="line"/>
      <point x="363" y="253"/>
      <point x="364" y="269"/>
      <point x="364" y="280" type="curve" smooth="yes"/>
      <point x="364" y="291"/>
      <point x="363" y="308"/>
      <point x="360" y="320" type="curve"/>
      <point x="280" y="320" type="line"/>
    </contour>
    <contour>
      <point x="77" y="148"/>
      <point x="76" y="131"/>
      <point x="76" y="120" type="curve" smooth="yes"/>
      <point x="76" y="109"/>
      <point x="77" y="93"/>
      <point x="80" y="80" type="curve"/>
      <point x="160" y="80" type="line"/>
      <point x="163" y="93"/>
      <point x="164" y="109"/>
      <point x="164" y="120" type="curve" smooth="yes"/>
      <point x="164" y="131"/>
      <point x="163" y="148"/>
      <point x="160" y="160" type="curve"/>
      <point x="80" y="160" type="line"/>
    </contour>
    <contour>
      <point x="77" y="228"/>
      <point x="76" y="211"/>
      <point x="76" y="200" type="curve" smooth="yes"/>
      <point x="76" y="189"/>
      <point x="77" y="173"/>
      <point x="80" y="160" type="curve"/>
      <point x="160" y="160" type="line"/>
      <point x="163" y="173"/>
      <point x="164" y="189"/>
      <point x="164" y="200" type="curve" smooth="yes"/>
      <point x="164" y="211"/>
      <point x="163" y="228"/>
      <point x="160" y="240" type="curve"/>
      <point x="80" y="240" type="line"/>
    </contour>
    <contour>
      <point x="77" y="388"/>
      <point x="76" y="371"/>
      <point x="76" y="360" type="curve" smooth="yes"/>
      <point x="76" y="349"/>
      <point x="77" y="333"/>
      <point x="80" y="320" type="curve"/>
      <point x="160" y="320" type="line"/>
      <point x="163" y="333"/>
      <point x="164" y="349"/>
      <point x="164" y="360" type="curve" smooth="yes"/>
      <point x="164" y="371"/>
      <point x="163" y="388"/>
      <point x="160" y="400" type="curve"/>
      <point x="80" y="400" type="line"/>
    </contour>
    <contour>
      <point x="77" y="468"/>
      <point x="76" y="451"/>
      <point x="76" y="440" type="curve" smooth="yes"/>
      <point x="76" y="429"/>
      <point x="77" y="413"/>
      <point x="80" y="400" type="curve"/>
      <point x="160" y="400" type="line"/>
      <point x="163" y="413"/>
      <point x="164" y="429"/>
      <point x="164" y="440" type="curve" smooth="yes"/>
      <point x="164" y="451"/>
      <point x="163" y="468"/>
      <point x="160" y="480" type="curve"/>
      <point x="80" y="480" type="line"/>
    </contour>
    <contour>
      <point x="37" y="548"/>
      <point x="36" y="531"/>
      <point x="36" y="520" type="curve" smooth="yes"/>
      <point x="36" y="509"/>
      <point x="37" y="493"/>
      <point x="40" y="480" type="curve"/>
      <point x="160" y="480" type="line"/>
      <point x="163" y="493"/>
      <point x="164" y="509"/>
      <point x="164" y="520" type="curve" smooth="yes"/>
      <point x="164" y="531"/>
      <point x="163" y="548"/>
      <point x="160" y="560" type="curve"/>
      <point x="40" y="560" type="line"/>
    </contour>
    <contour>
      <point x="77" y="308"/>
      <point x="76" y="291"/>
      <point x="76" y="280" type="curve" smooth="yes"/>
      <point x="76" y="269"/>
      <point x="77" y="253"/>
      <point x="80" y="240" type="curve"/>
      <point x="160" y="240" type="line"/>
      <point x="163" y="253"/>
      <point x="164" y="269"/>
      <point x="164" y="280" type="curve" smooth="yes"/>
      <point x="164" y="291"/>
      <point x="163" y="308"/>
      <point x="160" y="320" type="curve"/>
      <point x="80" y="320" type="line"/>
    </contour>
    <contour>
      <point x="157" y="148"/>
      <point x="156" y="131"/>
      <point x="156" y="120" type="curve" smooth="yes"/>
      <point x="156" y="109"/>
      <point x="157" y="93"/>
      <point x="160" y="80" type="curve"/>
      <point x="280" y="80" type="line"/>
      <point x="283" y="93"/>
      <point x="284" y="109"/>
      <point x="284" y="120" type="curve" smooth="yes"/>
      <point x="284" y="131"/>
      <point x="283" y="148"/>
      <point x="280" y="160" type="curve"/>
      <point x="160" y="160" type="line"/>
    </contour>
    <contour>
      <point x="37" y="68"/>
      <point x="36" y="51"/>
      <point x="36" y="40" type="curve" smooth="yes"/>
      <point x="36" y="29"/>
      <point x="37" y="13"/>
      <point x="40" y="0" type="curve"/>
      <point x="160" y="0" type="line"/>
      <point x="163" y="13"/>
      <point x="164" y="29"/>
      <point x="164" y="40" type="curve" smooth="yes"/>
      <point x="164" y="51"/>
      <point x="163" y="68"/>
      <point x="160" y="80" type="curve"/>
      <point x="40" y="80" type="line"/>
    </contour>
  </outline>
</glyph>
<glyph name="eth" format="1">
  <advance width="400"/>
  <unicode hex="00F0"/>
  <outline>
    <contour>
      <point x="67" y="148"/>
      <point x="66" y="131"/>
      <point x="66" y="120" type="curve" smooth="yes"/>
      <point x="66" y="109"/>
      <point x="67" y="93"/>
      <point x="70" y="80" type="curve"/>
      <point x="150" y="80" type="line"/>
      <point x="153" y="93"/>
      <point x="154" y="109"/>
      <point x="154" y="120" type="curve" smooth="yes"/>
      <point x="154" y="131"/>
      <point x="153" y="148"/>
      <point x="150" y="160" type="curve"/>
      <point x="70" y="160" type="line"/>
    </contour>
    <contour>
      <point x="37" y="228"/>
      <point x="36" y="211"/>
      <point x="36" y="200" type="curve" smooth="yes"/>
      <point x="36" y="189"/>
      <point x="37" y="173"/>
      <point x="40" y="160" type="curve"/>
      <point x="120" y="160" type="line"/>
      <point x="123" y="173"/>
      <point x="124" y="189"/>
      <point x="124" y="200" type="curve" smooth="yes"/>
      <point x="124" y="211"/>
      <point x="123" y="228"/>
      <point x="120" y="240" type="curve"/>
      <point x="40" y="240" type="line"/>
    </contour>
    <contour>
      <point x="67" y="308"/>
      <point x="66" y="291"/>
      <point x="66" y="280" type="curve" smooth="yes"/>
      <point x="66" y="269"/>
      <point x="67" y="253"/>
      <point x="70" y="240" type="curve"/>
      <point x="150" y="240" type="line"/>
      <point x="153" y="253"/>
      <point x="154" y="269"/>
      <point x="154" y="280" type="curve" smooth="yes"/>
      <point x="154" y="291"/>
      <point x="153" y="308"/>
      <point x="150" y="320" type="curve"/>
      <point x="70" y="320" type="line"/>
    </contour>
    <contour>
      <point x="117" y="68"/>
      <point x="116" y="51"/>
      <point x="116" y="40" type="curve" smooth="yes"/>
      <point x="116" y="29"/>
      <point x="117" y="13"/>
      <point x="120" y="0" type="curve"/>
      <point x="240" y="0" type="line"/>
      <point x="243" y="13"/>
      <point x="244" y="29"/>
      <point x="244" y="40" type="curve" smooth="yes"/>
      <point x="244" y="51"/>
      <point x="243" y="68"/>
      <point x="240" y="80" type="curve"/>
      <point x="120" y="80" type="line"/>
    </contour>
    <contour>
      <point x="117" y="388"/>
      <point x="116" y="371"/>
      <point x="116" y="360" type="curve" smooth="yes"/>
      <point x="116" y="349"/>
      <point x="117" y="333"/>
      <point x="120" y="320" type="curve"/>
      <point x="240" y="320" type="line"/>
      <point x="243" y="333"/>
      <point x="244" y="349"/>
      <point x="244" y="360" type="curve" smooth="yes"/>
      <point x="244" y="371"/>
      <point x="243" y="388"/>
      <point x="240" y="400" type="curve"/>
      <point x="120" y="400" type="line"/>
    </contour>
    <contour>
      <point x="277" y="228"/>
      <point x="276" y="211"/>
      <point x="276" y="200" type="curve" smooth="yes"/>
      <point x="276" y="189"/>
      <point x="277" y="173"/>
      <point x="280" y="160" type="curve"/>
      <point x="360" y="160" type="line"/>
      <point x="363" y="173"/>
      <point x="364" y="189"/>
      <point x="364" y="200" type="curve" smooth="yes"/>
      <point x="364" y="211"/>
      <point x="363" y="228"/>
      <point x="360" y="240" type="curve"/>
      <point x="280" y="240" type="line"/>
    </contour>
    <contour>
      <point x="237" y="68"/>
      <point x="236" y="51"/>
      <point x="236" y="40" type="curve" smooth="yes"/>
      <point x="236" y="29"/>
      <point x="237" y="13"/>
      <point x="240" y="0" type="curve"/>
      <point x="320" y="0" type="line"/>
      <point x="323" y="13"/>
      <point x="324" y="29"/>
      <point x="324" y="40" type="curve" smooth="yes"/>
      <point x="324" y="51"/>
      <point x="323" y="68"/>
      <point x="320" y="80" type="curve"/>
      <point x="240" y="80" type="line"/>
    </contour>
    <contour>
      <point x="277" y="148"/>
      <point x="276" y="131"/>
      <point x="276" y="120" type="curve" smooth="yes"/>
      <point x="276" y="109"/>
      <point x="277" y="93"/>
      <point x="280" y="80" type="curve"/>
      <point x="360" y="80" type="line"/>
      <point x="363" y="93"/>
      <point x="364" y="109"/>
      <point x="364" y="120" type="curve" smooth="yes"/>
      <point x="364" y="131"/>
      <point x="363" y="148"/>
      <point x="360" y="160" type="curve"/>
      <point x="280" y="160" type="line"/>
    </contour>
    <contour>
      <point x="277" y="308"/>
      <point x="276" y="291"/>
      <point x="276" y="280" type="curve" smooth="yes"/>
      <point x="276" y="269"/>
      <point x="277" y="253"/>
      <point x="280" y="240" type="curve"/>
      <point x="360" y="240" type="line"/>
      <point x="363" y="253"/>
      <point x="364" y="269"/>
      <point x="364" y="280" type="curve" smooth="yes"/>
      <point x="364" y="291"/>
      <point x="363" y="308"/>
      <point x="360" y="320" type="curve"/>
      <point x="280" y="320" type="line"/>
    </contour>
    <contour>
      <point x="237" y="388"/>
      <point x="236" y="371"/>
      <point x="236" y="360" type="curve" smooth="yes"/>
      <point x="236" y="349"/>
      <point x="237" y="333"/>
      <point x="240" y="320" type="curve"/>
      <point x="360" y="320" type="line"/>
      <point x="363" y="333"/>
      <point x="364" y="349"/>
      <point x="364" y="360" type="curve" smooth="yes"/>
      <point x="364" y="371"/>
      <point x="363" y="388"/>
      <point x="360" y="400" type="curve"/>
      <point x="240" y="400" type="line"/>
    </contour>
    <contour>
      <point x="147" y="468"/>
      <point x="146" y="451"/>
      <point x="146" y="440" type="curve" smooth="yes"/>
      <point x="146" y="429"/>
      <point x="147" y="413"/>
      <point x="150" y="400" type="curve"/>
      <point x="210" y="400" type="line"/>
      <point x="213" y="413"/>
      <point x="214" y="429"/>
      <point x="214" y="440" type="curve" smooth="yes"/>
      <point x="214" y="451"/>
      <point x="213" y="468"/>
      <point x="210" y="480" type="curve"/>
      <point x="150" y="480" type="line"/>
    </contour>
    <contour>
      <point x="187" y="548"/>
      <point x="186" y="531"/>
      <point x="186" y="520" type="curve" smooth="yes"/>
      <point x="186" y="509"/>
      <point x="187" y="493"/>
      <point x="190" y="480" type="curve"/>
      <point x="310" y="480" type="line"/>
      <point x="313" y="493"/>
      <point x="314" y="509"/>
      <point x="314" y="520" type="curve" smooth="yes"/>
      <point x="314" y="531"/>
      <point x="313" y="548"/>
      <point x="310" y="560" type="curve"/>
      <point x="190" y="560" type="line"/>
    </contour>
    <contour>
      <point x="277" y="468"/>
      <point x="276" y="451"/>
      <point x="276" y="440" type="curve" smooth="yes"/>
      <point x="276" y="429"/>
      <point x="277" y="413"/>
      <point x="280" y="400" type="curve"/>
      <point x="340" y="400" type="line"/>
      <point x="343" y="413"/>
      <point x="344" y="429"/>
      <point x="344" y="440" type="curve" smooth="yes"/>
      <point x="344" y="451"/>
      <point x="343" y="468"/>
      <point x="340" y="480" type="curve"/>
      <point x="280" y="480" type="line"/>
    </contour>
    <contour>
      <point x="117" y="628"/>
      <point x="116" y="611"/>
      <point x="116" y="600" type="curve" smooth="yes"/>
      <point x="116" y="589"/>
      <point x="117" y="573"/>
      <point x="120" y="560" type="curve"/>
      <point x="280" y="560" type="line"/>
      <point x="283" y="573"/>
      <point x="284" y="589"/>
      <point x="284" y="600" type="curve" smooth="yes"/>
      <point x="284" y="611"/>
      <point x="283" y="628"/>
      <point x="280" y="640" type="curve"/>
      <point x="120" y="640" type="line"/>
    </contour>
    <contour>
      <point x="247" y="708"/>
      <point x="246" y="691"/>
      <point x="246" y="680" type="curve" smooth="yes"/>
      <point x="246" y="669"/>
      <point x="247" y="653"/>
      <point x="250" y="640" type="curve"/>
      <point x="310" y="640" type="line"/>
      <point x="313" y="653"/>
      <point x="314" y="669"/>
      <point x="314" y="680" type="curve" smooth="yes"/>
      <point x="314" y="691"/>
      <point x="313" y="708"/>
      <point x="310" y="720" type="curve"/>
      <point x="250" y="720" type="line"/>
    </contour>
  </outline>
</glyph>
<glyph name="kgreenlandic" format="1">
  <advance width="400"/>
  <unicode hex="0138"/>
  <outline>
    <contour>
      <point x="37" y="148"/>
      <point x="36" y="131"/>
      <point x="36" y="120" type="curve" smooth="yes"/>
      <point x="36" y="109"/>
      <point x="37" y="93"/>
      <point x="40" y="80" type="curve"/>
      <point x="120" y="80" type="line"/>
      <point x="123" y="93"/>
      <point x="124" y="109"/>
      <point x="124" y="120" type="curve" smooth="yes"/>
      <point x="124" y="131"/>
      <point x="123" y="148"/>
      <point x="120" y="160" type="curve"/>
      <point x="40" y="160" type="line"/>
    </contour>
    <contour>
      <point x="37" y="68"/>
      <point x="36" y="51"/>
      <point x="36" y="40" type="curve" smooth="yes"/>
      <point x="36" y="29"/>
      <point x="37" y="13"/>
      <point x="40" y="0" type="curve"/>
      <point x="120" y="0" type="line"/>
      <point x="123" y="13"/>
      <point x="124" y="29"/>
      <point x="124" y="40" type="curve" smooth="yes"/>
      <point x="124" y="51"/>
      <point x="123" y="68"/>
      <point x="120" y="80" type="curve"/>
      <point x="40" y="80" type="line"/>
    </contour>
    <contour>
      <point x="37" y="228"/>
      <point x="36" y="211"/>
      <point x="36" y="200" type="curve" smooth="yes"/>
      <point x="36" y="189"/>
      <point x="37" y="173"/>
      <point x="40" y="160" type="curve"/>
      <point x="120" y="160" type="line"/>
      <point x="123" y="173"/>
      <point x="124" y="189"/>
      <point x="124" y="200" type="curve" smooth="yes"/>
      <point x="124" y="211"/>
      <point x="123" y="228"/>
      <point x="120" y="240" type="curve"/>
      <point x="40" y="240" type="line"/>
    </contour>
    <contour>
      <point x="37" y="308"/>
      <point x="36" y="291"/>
      <point x="36" y="280" type="curve" smooth="yes"/>
      <point x="36" y="269"/>
      <point x="37" y="253"/>
      <point x="40" y="240" type="curve"/>
      <point x="120" y="240" type="line"/>
      <point x="123" y="253"/>
      <point x="124" y="269"/>
      <point x="124" y="280" type="curve" smooth="yes"/>
      <point x="124" y="291"/>
      <point x="123" y="308"/>
      <point x="120" y="320" type="curve"/>
      <point x="40" y="320" type="line"/>
    </contour>
    <contour>
      <point x="37" y="388"/>
      <point x="36" y="371"/>
      <point x="36" y="360" type="curve" smooth="yes"/>
      <point x="36" y="349"/>
      <point x="37" y="333"/>
      <point x="40" y="320" type="curve"/>
      <point x="120" y="320" type="line"/>
      <point x="123" y="333"/>
      <point x="124" y="349"/>
      <point x="124" y="360" type="curve" smooth="yes"/>
      <point x="124" y="371"/>
      <point x="123" y="388"/>
      <point x="120" y="400" type="curve"/>
      <point x="40" y="400" type="line"/>
    </contour>
    <contour>
      <point x="117" y="228"/>
      <point x="116" y="211"/>
      <point x="116" y="200" type="curve" smooth="yes"/>
      <point x="116" y="189"/>
      <point x="117" y="173"/>
      <point x="120" y="160" type="curve"/>
      <point x="220" y="160" type="line"/>
      <point x="223" y="173"/>
      <point x="224" y="189"/>
      <point x="224" y="200" type="curve" smooth="yes"/>
      <point x="224" y="211"/>
      <point x="223" y="228"/>
      <point x="220" y="240" type="curve"/>
      <point x="120" y="240" type="line"/>
    </contour>
    <contour>
      <point x="177" y="308"/>
      <point x="176" y="291"/>
      <point x="176" y="280" type="curve" smooth="yes"/>
      <point x="176" y="269"/>
      <point x="177" y="253"/>
      <point x="180" y="240" type="curve"/>
      <point x="260" y="240" type="line"/>
      <point x="263" y="253"/>
      <point x="264" y="269"/>
      <point x="264" y="280" type="curve" smooth="yes"/>
      <point x="264" y="291"/>
      <point x="263" y="308"/>
      <point x="260" y="320" type="curve"/>
      <point x="180" y="320" type="line"/>
    </contour>
    <contour>
      <point x="217" y="68"/>
      <point x="216" y="51"/>
      <point x="216" y="40" type="curve" smooth="yes"/>
      <point x="216" y="29"/>
      <point x="217" y="13"/>
      <point x="220" y="0" type="curve"/>
      <point x="340" y="0" type="line"/>
      <point x="343" y="13"/>
      <point x="344" y="29"/>
      <point x="344" y="40" type="curve" smooth="yes"/>
      <point x="344" y="51"/>
      <point x="343" y="68"/>
      <point x="340" y="80" type="curve"/>
      <point x="220" y="80" type="line"/>
    </contour>
    <contour>
      <point x="217" y="388"/>
      <point x="216" y="371"/>
      <point x="216" y="360" type="curve" smooth="yes"/>
      <point x="216" y="349"/>
      <point x="217" y="333"/>
      <point x="220" y="320" type="curve"/>
      <point x="360" y="320" type="line"/>
      <point x="363" y="333"/>
      <point x="364" y="349"/>
      <point x="364" y="360" type="curve" smooth="yes"/>
      <point x="364" y="371"/>
      <point x="363" y="388"/>
      <point x="360" y="400" type="curve"/>
      <point x="220" y="400" type="line"/>
    </contour>
    <contour>
      <point x="177" y="148"/>
      <point x="176" y="131"/>
      <point x="176" y="120" type="curve" smooth="yes"/>
      <point x="176" y="109"/>
      <point x="177" y="93"/>
      <point x="180" y="80" type="curve"/>
      <point x="260" y="80" type="line"/>
      <point x="263" y="93"/>
      <point x="264" y="109"/>
      <point x="264" y="120" type="curve" smooth="yes"/>
      <point x="264" y="131"/>
      <point x="263" y="148"/>
      <point x="260" y="160" type="curve"/>
      <point x="180" y="160" type="line"/>
    </contour>
    <contour>
      <point x="200" y="400" type="move" name="top"/>
    </contour>
    <contour>
      <point x="200" y="0" type="move" name="bottom"/>
    </contour>
  </outline>
</glyph>
